<?xml version="1.0" encoding="UTF-8"?>
<svg id="Laag_2" data-name="Laag 2" xmlns="http://www.w3.org/2000/svg" viewBox="0 0 49.18 48.85">
  <defs>
    <style>
      .cls-1 {
        fill: #a42b23;
      }

      .cls-1, .cls-2, .cls-3 {
        stroke-width: 0px;
      }

      .cls-2 {
        fill: #3f6538;
      }

      .cls-3 {
        fill: #000c00;
      }

      .cls-4 {
        fill: none;
        stroke: #000c00;
        stroke-linecap: round;
        stroke-linejoin: round;
        stroke-width: 3px;
      }
    </style>
  </defs>
  <g id="Landingspagina_" data-name="Landingspagina\">
    <g>
      <polygon class="cls-1" points="27.88 17.99 19.61 24.57 11.11 20.84 10.09 35.87 29 47.26 39.69 28.49 29 24.2 27.88 17.99"/>
      <polygon class="cls-2" points="47.35 30.53 29.7 25.79 26.99 17.99 19.61 24.57 4.95 12.99 17.46 5.24 26.47 5.71 26.99 1.41 38.57 5.05 35.39 8.04 44.45 13.18 47.35 30.53"/>
      <g>
        <polygon class="cls-3" points="26.99 1.41 22.32 1.88 21.57 5.15 26.47 5.71 26.99 1.41"/>
        <polygon class="cls-3" points="15.5 5.71 8.96 4.59 0 16.17 8.31 22.24 6.77 39.05 24.28 48.85 29 47.26 10.09 35.87 11.11 20.84 4.48 14.02 15.5 5.71"/>
        <g>
          <path class="cls-3" d="m28.62,3l7.28,2.24-3.92,3.55,10.27,4.3,3.92,16.25-15.32-5.04-2.24-8.22-9.15,7.1L6.77,14.02l10.93-7.28,10.18.93.75-4.67m0-3c-.55,0-1.1.15-1.59.45-.74.46-1.24,1.22-1.38,2.07l-.3,1.9-7.39-.68c-.09,0-.18-.01-.27-.01-.59,0-1.17.17-1.66.5l-10.93,7.28c-.82.55-1.32,1.46-1.34,2.44-.02.98.45,1.91,1.25,2.49l12.7,9.15c.52.38,1.14.57,1.75.57.65,0,1.3-.21,1.84-.63l5.6-4.34,1.06,3.88c.26.97,1,1.75,1.96,2.06l15.32,5.04c.31.1.62.15.94.15.74,0,1.47-.28,2.03-.79.8-.74,1.14-1.85.88-2.91l-3.92-16.25c-.22-.93-.88-1.7-1.76-2.06l-5.91-2.47.42-.38c.8-.72,1.15-1.82.92-2.87-.23-1.05-1.02-1.9-2.05-2.22L29.5.13c-.29-.09-.59-.13-.88-.13h0Z"/>
          <polyline class="cls-4" points="40.95 29.33 29 47.26 10.51 35.12 12 20"/>
          <line class="cls-4" x1="16.25" y1="29.05" x2="15.41" y2="32"/>
          <line class="cls-4" x1="24.28" y1="27.51" x2="22.97" y2="30.53"/>
          <line class="cls-4" x1="26.47" y1="35.92" x2="25.07" y2="38.86"/>
          <line class="cls-4" x1="33.06" y1="30.53" x2="31.52" y2="34.24"/>
        </g>
      </g>
    </g>
  </g>
</svg>