<?xml version="1.0" encoding="UTF-8"?>
<svg id="Laag_2" data-name="Laag 2" xmlns="http://www.w3.org/2000/svg" viewBox="0 0 72.02 88.76">
  <defs>
    <style>
      .cls-1, .cls-2, .cls-3, .cls-4, .cls-5 {
        stroke-width: 0px;
      }

      .cls-2 {
        fill: #a42b23;
      }

      .cls-3 {
        fill: #3f6538;
      }

      .cls-4 {
        fill: #fff;
      }

      .cls-5 {
        fill: #000c00;
      }

      .cls-6 {
        fill: none;
        stroke: #000c00;
        stroke-linecap: round;
        stroke-linejoin: round;
        stroke-width: 3px;
      }
    </style>
  </defs>
  <g id="Landingspagina_" data-name="Landingspagina\">
    <g>
      <g>
        <path class="cls-4" d="m62.1,21.01l-4.11-15.88-15.8-3.74-20.7,2.61-5.72,15.88-8.97,4.3v58.27l63.13,1.68V24.74l-7.84-3.74Zm-12.7-1.12h-21.1l-.93-7.1,12.02-5.42,11.14,5.6-1.12,6.91Z"/>
        <path class="cls-1" d="m39.81,3l16.64,2.51,3.93,16.33,7.69,2.98.94,57.63H8.88V25.3l8.01-3.77,6.12-16.02,16.8-2.51m0-3c-.15,0-.3.01-.44.03l-16.8,2.51c-1.07.16-1.97.88-2.36,1.9l-5.69,14.89-6.92,3.25c-1.05.49-1.72,1.55-1.72,2.71v57.16c0,1.66,1.34,3,3,3h60.14c.8,0,1.57-.32,2.14-.9s.87-1.35.86-2.15l-.94-57.63c-.02-1.22-.78-2.31-1.92-2.75l-6.23-2.42-3.56-14.8c-.29-1.19-1.26-2.08-2.47-2.27L40.26.03c-.15-.02-.3-.03-.45-.03h0Z"/>
        <path class="cls-1" d="m39.35,8.96l11.17,4.01-1.12,6.91h-21.11l-.93-7.1,11.99-3.82m0-3c-.31,0-.61.05-.91.14l-11.99,3.82c-1.38.44-2.25,1.81-2.06,3.25l.93,7.1c.2,1.49,1.47,2.61,2.97,2.61h21.11c1.47,0,2.73-1.07,2.96-2.52l1.12-6.91c.23-1.43-.59-2.82-1.95-3.3l-11.17-4.01c-.33-.12-.67-.18-1.01-.18h0Z"/>
        <g>
          <polygon class="cls-2" points="41.23 47.45 34.11 53.12 26.8 49.91 25.92 62.85 42.19 72.65 51.4 56.5 42.19 52.8 41.23 47.45"/>
          <polygon class="cls-3" points="57.99 58.25 42.8 54.17 40.46 47.45 34.11 53.12 21.49 43.15 32.27 36.48 40.02 36.88 40.46 33.19 50.43 36.32 47.7 38.89 55.5 43.31 57.99 58.25"/>
          <g>
            <polygon class="cls-5" points="40.46 33.19 36.45 33.59 35.8 36.4 40.02 36.88 40.46 33.19"/>
            <polygon class="cls-5" points="30.58 36.88 24.95 35.92 17.23 45.89 24.39 51.11 23.06 65.58 38.13 74.02 42.19 72.65 25.92 62.85 26.8 49.91 21.09 44.04 30.58 36.88"/>
            <g>
              <path class="cls-5" d="m41.87,34.55l6.27,1.93-3.38,3.05,8.84,3.7,3.38,13.99-13.18-4.34-1.93-7.07-7.88,6.11-10.93-7.88,9.41-6.27,8.76.8.64-4.02m0-3c-.55,0-1.1.15-1.59.45-.74.46-1.24,1.22-1.38,2.07l-.2,1.25-5.97-.55c-.09,0-.18-.01-.27-.01-.59,0-1.17.17-1.66.5l-9.41,6.27c-.82.55-1.32,1.46-1.34,2.44-.02.98.45,1.91,1.25,2.49l10.93,7.88c.52.38,1.14.57,1.75.57.65,0,1.3-.21,1.84-.63l4.33-3.36.75,2.74c.27.97,1,1.75,1.96,2.06l13.18,4.34c.31.1.62.15.94.15.74,0,1.47-.28,2.03-.79.8-.74,1.14-1.85.88-2.91l-3.38-13.99c-.22-.93-.88-1.7-1.76-2.06l-4.49-1.88c.71-.72,1.02-1.76.79-2.76-.23-1.05-1.02-1.9-2.05-2.22l-6.27-1.93c-.29-.09-.59-.13-.88-.13h0Z"/>
              <polyline class="cls-6" points="52.48 57.22 42.19 72.65 26.28 62.2 27.56 49.18"/>
              <line class="cls-6" x1="31.22" y1="56.98" x2="30.5" y2="59.51"/>
              <line class="cls-6" x1="38.13" y1="55.65" x2="37.01" y2="58.25"/>
              <line class="cls-6" x1="40.02" y1="62.89" x2="38.82" y2="65.42"/>
              <line class="cls-6" x1="45.16" y1="59.51" x2="44.36" y2="61.44"/>
            </g>
          </g>
        </g>
      </g>
      <polygon class="cls-1" points="47.77 11.36 46.02 20.82 50.92 21.17 52.46 11.99 47.77 11.36"/>
      <polygon class="cls-1" points="21.49 5.41 14.43 7.37 11.07 16.27 0 21.17 .84 88.76 61.77 88.76 66.26 83.99 6.81 82.45 6.81 24.18 15.78 19.89 21.49 5.41"/>
    </g>
  </g>
</svg>