<?xml version="1.0" encoding="UTF-8"?>
<svg id="Laag_2" data-name="Laag 2" xmlns="http://www.w3.org/2000/svg" viewBox="0 0 68.1 111.14">
  <defs>
    <style>
      .cls-1 {
        fill: #74a56a;
      }

      .cls-1, .cls-2, .cls-3, .cls-4 {
        stroke-width: 0px;
      }

      .cls-2 {
        fill: #3f6538;
      }

      .cls-3 {
        fill: #d4e5cb;
      }

      .cls-4 {
        fill: #000c00;
      }
    </style>
  </defs>
  <g id="Landingspagina_" data-name="Landingspagina\">
    <g>
      <polygon class="cls-2" points="45.56 79.2 42.21 59.78 28.1 1.41 20.91 1.79 21.49 18.22 14.65 3.75 7.37 6.74 42.21 82.47 45.56 79.2"/>
      <polygon class="cls-3" points="34.41 79.73 50.46 76.26 55.79 76.26 66.71 94.19 45.7 103.02 37.2 104 30.71 82.28 34.41 79.73"/>
      <polygon class="cls-1" points="43.73 77.72 39.49 17.01 46.26 18.27 50.46 76.26 43.73 77.72"/>
      <polygon class="cls-1" points="42.21 78.05 6.34 22.7 1.11 26.25 36.9 79.2 42.21 78.05"/>
      <g>
        <path class="cls-4" d="m26.81,3l16.44,68.73-2.99-53.42,3.92.56,4.48,58.46,5.98.19,10.46,17-25.21,8.5-7.1-19.14,4.11-4.67L3,26.35l3.92-1.87,31.47,48.47L9.07,6.92l4.48-1.68,25.59,62.57L21.96,3h4.86m0-3h-4.86c-.93,0-1.81.43-2.38,1.17-.57.74-.76,1.7-.52,2.6l5.28,19.93L16.33,4.11c-.47-1.16-1.59-1.86-2.78-1.87-.35,0-.71.06-1.05.19l-4.48,1.68c-.77.29-1.39.89-1.71,1.65-.32.76-.31,1.62.02,2.38l13.94,31.38-10.83-16.67c-.57-.88-1.53-1.37-2.52-1.37-.43,0-.87.09-1.29.29l-3.92,1.87c-.78.37-1.36,1.06-1.59,1.89-.24.83-.11,1.72.36,2.44l32.68,50.95-2.61,2.97c-.73.83-.94,1.99-.56,3.02l7.1,19.14c.45,1.21,1.59,1.96,2.81,1.96.32,0,.64-.05.96-.16l25.21-8.5c.87-.29,1.55-.96,1.86-1.82.31-.86.21-1.81-.27-2.59l-10.46-17c-.53-.86-1.45-1.39-2.46-1.43l-3.28-.1-4.28-55.77c-.11-1.4-1.17-2.54-2.57-2.74l-3.92-.56c-.14-.02-.28-.03-.42-.03-.75,0-1.47.28-2.03.79-.66.61-1.02,1.48-.97,2.38l1.12,20.01L29.73,2.3c-.32-1.35-1.53-2.3-2.92-2.3h0Z"/>
        <polygon class="cls-4" points="8.39 8.88 6.34 14.95 11.38 27.65 22.96 43.62 8.39 8.88"/>
        <polygon class="cls-4" points="19.79 4.31 18.39 11.31 25.39 26.91 19.79 4.31"/>
        <polygon class="cls-4" points="38.18 21.02 34.91 26.91 39.49 41.57 38.18 21.02"/>
        <polygon class="cls-4" points="3 29.15 3 38.3 28.56 78.08 25.39 84.62 37.2 111.14 63.68 101.43 63.68 96.39 39.89 103.02 32.79 83.87 34.91 78.46 3 29.15"/>
      </g>
    </g>
  </g>
</svg>