<?xml version="1.0" encoding="UTF-8"?>
<svg id="Laag_2" data-name="Laag 2" xmlns="http://www.w3.org/2000/svg" viewBox="0 0 117.58 298.93">
  <defs>
    <style>
      .cls-1 {
        fill: #74a56a;
      }

      .cls-1, .cls-2, .cls-3, .cls-4, .cls-5, .cls-6, .cls-7 {
        stroke-width: 0px;
      }

      .cls-2 {
        fill: #4f8348;
      }

      .cls-3 {
        fill: #a42b23;
      }

      .cls-4 {
        fill: #1d1d1b;
      }

      .cls-5 {
        fill: #3f6538;
      }

      .cls-6 {
        fill: #d0cfcf;
      }

      .cls-7 {
        fill: #000c00;
      }

      .cls-8 {
        fill: none;
        stroke: #000c00;
        stroke-linecap: round;
        stroke-linejoin: round;
        stroke-width: 3px;
      }
    </style>
  </defs>
  <g id="Laag_1-2" data-name="Laag 1">
    <g>
      <g>
        <polygon class="cls-6" points="4.62 217.88 4.77 187.34 38.19 188.18 38.19 15.6 82.27 15.6 82.27 187.06 113.28 187.43 113.28 214.7 107.3 215.07 91.61 267.37 31.47 267.37 12.88 218.4 4.62 217.88"/>
        <g>
          <path class="cls-4" d="m82.27,15.6v171.45l31,.37v27.27l-5.98.37-15.69,52.3H31.47l-17.18-49.68-8.59-1.49v-28.02h32.5V15.6h44.08m0-3h-44.08c-1.66,0-3,1.34-3,3v169.58H5.7c-1.66,0-3,1.34-3,3v28.02c0,1.46,1.05,2.71,2.49,2.96l6.85,1.19,16.6,48.01c.42,1.21,1.56,2.02,2.84,2.02h60.14c1.32,0,2.49-.87,2.87-2.14l15.09-50.29,3.89-.24c1.58-.1,2.81-1.41,2.81-2.99v-27.27c0-1.64-1.32-2.98-2.96-3l-28.04-.34V15.6c0-1.66-1.34-3-3-3h0Z"/>
          <polygon class="cls-4" points="4.76 189.3 0 194.76 1.26 221.66 11.21 222.78 28.02 272.65 87.41 272.65 91.61 267.37 31.47 267.37 12.88 218.4 4.62 217.88 4.76 189.3"/>
        </g>
      </g>
      <g id="b_blad">
        <polygon class="cls-2" points="69.2 158.39 68.73 143.54 58.37 140.09 60.51 124.49 33.43 123.18 30.91 132.06 17.09 131.59 17.09 148.86 5.6 149.14 6.35 167.36 44.92 176.13 58.37 163.9 69.2 158.39"/>
        <g>
          <path class="cls-4" d="m34.09,124.49l25.03.93-2.05,16.62,10.46,2.8v18.3l-11.21,1.49-2.24,15.88h-22.04v-5.23H7.38v-24.84h11.39v-17.74l13.07,1.31,2.24-9.53m0-3c-1.39,0-2.6.95-2.92,2.31l-1.64,6.97-10.46-1.05c-.1-.01-.2-.01-.3-.01-.74,0-1.46.27-2.01.78-.63.57-.99,1.38-.99,2.22v14.74H7.38c-1.66,0-3,1.34-3,3v24.84c0,1.66,1.34,3,3,3h21.65v2.23c0,1.66,1.34,3,3,3h22.04c1.49,0,2.76-1.1,2.97-2.58l1.92-13.62,8.95-1.19c1.49-.2,2.6-1.47,2.6-2.97v-18.3c0-1.36-.91-2.55-2.22-2.9l-7.94-2.13,1.73-14.03c.1-.83-.15-1.67-.69-2.31-.54-.64-1.33-1.02-2.17-1.05l-25.03-.93s-.08,0-.11,0h0Z"/>
          <polygon class="cls-4" points="69.2 155.5 47.25 156.71 46.69 170.53 32.78 169.88 32.03 161.66 5.6 162.5 5.6 176.6 30.63 176.6 31.1 182.2 55.1 182.2 58.18 165.86 68.73 163.81 69.2 155.5"/>
        </g>
      </g>
      <g id="b_blad-2" data-name="b_blad">
        <polygon class="cls-2" points="108.89 104.41 107.67 78.92 91.7 78.92 88.53 69.81 60.98 69.81 59.39 89.1 52.97 89.85 54.56 101.33 74.71 106.19 77.65 113.94 100.39 114.41 108.89 104.41"/>
        <g>
          <path class="cls-4" d="m88.06,71.08l2.05,9.34,16.44-.19.93,26.71,7.1.19-1.68,15.32c-.93,0-29.51.75-29.51.75v-6.72h-24.47v-11.39l-4.83-2.05v-11.77l7.26-.75.37-19.42h26.33m0-3h-26.33c-1.63,0-2.97,1.31-3,2.94l-.32,16.77-4.62.48c-1.53.16-2.69,1.45-2.69,2.98v11.77c0,1.2.72,2.29,1.83,2.76l3.01,1.28v9.41c0,1.66,1.34,3,3,3h21.47v3.72c0,.81.33,1.58.91,2.15.56.55,1.31.85,2.09.85.03,0,.05,0,.08,0,11.4-.3,28.64-.74,29.43-.75,1.53,0,2.81-1.16,2.98-2.67l1.68-15.32c.09-.83-.17-1.67-.72-2.3-.55-.63-1.34-1-2.18-1.03l-4.28-.11-.84-23.89c-.06-1.62-1.38-2.9-3-2.9-.01,0-.02,0-.03,0l-14,.16-1.53-6.96c-.3-1.38-1.52-2.36-2.93-2.36h0Z"/>
          <polygon class="cls-4" points="116.08 105.63 114.21 123.74 83.02 124.49 81.53 117.95 57.9 117.11 56.96 106.65 53.72 104.41 52.13 103.67 52.6 98.72 82.37 100.21 82.65 105.81 116.08 105.63"/>
        </g>
      </g>
      <g id="b_blad-3" data-name="b_blad">
        <polygon class="cls-2" points="62.29 56.23 58.83 30.92 7.1 38.58 7.94 54.55 2.43 56.69 6.26 72.66 30.82 77.61 48.37 68.93 62.29 56.23"/>
        <g>
          <path class="cls-4" d="m57.81,32.97l3.17,30.26-9.53,2.8.37,15.88-27.83,2.24-.93-8.96-15.69,1.87-3.17-19.8,5.6-1.31-1.68-16.62,49.68-6.35m0-3c-.13,0-.25,0-.38.02l-49.68,6.35c-1.61.21-2.77,1.66-2.6,3.28l1.42,14-3.03.71c-1.53.36-2.53,1.84-2.28,3.4l3.17,19.8c.24,1.47,1.51,2.53,2.96,2.53.12,0,.24,0,.36-.02l12.67-1.51.62,5.94c.16,1.54,1.46,2.69,2.98,2.69.08,0,.16,0,.24,0l27.83-2.24c1.59-.13,2.8-1.47,2.76-3.06l-.32-13.58,7.32-2.15c1.39-.41,2.29-1.75,2.14-3.19l-3.17-30.26c-.08-.8-.49-1.54-1.12-2.04-.53-.42-1.19-.65-1.86-.65h0Z"/>
          <polygon class="cls-4" points="60.98 54.55 36.7 59.4 37.54 71.08 29.32 72.01 28.11 65.47 4.67 68.83 6.35 78.55 21.67 76.96 23.63 85.08 53.42 82.65 53.14 66.78 63.13 63.14 60.98 54.55"/>
        </g>
      </g>
      <g id="a_blad">
        <polygon class="cls-1" points="59 24.22 57.6 8.53 46.74 8.04 44.78 1.18 23.7 5.03 26.78 20.58 39.46 21.7 40.16 26.88 59 24.22"/>
        <g>
          <path class="cls-4" d="m44.15,3l.98,6.58h10.79l1.68,16.11h-8.96v7.7h-13.73l1.4-8.68h-8.12l-2.52-19.33,18.49-2.38m0-3c-.13,0-.26,0-.39.02l-18.49,2.38c-.79.1-1.51.51-1.99,1.14-.49.63-.7,1.43-.6,2.22l2.52,19.33c.19,1.49,1.47,2.61,2.97,2.61h4.6l-.84,5.21c-.14.87.11,1.75.68,2.42.57.67,1.41,1.05,2.28,1.05h13.73c1.66,0,3-1.34,3-3v-4.7h5.96c.85,0,1.66-.36,2.23-.99.57-.63.84-1.47.76-2.32l-1.68-16.11c-.16-1.53-1.45-2.69-2.98-2.69h-8.2l-.6-4.03c-.22-1.49-1.5-2.56-2.96-2.56h0Z"/>
          <polygon class="cls-4" points="26.5 18.2 41.63 18.2 41.63 22.89 58.58 22.19 58.58 27.23 49.75 27.23 50.03 34.52 33.23 34.52 34.35 26.36 26.5 25.55 26.5 18.2"/>
        </g>
      </g>
      <g id="a_blad-2" data-name="a_blad">
        <polygon class="cls-1" points="90.02 185.14 91.54 172.49 83.77 171.16 83.77 161.14 68.99 160.23 68.29 165.91 57.85 165.84 56.17 176.13 70.32 178.44 69.97 186.78 90.02 185.14"/>
        <g>
          <path class="cls-4" d="m70.23,161.75l12.14.84-.47,10.46,8.12.56-1.03,12.42-8.78.19-1.12,4.95h-13.91l-.47-12.33-7.56-1.77,2.15-9.53h10.37l.56-5.79m0-3c-1.53,0-2.83,1.16-2.98,2.71l-.3,3.08h-7.64c-1.4,0-2.62.97-2.93,2.34l-2.15,9.53c-.36,1.61.64,3.2,2.24,3.58l5.34,1.25.38,10.04c.06,1.61,1.39,2.89,3,2.89h13.91c1.4,0,2.62-.97,2.93-2.34l.6-2.66,6.43-.14c1.54-.03,2.8-1.22,2.93-2.75l1.03-12.42c.07-.8-.19-1.59-.71-2.2-.52-.61-1.27-.98-2.07-1.04l-5.2-.36.34-7.53c.07-1.63-1.17-3.01-2.79-3.13l-12.14-.84c-.07,0-.14,0-.21,0h0Z"/>
          <polygon class="cls-4" points="56.17 174.03 72.84 175.01 72.14 181.88 90.77 182.72 89.09 188.18 81.81 188.18 79.84 192.38 64.02 192.38 62.89 180.62 54.77 178.23 56.17 174.03"/>
        </g>
      </g>
      <polygon class="cls-4" points="7.38 298.75 4.62 289.88 114.86 289.88 110.66 298.93 7.38 298.75"/>
    </g>
  </g>
  <g id="Landingspagina_" data-name="Landingspagina\">
    <g>
      <polygon class="cls-3" points="49.7 175.53 41.44 182.11 32.94 178.38 31.91 193.41 50.82 204.81 61.52 186.04 50.82 181.74 49.7 175.53"/>
      <polygon class="cls-5" points="69.17 188.07 51.53 183.33 48.82 175.53 41.44 182.11 26.78 170.53 39.29 162.78 48.3 163.25 48.82 158.95 60.4 162.6 57.22 165.58 66.28 170.72 69.17 188.07"/>
      <g>
        <polygon class="cls-7" points="48.82 158.95 44.15 159.42 43.4 162.69 48.3 163.25 48.82 158.95"/>
        <polygon class="cls-7" points="37.33 163.25 30.79 162.13 21.83 173.71 30.14 179.78 28.6 196.59 46.11 206.39 50.82 204.81 31.91 193.41 32.94 178.38 26.31 171.56 37.33 163.25"/>
        <g>
          <path class="cls-7" d="m50.45,160.54l7.28,2.24-3.92,3.55,10.27,4.3,3.92,16.25-15.31-5.04-2.24-8.22-9.15,7.1-12.7-9.15,10.93-7.28,10.18.93.75-4.67m0-3c-.55,0-1.1.15-1.59.45-.74.46-1.24,1.22-1.38,2.07l-.3,1.9-7.39-.68c-.09,0-.18-.01-.27-.01-.59,0-1.17.17-1.66.5l-10.93,7.28c-.82.55-1.32,1.46-1.34,2.44-.02.98.45,1.91,1.25,2.49l12.7,9.15c.52.38,1.14.57,1.75.57.65,0,1.3-.21,1.84-.63l5.6-4.34,1.06,3.88c.26.97,1,1.74,1.96,2.06l15.31,5.04c.31.1.62.15.94.15.74,0,1.47-.28,2.03-.79.8-.74,1.14-1.85.88-2.91l-3.92-16.25c-.22-.93-.88-1.7-1.76-2.06l-5.91-2.47.42-.38c.8-.72,1.15-1.82.92-2.87s-1.02-1.9-2.05-2.22l-7.28-2.24c-.29-.09-.59-.13-.88-.13h0Z"/>
          <polyline class="cls-8" points="62.78 186.88 50.82 204.81 32.33 192.67 33.83 177.54"/>
          <line class="cls-8" x1="38.08" y1="186.6" x2="37.24" y2="189.54"/>
          <line class="cls-8" x1="46.11" y1="185.05" x2="44.8" y2="188.07"/>
          <line class="cls-8" x1="48.3" y1="193.46" x2="46.9" y2="196.4"/>
          <line class="cls-8" x1="54.89" y1="188.07" x2="53.35" y2="191.78"/>
        </g>
      </g>
    </g>
    <g>
      <polygon class="cls-3" points="81.24 133.67 77.09 143.39 67.84 144.14 74.07 157.86 96.12 158.91 96.62 137.31 85.17 138.61 81.24 133.67"/>
      <polygon class="cls-5" points="104.32 135.46 86.54 139.67 80.46 134.1 77.09 143.39 58.69 140.16 66.02 127.4 74.17 123.53 72.58 119.51 84.51 117.21 83.13 121.35 93.54 121.57 104.32 135.46"/>
      <g>
        <polygon class="cls-7" points="72.58 119.51 68.7 122.14 69.59 125.37 74.17 123.53 72.58 119.51"/>
        <polygon class="cls-7" points="64.52 128.74 58.23 130.86 55.84 145.31 66.04 146.7 72.66 162.23 92.73 162.54 96.12 158.91 74.07 157.86 67.84 144.14 58.76 141.29 64.52 128.74"/>
        <g>
          <path class="cls-7" d="m82.25,118.64h0m0,0l-1.77,4.99,11.08-1.1,11.17,12.44-15.87,2.83-5.87-6.17-4.68,10.59-15.52-2.02,6.16-11.6,9.4-4.01-1.56-4.46,7.47-1.49m0-3s-.1,0-.14,0c-.17,0-.34.03-.5.07l-7.41,1.47c-.85.17-1.59.7-2.02,1.45-.43.75-.51,1.66-.23,2.48l.63,1.82-6.82,2.91c-.63.27-1.15.75-1.47,1.35l-6.16,11.6c-.46.87-.47,1.91-.02,2.78.45.87,1.3,1.47,2.28,1.6l15.52,2.02c.13.02.26.03.39.03,1.17,0,2.26-.69,2.74-1.79l2.87-6.48,2.78,2.91c.57.6,1.36.93,2.17.93.18,0,.35-.02.53-.05l15.87-2.83c1.07-.19,1.96-.95,2.31-1.98s.12-2.17-.6-2.98l-11.17-12.44c-.57-.64-1.39-1-2.23-1-.1,0-.2,0-.3.01l-6.38.63.15-.41c.14-.35.22-.73.22-1.12,0-1.64-1.32-2.98-2.96-3-.01,0-.03,0-.04,0h0Z"/>
          <polyline class="cls-8" points="98.13 137.45 96.12 158.91 74.09 157 68.22 142.98"/>
          <line class="cls-8" x1="76.26" y1="148.93" x2="76.92" y2="151.92"/>
          <line class="cls-8" x1="82.59" y1="143.76" x2="82.87" y2="147.04"/>
          <line class="cls-8" x1="88.52" y1="150.12" x2="88.68" y2="153.37"/>
          <line class="cls-8" x1="91.75" y1="142.25" x2="92.16" y2="146.25"/>
        </g>
      </g>
    </g>
    <g>
      <polygon class="cls-3" points="38.32 99.55 29.08 104.67 21.32 99.58 17.81 114.23 34.56 128.61 48.23 111.88 38.4 105.86 38.32 99.55"/>
      <polygon class="cls-5" points="55.44 115.15 38.82 107.55 37.45 99.41 29.08 104.67 16.55 90.82 30.17 85.25 38.98 87.21 40.2 83.06 51.02 88.58 47.39 91 55.47 97.57 55.44 115.15"/>
      <g>
        <polygon class="cls-7" points="40.2 83.06 35.52 82.75 34.24 85.84 38.98 87.21 40.2 83.06"/>
        <polygon class="cls-7" points="28.16 85.39 21.9 83.2 11.14 93.12 18.33 100.49 14.01 116.81 29.65 129.39 34.56 128.61 17.81 114.23 21.32 99.58 15.92 91.75 28.16 85.39"/>
        <g>
          <path class="cls-7" d="m41.55,84.9l6.81,3.42-4.46,2.85,9.42,5.94,1.17,16.67-14.26-7.52-.84-8.48-10.2,5.48-11-11.14,11.98-5.37,9.88,2.61,1.51-4.48m0-3c-.39,0-.77.07-1.14.23-.8.33-1.42.99-1.7,1.82l-.62,1.82-7.17-1.9c-.25-.07-.51-.1-.77-.1-.42,0-.84.09-1.23.26l-11.98,5.37c-.9.4-1.54,1.22-1.72,2.19s.12,1.96.81,2.66l11,11.14c.58.59,1.35.89,2.14.89.48,0,.97-.12,1.42-.36l6.25-3.35.4,4c.1,1,.7,1.89,1.59,2.36l14.26,7.52c.44.23.92.35,1.4.35.57,0,1.14-.16,1.64-.49.91-.59,1.43-1.64,1.35-2.72l-1.17-16.67c-.07-.95-.58-1.82-1.39-2.33l-5.42-3.42.48-.3c.91-.58,1.44-1.61,1.38-2.68-.06-1.08-.69-2.04-1.65-2.53l-6.81-3.42c-.42-.21-.88-.32-1.35-.32h0Z"/>
          <polyline class="cls-8" points="49.33 112.92 34.56 128.61 18.35 113.56 22.34 98.89"/>
          <line class="cls-8" x1="25.02" y1="108.53" x2="23.7" y2="111.29"/>
          <line class="cls-8" x1="33.19" y1="108.35" x2="31.4" y2="111.1"/>
          <line class="cls-8" x1="33.96" y1="117" x2="32.09" y2="119.67"/>
          <line class="cls-8" x1="41.35" y1="112.78" x2="39.21" y2="116.18"/>
        </g>
      </g>
    </g>
    <g>
      <polygon class="cls-3" points="82.53 48.93 75.9 57.16 66.79 55.36 69.06 70.26 90 77.26 96.35 56.62 84.98 54.75 82.53 48.93"/>
      <polygon class="cls-5" points="104.26 56.93 86 56.15 81.66 49.13 75.9 57.16 59.07 49.05 69.59 38.76 78.49 37.25 78.05 32.95 90.15 33.98 87.7 37.59 97.66 40.63 104.26 56.93"/>
      <g>
        <polygon class="cls-7" points="78.05 32.95 73.6 34.42 73.58 37.77 78.49 37.25 78.05 32.95"/>
        <polygon class="cls-7" points="67.78 39.64 61.15 39.97 54.93 53.23 64.36 57.34 66.52 74.08 85.74 79.84 90 77.26 69.06 70.26 66.79 55.36 58.83 50.15 67.78 39.64"/>
        <g>
          <path class="cls-7" d="m80,34.14l7.6.6-3.06,4.32,10.96,1.96,7.37,15.01-16.05-1.59-3.98-7.53-7.39,8.92-14.39-6.17,9.08-9.49,10.14-1.3-.29-4.72m0-3c-.78,0-1.54.31-2.1.86-.62.61-.95,1.46-.89,2.32l.12,1.92-7.36.95c-.68.09-1.31.41-1.78.9l-9.08,9.49c-.68.71-.97,1.71-.77,2.67s.85,1.77,1.76,2.16l14.39,6.17c.38.16.78.24,1.18.24.87,0,1.73-.38,2.31-1.09l4.52-5.46,1.88,3.56c.47.89,1.36,1.49,2.36,1.58l16.05,1.59c.1,0,.2.01.3.01.98,0,1.9-.48,2.46-1.29.62-.89.71-2.05.23-3.03l-7.37-15.01c-.42-.86-1.23-1.46-2.17-1.63l-6.31-1.13.33-.46c.62-.88.73-2.03.27-3.01-.46-.98-1.4-1.63-2.48-1.72l-7.6-.6c-.08,0-.16,0-.24,0h0Z"/>
          <polyline class="cls-8" points="97.76 57.16 90 77.26 69.31 69.44 67.47 54.35"/>
          <line class="cls-8" x1="73.59" y1="62.27" x2="73.41" y2="65.32"/>
          <line class="cls-8" x1="81.09" y1="59.01" x2="80.47" y2="62.24"/>
          <line class="cls-8" x1="85.07" y1="66.74" x2="84.34" y2="69.92"/>
          <line class="cls-8" x1="90.32" y1="60.04" x2="89.62" y2="64"/>
        </g>
      </g>
    </g>
  </g>
</svg>