<?xml version="1.0" encoding="UTF-8"?>
<svg id="Laag_2" data-name="Laag 2" xmlns="http://www.w3.org/2000/svg" viewBox="0 0 110.16 203.42">
  <defs>
    <style>
      .cls-1 {
        fill: #74a56a;
      }

      .cls-1, .cls-2, .cls-3, .cls-4, .cls-5 {
        stroke-width: 0px;
      }

      .cls-2 {
        fill: #a42b23;
      }

      .cls-3 {
        fill: #3f6538;
      }

      .cls-4 {
        fill: #d4e5cb;
      }

      .cls-5 {
        fill: #000c00;
      }

      .cls-6 {
        fill: none;
        stroke: #000c00;
        stroke-linecap: round;
        stroke-linejoin: round;
        stroke-width: 3px;
      }
    </style>
  </defs>
  <g id="Landingspagina_" data-name="Landingspagina\">
    <g>
      <polygon class="cls-3" points="49.27 171.49 45.92 152.06 31.81 93.7 24.62 94.07 25.2 110.5 18.36 96.03 11.08 99.02 45.92 174.75 49.27 171.49"/>
      <polygon class="cls-4" points="38.13 172.01 54.17 168.54 59.5 168.54 70.42 186.47 49.41 195.3 40.91 196.28 34.42 174.57 38.13 172.01"/>
      <polygon class="cls-1" points="47.44 170 43.2 109.29 49.97 110.55 54.17 168.54 47.44 170"/>
      <polygon class="cls-1" points="45.92 170.33 10.05 114.99 4.82 118.54 40.61 171.49 45.92 170.33"/>
      <g>
        <path class="cls-5" d="m30.53,95.28l16.44,68.73-2.99-53.42,3.92.56,4.48,58.46,5.98.19,10.46,17-25.21,8.5-7.1-19.14,4.11-4.67L6.71,118.63l3.92-1.87,31.47,48.47L12.78,99.21l4.48-1.68,25.59,62.57-17.18-64.81h4.86m0-3h-4.86c-.93,0-1.81.43-2.38,1.17-.57.74-.76,1.7-.52,2.6l5.28,19.93-8.01-19.59c-.47-1.16-1.59-1.86-2.78-1.87-.35,0-.71.06-1.05.19l-4.48,1.68c-.77.29-1.39.89-1.71,1.65-.32.76-.31,1.62.02,2.38l13.94,31.38-10.83-16.67c-.57-.88-1.53-1.37-2.52-1.37-.43,0-.87.09-1.29.29l-3.92,1.87c-.78.37-1.36,1.06-1.59,1.89-.24.83-.11,1.72.36,2.44l32.68,50.95-2.61,2.97c-.73.83-.94,1.99-.56,3.02l7.1,19.14c.45,1.21,1.59,1.96,2.81,1.96.32,0,.64-.05.96-.16l25.21-8.5c.87-.29,1.55-.96,1.86-1.82.31-.86.21-1.81-.27-2.59l-10.46-17c-.53-.86-1.45-1.39-2.46-1.43l-3.29-.1-4.28-55.77c-.11-1.4-1.17-2.54-2.57-2.74l-3.92-.56c-.14-.02-.28-.03-.42-.03-.75,0-1.47.28-2.03.79-.66.61-1.02,1.48-.97,2.38l1.12,20.01-8.65-36.19c-.32-1.35-1.53-2.3-2.92-2.3h0Z"/>
        <polygon class="cls-5" points="12.11 101.17 10.05 107.24 15.09 119.94 26.67 135.91 12.11 101.17"/>
        <polygon class="cls-5" points="23.5 96.59 22.1 103.59 29.1 119.19 23.5 96.59"/>
        <polygon class="cls-5" points="41.89 113.31 38.63 119.19 43.2 133.85 41.89 113.31"/>
        <polygon class="cls-5" points="6.71 121.43 6.71 130.58 32.28 170.36 29.1 176.9 40.91 203.42 67.39 193.71 67.39 188.67 43.6 195.3 36.5 176.15 38.63 170.74 6.71 121.43"/>
      </g>
    </g>
    <g>
      <polygon class="cls-2" points="42.21 16.94 21.29 12.54 7.19 37.36 35.15 61.94 68.61 48.81 64.9 23 46.13 16.94 42.21 16.94"/>
      <path class="cls-5" d="m22.11,14.49l32.64,5.46,8.54,4.34,5.32,24.51-33.2,9.95-26.1-23.39,12.79-20.87m0-3c-1.03,0-2.01.53-2.56,1.43l-12.79,20.87c-.76,1.24-.52,2.83.56,3.8l26.1,23.39c.56.5,1.27.77,2,.77.29,0,.58-.04.86-.13l33.2-9.95c1.5-.45,2.4-1.98,2.07-3.51l-5.32-24.51c-.19-.88-.77-1.63-1.57-2.04l-8.54-4.34c-.27-.14-.56-.23-.86-.28l-32.64-5.46c-.17-.03-.33-.04-.5-.04h0Z"/>
      <polygon class="cls-3" points="58.95 31.73 53.42 16.94 60.75 8.48 51.97 10.4 47.21 13.2 47.95 2.18 37.9 2.6 38.96 12.54 26.24 3.85 33.9 16.23 20.45 24.03 29.18 24.87 41.51 22.4 58.95 31.73"/>
      <path class="cls-5" d="m46.48,3l-1.54,12.61,14.01-6.44-8.12,8.12,7,13.6-14.15-9.81-21.57,2.8,14.05-7.14-8.31-11.49,12.68,9.67-1.19-11.07,7.14-.84m0-3c-.12,0-.23,0-.35.02l-7.14.84c-1.63.19-2.81,1.66-2.63,3.3l.44,4.13-7.13-5.44c-.54-.41-1.18-.61-1.82-.61-.76,0-1.52.29-2.1.85-1.06,1.04-1.21,2.7-.34,3.91l6.25,8.64-10.93,5.55c-1.3.66-1.94,2.16-1.51,3.56.39,1.27,1.56,2.11,2.86,2.11.13,0,.26,0,.39-.03l20.43-2.65,13.2,9.16c.52.36,1.11.54,1.71.54.71,0,1.42-.25,1.98-.74,1.04-.91,1.32-2.4.69-3.63l-6-11.65,6.58-6.58c1.03-1.03,1.17-2.64.34-3.84-.58-.83-1.51-1.29-2.46-1.29-.42,0-.85.09-1.25.27l-9.12,4.2.89-7.27c.11-.91-.2-1.83-.85-2.48-.57-.57-1.33-.88-2.13-.88h0Zm0,6h0,0Z"/>
      <polygon class="cls-5" points="25.96 5.91 24.84 9.84 17.93 8.25 0 38.13 32.12 65.87 53.79 60.08 58.95 52.98 35.42 58.75 9.32 35.36 21.29 12.54 32.31 14.49 25.96 5.91"/>
      <path class="cls-5" d="m36.92,3.85l-4.1,3.01s4.45,3.57,4.62,3.54-.53-6.55-.53-6.55Z"/>
    </g>
    <g>
      <polygon class="cls-2" points="88.86 82.44 80.59 89.03 72.1 85.29 71.07 100.33 89.98 111.72 100.67 92.95 89.98 88.65 88.86 82.44"/>
      <polygon class="cls-3" points="108.33 94.98 90.68 90.24 87.97 82.44 80.59 89.03 65.93 77.45 78.45 69.7 87.46 70.16 87.97 65.87 99.55 69.51 96.38 72.5 105.43 77.63 108.33 94.98"/>
      <g>
        <polygon class="cls-5" points="87.97 65.87 83.3 66.33 82.56 69.6 87.46 70.16 87.97 65.87"/>
        <polygon class="cls-5" points="76.49 70.16 69.95 69.04 60.98 80.62 69.29 86.69 67.75 103.5 85.26 113.31 89.98 111.72 71.07 100.33 72.1 85.29 65.47 78.47 76.49 70.16"/>
        <g>
          <path class="cls-5" d="m89.61,67.45l7.28,2.24-3.92,3.55,10.27,4.3,3.92,16.25-15.31-5.04-2.24-8.22-9.15,7.1-12.7-9.15,10.93-7.28,10.18.93.75-4.67m0-3c-.55,0-1.1.15-1.59.45-.74.46-1.24,1.22-1.38,2.07l-.3,1.9-7.39-.68c-.09,0-.18-.01-.27-.01-.59,0-1.17.17-1.66.5l-10.93,7.28c-.82.55-1.32,1.46-1.34,2.44-.02.98.45,1.91,1.25,2.49l12.7,9.15c.52.38,1.14.57,1.75.57.65,0,1.3-.21,1.84-.63l5.6-4.34,1.06,3.88c.26.97,1,1.75,1.96,2.06l15.31,5.04c.31.1.62.15.94.15.74,0,1.47-.28,2.03-.79.8-.74,1.14-1.85.88-2.91l-3.92-16.25c-.22-.93-.88-1.7-1.76-2.06l-5.91-2.47.42-.38c.8-.72,1.15-1.82.92-2.87s-1.02-1.9-2.05-2.22l-7.28-2.24c-.29-.09-.59-.13-.88-.13h0Z"/>
          <polyline class="cls-6" points="101.93 93.79 89.98 111.72 71.49 99.58 72.98 84.45"/>
          <line class="cls-6" x1="77.23" y1="93.51" x2="76.39" y2="96.45"/>
          <line class="cls-6" x1="85.26" y1="91.97" x2="83.96" y2="94.98"/>
          <line class="cls-6" x1="87.46" y1="100.37" x2="86.06" y2="103.31"/>
          <line class="cls-6" x1="94.04" y1="94.98" x2="92.5" y2="98.69"/>
        </g>
      </g>
    </g>
  </g>
</svg>