<?xml version="1.0" encoding="UTF-8"?>
<svg id="Laag_2" data-name="Laag 2" xmlns="http://www.w3.org/2000/svg" viewBox="0 0 117.58 290.67">
  <defs>
    <style>
      .cls-1 {
        fill: #74a56a;
      }

      .cls-1, .cls-2, .cls-3, .cls-4, .cls-5, .cls-6, .cls-7 {
        stroke-width: 0px;
      }

      .cls-2 {
        fill: #4f8348;
      }

      .cls-3 {
        fill: #a42b23;
      }

      .cls-4 {
        fill: #1d1d1b;
      }

      .cls-5 {
        fill: #3f6538;
      }

      .cls-6 {
        fill: #d0cfcf;
      }

      .cls-7 {
        fill: #000c00;
      }
    </style>
  </defs>
  <g id="Laag_1-2" data-name="Laag 1">
    <g>
      <g>
        <polygon class="cls-6" points="4.62 209.61 4.77 179.08 38.19 179.92 38.19 7.34 82.27 7.34 82.27 178.8 113.28 179.17 113.28 206.44 107.3 206.81 91.61 259.11 31.47 259.11 12.88 210.14 4.62 209.61"/>
        <g>
          <path class="cls-4" d="m82.27,7.34v171.45l31,.37v27.27l-5.98.37-15.69,52.3H31.47l-17.18-49.68-8.59-1.49v-28.02h32.5V7.34h44.08m0-3h-44.08c-1.66,0-3,1.34-3,3v169.58H5.7c-1.66,0-3,1.34-3,3v28.02c0,1.46,1.05,2.71,2.49,2.96l6.85,1.19,16.6,48.01c.42,1.21,1.56,2.02,2.84,2.02h60.14c1.32,0,2.49-.87,2.87-2.14l15.09-50.29,3.89-.24c1.58-.1,2.81-1.41,2.81-2.99v-27.27c0-1.64-1.32-2.98-2.96-3l-28.04-.34V7.34c0-1.66-1.34-3-3-3h0Z"/>
          <polygon class="cls-4" points="4.76 181.04 0 186.5 1.26 213.4 11.21 214.52 28.02 264.39 87.41 264.39 91.61 259.11 31.47 259.11 12.88 210.14 4.62 209.61 4.76 181.04"/>
        </g>
      </g>
      <g id="c_blad">
        <polygon class="cls-5" points="13.92 130.2 28.77 132.34 32.04 140 46.79 140 53.33 131.69 61.55 125.34 62.48 119.46 62.02 114.41 57.35 113.76 57.72 96.39 34.47 95.74 33.63 104.89 18.69 106.66 19.81 114.88 10.93 115.53 12.34 129.91 13.92 130.2"/>
        <g>
          <path class="cls-4" d="m35.45,96.39l21.43,1.4v17.37l4.62.42v20.17l-6.86.56-.98,7h-24.51l-1.54-9.81-14.01-.56-1.26-16.95h8.54l-1.4-8.54,15.27-1.4.7-9.67m0-3c-1.56,0-2.88,1.21-2.99,2.78l-.52,7.13-12.73,1.17c-.83.08-1.59.49-2.1,1.15-.51.66-.72,1.5-.59,2.32l.83,5.06h-5.01c-.83,0-1.63.35-2.2.96s-.86,1.43-.79,2.26l1.26,16.95c.11,1.52,1.35,2.71,2.87,2.78l11.55.46,1.16,7.37c.23,1.46,1.49,2.53,2.96,2.53h24.51c1.5,0,2.76-1.1,2.97-2.58l.65-4.63,4.47-.36c1.56-.13,2.76-1.43,2.76-2.99v-20.17c0-1.55-1.18-2.85-2.73-2.99l-1.89-.17v-14.63c0-1.58-1.23-2.89-2.8-2.99l-21.43-1.4c-.07,0-.13,0-.2,0h0Z"/>
          <polygon class="cls-4" points="62.48 122.16 62.48 136.45 55.57 137.48 54.36 144.86 28.21 143.83 26.72 134.49 12.34 133.51 12.34 127.95 30.73 128.42 33.35 135.61 46.14 135.7 47.17 122.16 62.48 122.16"/>
        </g>
      </g>
      <g id="b_blad">
        <polygon class="cls-2" points="108.89 96.15 107.67 70.66 91.7 70.66 88.53 61.55 60.98 61.55 59.39 80.84 52.97 81.58 54.56 93.07 74.71 97.93 77.65 105.68 100.39 106.14 108.89 96.15"/>
        <g>
          <path class="cls-4" d="m88.06,62.81l2.05,9.34,16.44-.19.93,26.71,7.1.19-1.68,15.32c-.93,0-29.51.75-29.51.75v-6.72h-24.47v-11.39l-4.83-2.05v-11.77l7.26-.75.37-19.42h26.33m0-3h-26.33c-1.63,0-2.97,1.31-3,2.94l-.32,16.77-4.62.48c-1.53.16-2.69,1.45-2.69,2.98v11.77c0,1.2.72,2.29,1.83,2.76l3.01,1.28v9.41c0,1.66,1.34,3,3,3h21.47v3.72c0,.81.33,1.58.91,2.15.56.55,1.31.85,2.09.85.03,0,.05,0,.08,0,11.4-.3,28.64-.74,29.43-.75,1.53,0,2.81-1.16,2.98-2.67l1.68-15.32c.09-.83-.17-1.67-.72-2.3-.55-.63-1.34-1-2.18-1.03l-4.28-.11-.84-23.89c-.06-1.62-1.38-2.9-3-2.9-.01,0-.02,0-.03,0l-14,.16-1.53-6.96c-.3-1.38-1.52-2.36-2.93-2.36h0Z"/>
          <polygon class="cls-4" points="116.08 97.37 114.21 115.48 83.02 116.23 81.53 109.69 57.9 108.85 56.96 98.39 53.72 96.15 52.13 95.4 52.6 90.46 82.37 91.95 82.65 97.55 116.08 97.37"/>
        </g>
      </g>
      <g id="b_blad-2" data-name="b_blad">
        <polygon class="cls-2" points="62.29 47.97 58.83 22.66 7.1 30.32 7.94 46.28 2.43 48.43 6.26 64.4 30.82 69.35 48.37 60.67 62.29 47.97"/>
        <g>
          <path class="cls-4" d="m57.81,24.71l3.18,30.26-9.53,2.8.37,15.88-27.83,2.24-.93-8.96-15.69,1.87-3.18-19.8,5.6-1.31-1.68-16.62,49.68-6.35m0-3c-.13,0-.25,0-.38.02L7.74,28.09c-1.61.21-2.77,1.66-2.6,3.28l1.42,14-3.03.71c-1.53.36-2.53,1.84-2.28,3.4l3.18,19.8c.24,1.47,1.51,2.53,2.96,2.53.12,0,.24,0,.36-.02l12.67-1.51.62,5.94c.16,1.54,1.46,2.69,2.98,2.69.08,0,.16,0,.24,0l27.83-2.24c1.59-.13,2.8-1.47,2.76-3.06l-.32-13.58,7.32-2.15c1.39-.41,2.29-1.75,2.14-3.19l-3.18-30.26c-.08-.8-.49-1.54-1.12-2.04-.53-.42-1.19-.65-1.86-.65h0Z"/>
          <polygon class="cls-4" points="60.98 46.28 36.7 51.14 37.54 62.81 29.32 63.75 28.11 57.21 4.67 60.57 6.35 70.28 21.67 68.7 23.63 76.82 53.42 74.39 53.14 58.52 63.13 54.88 60.98 46.28"/>
        </g>
      </g>
      <g id="a_blad">
        <polygon class="cls-1" points="49.73 24.22 48.33 8.53 37.47 8.04 35.51 1.18 14.43 5.03 17.51 20.58 30.19 21.7 30.89 26.88 49.73 24.22"/>
        <g>
          <path class="cls-4" d="m34.88,3l.98,6.58h10.79l1.68,16.11h-8.96v7.7h-13.73l1.4-8.68h-8.12l-2.52-19.33,18.49-2.38m0-3c-.13,0-.26,0-.39.02l-18.49,2.38c-.79.1-1.51.51-1.99,1.14-.49.63-.7,1.43-.6,2.22l2.52,19.33c.19,1.49,1.47,2.61,2.97,2.61h4.6l-.84,5.21c-.14.87.11,1.75.68,2.42.57.67,1.4,1.05,2.28,1.05h13.73c1.66,0,3-1.34,3-3v-4.7h5.96c.85,0,1.66-.36,2.23-.99.57-.63.84-1.47.76-2.32l-1.68-16.11c-.16-1.53-1.45-2.69-2.98-2.69h-8.2l-.6-4.03c-.22-1.49-1.5-2.56-2.96-2.56h0Z"/>
          <polygon class="cls-4" points="17.23 18.2 32.36 18.2 32.36 22.89 49.31 22.19 49.31 27.23 40.48 27.23 40.76 34.52 23.95 34.52 25.07 26.36 17.23 25.55 17.23 18.2"/>
        </g>
      </g>
      <g id="a_blad-2" data-name="a_blad">
        <polygon class="cls-1" points="90.02 176.88 91.54 164.23 83.77 162.9 83.77 152.88 68.99 151.97 68.29 157.65 57.85 157.58 56.17 167.87 70.32 170.18 69.97 178.52 90.02 176.88"/>
        <g>
          <path class="cls-4" d="m70.23,153.49l12.14.84-.47,10.46,8.12.56-1.03,12.42-8.78.19-1.12,4.95h-13.91l-.47-12.33-7.56-1.77,2.15-9.53h10.37l.56-5.79m0-3c-1.53,0-2.83,1.16-2.98,2.71l-.3,3.08h-7.64c-1.4,0-2.62.97-2.93,2.34l-2.15,9.53c-.36,1.61.64,3.2,2.24,3.58l5.34,1.25.38,10.04c.06,1.61,1.39,2.89,3,2.89h13.91c1.4,0,2.62-.97,2.93-2.34l.6-2.66,6.43-.14c1.54-.03,2.8-1.22,2.93-2.75l1.03-12.42c.07-.8-.19-1.59-.71-2.2-.52-.61-1.27-.98-2.07-1.04l-5.2-.36.34-7.53c.07-1.63-1.17-3.01-2.79-3.13l-12.14-.84c-.07,0-.14,0-.21,0h0Z"/>
          <polygon class="cls-4" points="56.17 165.77 72.84 166.75 72.14 173.61 90.77 174.46 89.09 179.92 81.81 179.92 79.84 184.12 64.02 184.12 62.89 172.35 54.77 169.97 56.17 165.77"/>
        </g>
      </g>
      <polygon class="cls-4" points="7.38 290.49 4.62 281.61 114.86 281.61 110.66 290.67 7.38 290.49"/>
    </g>
  </g>
  <g id="Landingspagina_" data-name="Landingspagina\">
    <g>
      <polygon class="cls-3" points="37.75 68.65 22.73 65.49 12.6 83.32 32.68 100.98 56.72 91.54 54.05 73.01 40.57 68.65 37.75 68.65"/>
      <path class="cls-7" d="m23.32,66.89l23.44,3.92,6.14,3.12,3.82,17.61-23.85,7.14-18.75-16.8,9.19-14.99m0-3c-1.03,0-2.01.53-2.56,1.43l-9.19,14.99c-.76,1.24-.52,2.83.56,3.8l18.75,16.8c.56.5,1.27.77,2,.77.29,0,.58-.04.86-.13l23.85-7.14c1.5-.45,2.4-1.98,2.07-3.51l-3.82-17.61c-.19-.88-.77-1.63-1.57-2.04l-6.14-3.12c-.27-.14-.56-.23-.86-.28l-23.44-3.92c-.17-.03-.33-.04-.5-.04h0Z"/>
      <polygon class="cls-5" points="49.78 79.28 45.8 68.65 51.07 62.58 44.76 63.95 41.34 65.96 41.88 58.05 34.66 58.35 35.42 65.49 26.28 59.25 31.78 68.14 22.13 73.74 28.4 74.35 37.25 72.57 49.78 79.28"/>
      <path class="cls-7" d="m40.82,58.64l-1.11,9.06,10.06-4.63-5.84,5.84,5.03,9.77-10.16-7.05-15.49,2.01,10.09-5.13-5.97-8.25,9.11,6.94-.86-7.95,5.13-.6m0-3c-.12,0-.23,0-.35.02l-5.13.6c-1.63.19-2.81,1.66-2.63,3.3l.11,1.01-3.56-2.71c-.54-.41-1.18-.61-1.82-.61-.76,0-1.52.29-2.1.85-1.07,1.04-1.21,2.7-.34,3.91l3.91,5.41-6.97,3.54c-1.3.66-1.94,2.16-1.51,3.56.39,1.27,1.56,2.11,2.86,2.11.13,0,.26,0,.39-.03l14.35-1.86,9.21,6.39c.52.36,1.11.54,1.71.54.71,0,1.42-.25,1.98-.74,1.04-.91,1.32-2.4.69-3.63l-4.03-7.82,4.29-4.29c1.03-1.03,1.17-2.64.34-3.84-.58-.83-1.51-1.29-2.46-1.29-.42,0-.85.09-1.25.27l-5.18,2.38.45-3.72c.11-.91-.2-1.83-.85-2.48-.57-.57-1.33-.88-2.13-.88h0Zm0,6h0,0Z"/>
      <polygon class="cls-7" points="26.08 60.73 25.28 63.55 20.31 62.41 7.44 83.87 30.51 103.79 46.07 99.64 49.78 94.54 32.87 98.68 14.13 81.88 22.73 65.49 30.64 66.89 26.08 60.73"/>
      <path class="cls-7" d="m33.96,59.25l-2.94,2.16s3.19,2.57,3.32,2.54-.38-4.7-.38-4.7Z"/>
    </g>
    <g>
      <polygon class="cls-3" points="83.96 111.09 68.94 107.93 58.81 125.75 78.89 143.41 102.93 133.97 100.26 115.44 86.78 111.09 83.96 111.09"/>
      <path class="cls-7" d="m69.53,109.32l23.44,3.92,6.14,3.12,3.82,17.61-23.85,7.14-18.75-16.8,9.19-14.99m0-3c-1.03,0-2.01.53-2.56,1.43l-9.19,14.99c-.76,1.24-.52,2.83.56,3.8l18.75,16.8c.56.5,1.27.77,2,.77.29,0,.58-.04.86-.13l23.85-7.14c1.5-.45,2.4-1.98,2.07-3.51l-3.82-17.61c-.19-.88-.77-1.63-1.57-2.04l-6.14-3.12c-.27-.14-.56-.23-.86-.28l-23.44-3.92c-.17-.03-.33-.04-.5-.04h0Z"/>
      <polygon class="cls-5" points="95.99 121.71 92.01 111.09 97.28 105.01 90.97 106.38 87.55 108.4 88.09 100.48 80.87 100.78 81.63 107.93 72.49 101.68 77.99 110.58 68.33 116.18 74.61 116.78 83.46 115 95.99 121.71"/>
      <path class="cls-7" d="m87.03,101.07l-1.11,9.06,10.06-4.63-5.84,5.84,5.03,9.77-10.16-7.05-15.49,2.01,10.09-5.13-5.97-8.25,9.11,6.94-.86-7.95,5.13-.6m0-3c-.12,0-.23,0-.35.02l-5.13.6c-1.63.19-2.81,1.66-2.63,3.3l.11,1.01-3.56-2.71c-.54-.41-1.18-.61-1.82-.61-.76,0-1.52.29-2.1.85-1.07,1.04-1.21,2.7-.34,3.91l3.91,5.41-6.97,3.54c-1.3.66-1.94,2.16-1.51,3.56.39,1.27,1.56,2.11,2.86,2.11.13,0,.26,0,.39-.03l14.35-1.86,9.21,6.39c.52.36,1.11.54,1.71.54.71,0,1.42-.25,1.98-.74,1.04-.91,1.32-2.4.69-3.63l-4.03-7.82,4.29-4.29c1.03-1.03,1.17-2.64.34-3.84-.58-.83-1.51-1.29-2.46-1.29-.42,0-.85.09-1.25.27l-5.18,2.38.45-3.72c.11-.91-.2-1.83-.85-2.48-.57-.57-1.33-.88-2.13-.88h0Zm0,6h0,0Z"/>
      <polygon class="cls-7" points="72.29 103.16 71.49 105.98 66.52 104.84 53.65 126.31 76.72 146.23 92.28 142.07 95.99 136.97 79.08 141.12 60.34 124.31 68.94 107.93 76.85 109.32 72.29 103.16"/>
      <path class="cls-7" d="m80.17,101.68l-2.94,2.16s3.19,2.57,3.32,2.54-.38-4.7-.38-4.7Z"/>
    </g>
    <g>
      <polygon class="cls-3" points="37.75 147.85 22.73 144.69 12.6 162.52 32.68 180.17 56.72 170.74 54.05 152.2 40.57 147.85 37.75 147.85"/>
      <path class="cls-7" d="m23.32,146.09l23.44,3.92,6.14,3.12,3.82,17.61-23.85,7.14-18.75-16.8,9.19-14.99m0-3c-1.03,0-2.01.53-2.56,1.43l-9.19,14.99c-.76,1.24-.52,2.83.56,3.8l18.75,16.8c.56.5,1.27.77,2,.77.29,0,.58-.04.86-.13l23.85-7.14c1.5-.45,2.4-1.98,2.07-3.51l-3.82-17.61c-.19-.88-.77-1.63-1.57-2.04l-6.14-3.12c-.27-.14-.56-.23-.86-.28l-23.44-3.92c-.17-.03-.33-.04-.5-.04h0Z"/>
      <polygon class="cls-5" points="49.78 158.47 45.8 147.85 51.07 141.77 44.76 143.15 41.34 145.16 41.88 137.24 34.66 137.55 35.42 144.69 26.28 138.44 31.78 147.34 22.13 152.94 28.4 153.54 37.25 151.77 49.78 158.47"/>
      <path class="cls-7" d="m40.82,137.83l-1.11,9.06,10.06-4.63-5.84,5.84,5.03,9.77-10.16-7.05-15.49,2.01,10.09-5.13-5.97-8.25,9.11,6.94-.86-7.95,5.13-.6m0-3c-.12,0-.23,0-.35.02l-5.13.6c-1.63.19-2.81,1.66-2.63,3.3l.11,1.01-3.56-2.71c-.54-.41-1.18-.61-1.82-.61-.76,0-1.52.29-2.1.85-1.07,1.04-1.21,2.7-.34,3.91l3.91,5.41-6.97,3.54c-1.3.66-1.94,2.16-1.51,3.56.39,1.27,1.56,2.11,2.86,2.11.13,0,.26,0,.39-.03l14.35-1.86,9.21,6.39c.52.36,1.11.54,1.71.54.71,0,1.42-.25,1.98-.74,1.04-.91,1.32-2.4.69-3.63l-4.03-7.82,4.29-4.29c1.03-1.03,1.17-2.64.34-3.84-.58-.83-1.51-1.29-2.46-1.29-.42,0-.85.09-1.25.27l-5.18,2.38.45-3.72c.11-.91-.2-1.83-.85-2.48-.57-.57-1.33-.88-2.13-.88h0Zm0,6h0,0Z"/>
      <polygon class="cls-7" points="26.08 139.93 25.28 142.75 20.31 141.6 7.44 163.07 30.51 182.99 46.07 178.83 49.78 173.73 32.87 177.88 14.13 161.08 22.73 144.69 30.64 146.09 26.08 139.93"/>
      <path class="cls-7" d="m33.96,138.44l-2.94,2.16s3.19,2.57,3.32,2.54-.38-4.7-.38-4.7Z"/>
    </g>
    <g>
      <polygon class="cls-3" points="79.96 22.25 64.94 19.09 54.81 36.92 74.89 54.57 98.93 45.14 96.26 26.6 82.78 22.25 79.96 22.25"/>
      <path class="cls-7" d="m65.53,20.49l23.44,3.92,6.14,3.12,3.82,17.61-23.85,7.14-18.75-16.8,9.19-14.99m0-3c-1.03,0-2.01.53-2.56,1.43l-9.19,14.99c-.76,1.24-.52,2.83.56,3.8l18.75,16.8c.56.5,1.27.77,2,.77.29,0,.58-.04.86-.13l23.85-7.14c1.5-.45,2.4-1.98,2.07-3.51l-3.82-17.61c-.19-.88-.77-1.63-1.57-2.04l-6.14-3.12c-.27-.14-.56-.23-.86-.28l-23.44-3.92c-.17-.03-.33-.04-.5-.04h0Z"/>
      <polygon class="cls-5" points="91.99 32.87 88.01 22.25 93.28 16.17 86.97 17.55 83.55 19.56 84.09 11.65 76.87 11.95 77.63 19.09 68.49 12.84 73.99 21.74 64.34 27.34 70.61 27.94 79.46 26.17 91.99 32.87"/>
      <path class="cls-7" d="m83.03,12.24l-1.11,9.06,10.06-4.63-5.84,5.84,5.03,9.77-10.16-7.05-15.49,2.01,10.09-5.13-5.97-8.25,9.11,6.94-.86-7.95,5.13-.6m0-3c-.12,0-.23,0-.35.02l-5.13.6c-1.63.19-2.81,1.66-2.63,3.3l.11,1.01-3.56-2.71c-.54-.41-1.18-.61-1.82-.61-.76,0-1.52.29-2.1.85-1.07,1.04-1.21,2.7-.34,3.91l3.91,5.41-6.97,3.54c-1.3.66-1.94,2.16-1.51,3.56.39,1.27,1.56,2.11,2.86,2.11.13,0,.26,0,.39-.03l14.35-1.86,9.21,6.39c.52.36,1.11.54,1.71.54.71,0,1.42-.25,1.98-.74,1.04-.91,1.32-2.4.69-3.63l-4.03-7.82,4.29-4.29c1.03-1.03,1.17-2.64.34-3.84-.58-.83-1.51-1.29-2.46-1.29-.42,0-.85.09-1.25.27l-5.18,2.38.45-3.72c.11-.91-.2-1.83-.85-2.48-.57-.57-1.33-.88-2.13-.88h0Zm0,6h0,0Z"/>
      <polygon class="cls-7" points="68.29 14.33 67.49 17.15 62.52 16 49.65 37.47 72.72 57.39 88.28 53.23 91.99 48.13 75.08 52.28 56.34 35.48 64.94 19.09 72.85 20.49 68.29 14.33"/>
      <path class="cls-7" d="m76.17,12.84l-2.94,2.16s3.19,2.57,3.32,2.54-.38-4.7-.38-4.7Z"/>
    </g>
  </g>
</svg>