<?xml version="1.0" encoding="UTF-8"?>
<svg id="Laag_2" data-name="Laag 2" xmlns="http://www.w3.org/2000/svg" viewBox="0 0 48.39 165.53">
  <defs>
    <style>
      .cls-1 {
        fill: #4f8348;
      }

      .cls-1, .cls-2, .cls-3 {
        stroke-width: 0px;
      }

      .cls-2 {
        fill: #3f6538;
      }

      .cls-3 {
        fill: #000c00;
      }

      .cls-4 {
        fill: none;
        stroke: #000c00;
        stroke-linecap: round;
        stroke-linejoin: round;
        stroke-width: 3px;
      }
    </style>
  </defs>
  <g id="Landingspagina_" data-name="Landingspagina\">
    <g>
      <polygon class="cls-1" points="35.58 152.64 18.35 159.74 4.02 144.43 16.95 14.62 32.03 8.08 47.16 22.37 35.58 152.64"/>
      <polygon class="cls-2" points="36.07 11.24 29.35 7.31 31.45 1.5 34.95 2.9 36.07 11.24"/>
      <g>
        <g>
          <path class="cls-3" d="m31.66,10.04l13.73,11.77-11.49,129.43-15.13,6.44-11.21-11.77L20.17,16.49l11.49-6.44m0-3c-.5,0-1.01.13-1.47.38l-11.49,6.44c-.86.48-1.42,1.35-1.52,2.33L4.58,145.63c-.08.87.21,1.73.81,2.36l11.21,11.77c.58.61,1.37.93,2.17.93.4,0,.8-.08,1.17-.24l15.13-6.44c1.02-.43,1.71-1.39,1.81-2.49L48.37,22.08c.09-.97-.3-1.91-1.04-2.54l-13.73-11.77c-.56-.48-1.25-.72-1.95-.72h0Z"/>
          <line class="cls-4" x1="24.93" y1="22.37" x2="11.77" y2="141.72"/>
          <line class="cls-4" x1="38.66" y1="26.29" x2="35.58" y2="61.87"/>
          <line class="cls-4" x1="34.18" y1="77" x2="28.2" y2="144.43"/>
          <polyline class="cls-4" points="28.86 9.2 30.54 1.5 34.18 2.06 37.12 12.19"/>
        </g>
        <polygon class="cls-3" points="30.54 1.5 24.93 2.95 23.25 6.85 13.37 13.72 0 150.68 18.35 165.53 31.19 160.21 33.9 151.24 18.77 157.69 7.56 145.92 20.17 16.49 29.68 9.61 30.54 1.5"/>
      </g>
    </g>
  </g>
</svg>