<?xml version="1.0" encoding="UTF-8"?>
<svg id="Laag_2" data-name="Laag 2" xmlns="http://www.w3.org/2000/svg" viewBox="0 0 179.35 80.16">
  <defs>
    <style>
      .cls-1 {
        stroke: #1d1d1b;
        stroke-linecap: round;
        stroke-linejoin: round;
        stroke-width: 2px;
      }

      .cls-1, .cls-2 {
        fill: #fff;
      }

      .cls-3 {
        fill: #1d1d1b;
      }

      .cls-3, .cls-2 {
        stroke-width: 0px;
      }
    </style>
  </defs>
  <g id="Landingspagina_" data-name="Landingspagina\">
    <g>
      <g>
        <g>
          <g>
            <g>
              <path class="cls-2" d="m4.97,42.08c-.25,0-.49-.09-.67-.26-.21-.19-.33-.45-.33-.73L3.48,2.71c0-.54.41-.98.95-1.01,0,0,13.56-.7,13.57-.7.27,0,.54.11.73.31.2.21.3.5.27.79l-1.9,17.81s10.43-.59,10.45-.59c.27,0,.53.11.72.3.2.21.3.5.28.79l-1.7,18.88c-.04.48-.42.86-.91.91l-20.88,1.87s-.06,0-.09,0Z"/>
              <path class="cls-3" d="m18,2h0m0,0l-2.03,18.98,11.57-.65-1.7,18.88-20.88,1.87-.49-38.38,13.52-.7m0-2h-.02s-.07,0-.1,0L4.38.7c-1.07.06-1.91.95-1.9,2.02l.49,38.38c0,.56.25,1.09.66,1.46.37.33.85.52,1.34.52.06,0,.12,0,.18,0l20.88-1.87c.96-.09,1.73-.85,1.81-1.81l1.7-18.88c.05-.58-.15-1.15-.55-1.57-.38-.39-.9-.61-1.44-.61-.04,0-.08,0-.11,0l-9.22.52,1.77-16.53c.02-.1.02-.21.02-.32,0-1.1-.89-2-2-2h0Zm0,4h0,0Z"/>
            </g>
            <g>
              <g>
                <path class="cls-2" d="m33.93,39.44c-.25,0-.49-.09-.68-.27-.2-.19-.32-.46-.32-.73V15.67c0-.53.41-.96.93-1,0,0,16.99-1.16,17.01-1.16.25,0,.49.09.67.26.2.18.32.44.33.71l.67,22.6c.02.53-.39.99-.92,1.03,0,0-17.67,1.33-17.69,1.33Z"/>
                <path class="cls-3" d="m50.87,14.51l.67,22.6-17.62,1.32V15.67l16.94-1.16m0-2s-.09,0-.14,0l-16.94,1.16c-1.05.07-1.86.94-1.86,2v22.77c0,.56.23,1.09.64,1.47.37.34.86.53,1.36.53.05,0,.1,0,.15,0l17.62-1.32c1.07-.08,1.88-.99,1.85-2.05l-.67-22.6c-.02-.54-.25-1.06-.66-1.42-.37-.33-.85-.52-1.34-.52h0Z"/>
              </g>
              <line class="cls-1" x1="51.55" y1="27.77" x2="41.66" y2="27.38"/>
              <line class="cls-1" x1="47.99" y1="20.33" x2="42.19" y2="20.33"/>
            </g>
            <g>
              <path class="cls-2" d="m63.59,40.3c-.54,0-.98-.42-1-.96l-.54-13.17-3.94-.59c-.53-.08-.91-.56-.85-1.1l.73-6.61c.05-.48.44-.85.92-.89l3.84-.29.27-6.1c.01-.27.14-.53.34-.71.18-.16.42-.25.66-.25.03,0,.06,0,.09,0l7.92.72c.51.05.91.48.91,1v5.33l3.04.02c.27,0,.53.11.72.31.19.2.29.46.27.73l-.34,7.43c-.02.46-.36.85-.81.94l-3.36.64-.7,12.6c-.03.53-.47.94-1,.94h-7.18Z"/>
              <path class="cls-3" d="m64.03,10.65l7.92.72v6.32l4.03.02-.34,7.43-4.12.78-.75,13.38h-7.18l-.57-13.99-4.76-.71.73-6.61,4.73-.36.31-6.98m0-2c-.48,0-.95.17-1.32.49-.41.36-.66.87-.68,1.42l-.23,5.21-2.96.23c-.96.07-1.73.82-1.84,1.78l-.73,6.61c-.12,1.07.63,2.04,1.69,2.2l3.13.47.51,12.34c.04,1.07.93,1.92,2,1.92h7.18c1.06,0,1.94-.83,2-1.89l.66-11.81,2.59-.49c.91-.17,1.58-.95,1.62-1.87l.34-7.43c.02-.54-.17-1.07-.55-1.47-.37-.39-.89-.62-1.44-.62h-2.05v-4.35c0-1.03-.79-1.9-1.82-1.99l-7.92-.72c-.06,0-.12,0-.18,0h0Z"/>
            </g>
            <g>
              <path class="cls-2" d="m95.21,39.13l-8.33-.67c-.51-.04-.91-.46-.92-.97l-.36-12.55-3.17-.21c-.53-.03-.94-.47-.94-1v-7.49c0-.5.37-.92.86-.99l3.28-.47.77-6.11c.06-.49.47-.86.97-.88,0,0,7.22-.19,7.23-.19.26,0,.52.1.71.29.19.19.3.46.29.73l-.14,5.56,3.68.46c.5.06.88.49.88.99v7.65c0,.48-.34.89-.82.98l-2.9.54v13.31c0,.28-.12.55-.32.74-.18.17-.43.26-.68.26-.03,0-.05,0-.08,0Z"/>
              <path class="cls-3" d="m94.6,8.61h0m0,0l-.16,6.46,4.57.57v7.65l-3.72.7v14.14l-8.33-.67-.38-13.46-4.08-.26v-7.49l4.03-.58.86-6.86,7.2-.19m0-2s-.02,0-.03,0h0s-.02,0-.03,0l-7.19.19c-.99.03-1.81.77-1.93,1.75l-.67,5.35-2.52.36c-.98.14-1.72.98-1.72,1.98v7.49c0,1.05.82,1.93,1.87,2l2.26.15.33,11.64c.03,1.02.82,1.85,1.84,1.94l8.33.67c.05,0,.11,0,.16,0,.5,0,.99-.19,1.36-.53.41-.38.64-.91.64-1.47v-12.48l2.09-.39c.95-.18,1.63-1,1.63-1.97v-7.65c0-1.01-.75-1.86-1.75-1.98l-2.78-.35.11-4.55s0-.1,0-.15c0-1.1-.89-2-2-2h0Zm0,4h0,0Z"/>
            </g>
            <g>
              <g>
                <path class="cls-2" d="m105.53,37.08c-.53-.03-.95-.46-.95-1V10.35c0-.27.11-.53.31-.72.19-.18.43-.28.69-.28.01,0,20.03.82,20.03.82.53.02.95.45.96.98l.61,25.87c0,.28-.1.54-.3.74-.19.18-.44.29-.7.29-.02,0-20.64-.96-20.64-.96Z"/>
                <path class="cls-3" d="m105.58,10.35l19.99.82.61,25.87-20.59-.96V10.35m0-2c-.52,0-1.01.2-1.39.56-.39.38-.61.9-.61,1.44v25.73c0,1.07.84,1.95,1.91,2l20.59.96s.06,0,.09,0c.52,0,1.02-.2,1.4-.57.4-.39.61-.92.6-1.48l-.61-25.87c-.02-1.05-.86-1.91-1.92-1.95l-19.99-.82s-.05,0-.08,0h0Z"/>
              </g>
              <line class="cls-1" x1="115.87" y1="10.35" x2="115.9" y2="24.65"/>
            </g>
            <g>
              <g>
                <path class="cls-2" d="m133.8,38.04c-.26,0-.5-.1-.69-.28-.19-.18-.3-.44-.31-.7l-.38-21.22c0-.27.1-.53.29-.72.19-.19.44-.3.71-.3,0,0,18.79-.09,18.79-.09.27,0,.53.11.72.31.19.2.29.46.28.74l-.93,20.83c-.02.52-.45.94-.97.96,0,0-17.49.48-17.5.48Z"/>
                <path class="cls-3" d="m152.2,15.73h0m0,0l-.93,20.83-17.47.48-.38-21.22,18.79-.09m0-2h-.02l-18.78.09c-.53,0-1.05.22-1.42.6-.37.38-.58.9-.57,1.43l.38,21.22c0,.53.23,1.04.62,1.41.37.36.87.55,1.38.55.02,0,.04,0,.05,0l17.47-.48c1.05-.03,1.9-.86,1.94-1.91l.93-20.73c0-.06,0-.13,0-.19,0-1.1-.89-2-2-2h0Zm0,4h0,0Z"/>
              </g>
              <line class="cls-1" x1="152.2" y1="25.84" x2="142.25" y2="25.9"/>
            </g>
            <g>
              <g>
                <path class="cls-2" d="m158.68,38.66c-.26,0-.5-.1-.69-.28-.2-.19-.32-.47-.31-.75l.58-23.76c.01-.52.42-.94.93-.97,0,0,18.14-1.25,18.16-1.25.25,0,.5.1.69.27.2.19.32.46.31.74l-.38,23.76c0,.52-.41.95-.93.98,0,0-18.33,1.25-18.36,1.25Z"/>
                <path class="cls-3" d="m177.35,12.65h0m0,0l-.38,23.76-18.29,1.25.58-23.76,18.1-1.25m0-2s-.02,0-.03,0h0s-.09,0-.13,0l-18.08,1.25c-1.03.07-1.84.91-1.86,1.95l-.58,23.76c-.01.56.21,1.1.62,1.49.37.36.87.56,1.38.56.05,0,.09,0,.14,0l18.29-1.25c1.04-.07,1.85-.92,1.86-1.96l.38-23.66s0-.09,0-.13c0-1.1-.89-2-2-2h0Zm0,4h0,0Z"/>
              </g>
              <line class="cls-1" x1="177.35" y1="26.38" x2="166.26" y2="25.9"/>
              <line class="cls-1" x1="173.32" y1="18.56" x2="167.51" y2="18.56"/>
            </g>
          </g>
          <polygon class="cls-3" points="3.22 3.07 0 4.61 .98 45.59 24.65 42.86 24.65 40.33 3.78 42.02 3.22 3.07"/>
          <polygon class="cls-3" points="32.92 17.5 32.92 39.3 51.47 38.13 50.15 41.08 31.1 41.74 31.1 20.33 32.92 17.5"/>
          <polygon class="cls-3" points="62.89 11.06 60.37 12.46 60.37 16.85 62.89 16.85 62.89 11.06"/>
          <polygon class="cls-3" points="57.49 18.34 55.14 20.33 55.52 27.77 60.37 28.61 61.06 42.36 69.55 42.36 71.69 40.41 62.89 40.19 62.15 26.48 57.01 24.97 57.49 18.34"/>
          <polygon class="cls-3" points="86.08 8.61 83.28 10.65 83.28 15.05 86.08 14.51 86.08 8.61"/>
          <polygon class="cls-3" points="81.53 16.52 79.07 18.34 79.42 26.48 83.63 27.38 83.63 40.47 93.29 41.18 95.25 39.3 86.08 38.13 85.47 24.97 81.46 24.37 81.53 16.52"/>
          <polygon class="cls-3" points="104.64 9.87 101.7 12.32 102.26 39.98 124.52 40.54 126.17 38.13 104.99 37.04 104.64 9.87"/>
          <polygon class="cls-3" points="132.3 16.52 129.78 17.99 131.04 40.54 149.81 40.54 151.77 37.66 133.14 38.13 132.3 16.52"/>
          <polygon class="cls-3" points="158.36 13.72 155.91 15.73 155.91 40.54 174.47 40.54 176.43 37.66 158.68 38.72 157.8 37.66 158.36 13.72"/>
        </g>
        <g>
          <g>
            <g>
              <g>
                <path class="cls-2" d="m43.48,76.76c-.53-.03-.94-.47-.95-1l-.1-28.3c0-.54.42-.98.96-1,0,0,15.92-.72,15.93-.72.26,0,.5.1.69.27.2.19.31.45.31.72l.19,29.88c0,.28-.11.54-.31.73-.19.18-.43.28-.69.28-.02,0-16.04-.87-16.04-.87Z"/>
                <path class="cls-3" d="m59.32,46.74l.19,29.88-15.98-.86-.1-28.3,15.89-.72m0-2s-.06,0-.09,0l-15.89.72c-1.07.05-1.91.93-1.91,2l.1,28.3c0,1.06.83,1.93,1.89,1.99l15.98.86s.07,0,.11,0c.51,0,1.01-.2,1.38-.55.4-.38.62-.91.62-1.46l-.19-29.88c0-.54-.23-1.06-.62-1.44-.37-.35-.87-.55-1.38-.55h0Z"/>
              </g>
              <line class="cls-1" x1="42.79" y1="64.29" x2="53.49" y2="64.86"/>
              <line class="cls-1" x1="50.68" y1="52.24" x2="50.61" y2="59.82"/>
            </g>
            <g>
              <path class="cls-2" d="m66.6,73.66c-.26,0-.51-.1-.69-.28-.21-.2-.32-.48-.31-.77l1.3-25.58c.03-.53.46-.95.99-.95,0,0,12.92-.1,12.92-.1.27,0,.52.11.71.29.19.19.29.45.29.72l-.1,7.39c0,.49-.37.91-.86.98l-3.89.54.86,15.79c.03.54-.37,1-.91,1.05l-10.22.91s-.06,0-.09,0Z"/>
              <path class="cls-3" d="m80.81,46.98l-.1,7.39-4.8.67.91,16.7-10.22.91,1.3-25.58,12.91-.1m0-2h-.01l-12.91.1c-1.06,0-1.93.84-1.98,1.9l-1.3,25.58c-.03.58.19,1.14.61,1.54.37.36.87.56,1.39.56.06,0,.12,0,.18,0l10.22-.91c1.07-.1,1.88-1.03,1.82-2.1l-.81-14.87,2.98-.42c.98-.14,1.71-.97,1.72-1.95l.1-7.39c0-.54-.2-1.06-.58-1.44-.38-.38-.89-.59-1.42-.59h0Zm0,4h0,0Z"/>
            </g>
            <g>
              <g>
                <path class="cls-2" d="m87.49,75.15c-.26,0-.5-.1-.69-.28-.2-.19-.31-.45-.31-.73l.1-26.35c0-.55.45-.99,1-1,0,0,20.36-.1,20.36-.1.27,0,.52.11.71.3.19.19.29.45.29.72l-.48,25.44c0,.53-.42.95-.95.98,0,0-20,1.01-20.02,1.01Z"/>
                <path class="cls-3" d="m107.94,47.7l-.48,25.44-19.97,1.01.1-26.35,20.35-.1m0-2h0l-20.35.1c-1.1,0-1.99.89-1.99,1.99l-.1,26.35c0,.55.22,1.08.62,1.45.37.36.87.55,1.38.55.03,0,.07,0,.1,0l19.97-1.01c1.05-.05,1.88-.91,1.9-1.96l.48-25.44c.01-.54-.2-1.06-.58-1.44-.38-.38-.89-.6-1.42-.6h0Zm0,4h0,0Z"/>
              </g>
              <line class="cls-1" x1="96.85" y1="53.42" x2="96.7" y2="62.25"/>
            </g>
            <g>
              <g>
                <path class="cls-2" d="m115.19,73.97c-.54,0-.97-.45-.98-.99l-.35-26.03c0-.27.1-.53.29-.72.19-.19.44-.3.71-.3,0,0,23.36.1,23.36.1.27,0,.53.11.71.3s.29.45.28.72l-.7,26.34c-.01.54-.46.97-1,.97,0,0-22.33-.42-22.33-.42Z"/>
                <path class="cls-3" d="m114.86,46.94l23.36.1-.7,26.34-22.31-.42-.35-26.03m0-2c-.53,0-1.04.21-1.42.59-.38.38-.59.9-.58,1.43l.35,26.03c.01,1.08.88,1.95,1.96,1.97l22.31.42s.03,0,.04,0c1.08,0,1.97-.86,2-1.95l.7-26.34c.01-.54-.19-1.06-.56-1.45-.37-.39-.89-.61-1.43-.61l-23.36-.1h0Z"/>
              </g>
              <line class="cls-1" x1="122.4" y1="46.26" x2="122.2" y2="61.35"/>
              <line class="cls-1" x1="130.39" y1="46.26" x2="130.39" y2="60.49"/>
            </g>
          </g>
          <polygon class="cls-3" points="42.22 47.7 39.14 49.81 39.79 79.51 57.16 80.16 58.94 77.74 42.41 76.62 42.22 47.7"/>
          <polygon class="cls-3" points="66.6 46.98 63.7 49.25 63.23 76.62 75.09 75.59 76.21 72.66 65.44 73.72 66.6 46.98"/>
          <polygon class="cls-3" points="86.58 48.23 83.87 51.12 83.87 77.92 105.82 77.08 107.6 74.15 86.67 74.84 86.58 48.23"/>
          <polygon class="cls-3" points="113.75 47.7 110.95 49.25 112.35 76.62 134.02 77.36 137.01 74.15 115.21 72.97 113.75 47.7"/>
        </g>
      </g>
      <g>
        <g>
          <g>
            <g>
              <path class="cls-2" d="m14.09,68.94c-.28,0-.55-.12-.74-.33-.25-.27-.33-.66-.21-1l3.94-11.29c.14-.4.52-.67.94-.67,0,0,9.19.08,9.19.08.31,0,.6.15.79.4.19.25.25.57.17.87l-2.31,8.54c-.09.35-.37.62-.73.71l-10.81,2.67c-.08.02-.16.03-.24.03Z"/>
              <path class="cls-3" d="m18.03,56.66l9.18.08-2.31,8.54-10.81,2.67,3.94-11.29m0-2c-.85,0-1.61.54-1.89,1.34l-3.94,11.29c-.24.69-.08,1.46.41,2.01.38.42.92.65,1.48.65.16,0,.32-.02.48-.06l10.81-2.67c.71-.17,1.26-.72,1.45-1.42l2.31-8.54c.16-.6.04-1.24-.34-1.73-.37-.49-.96-.79-1.58-.79l-9.18-.08h-.02Z"/>
            </g>
            <line class="cls-1" x1="27.21" y1="56.74" x2="20.72" y2="61.93"/>
          </g>
          <polygon class="cls-3" points="18.03 56.66 13.02 59.82 9.24 72.13 23.25 69.75 24.9 65.28 14.09 67.94 18.03 56.66"/>
        </g>
        <g>
          <g>
            <g>
              <path class="cls-2" d="m168.12,68.94c-.08,0-.16,0-.24-.03l-10.81-2.67c-.35-.09-.63-.36-.73-.71l-2.31-8.54c-.08-.3-.02-.62.17-.87.19-.25.48-.39.79-.4,0,0,9.18-.08,9.19-.08.42,0,.8.27.94.67l3.94,11.29c.12.35.04.73-.21,1-.19.21-.46.33-.74.33Z"/>
              <path class="cls-3" d="m164.18,56.66l3.94,11.29-10.81-2.67-2.31-8.54,9.18-.08m0-2h-.02l-9.18.08c-.62,0-1.2.3-1.58.79s-.5,1.13-.34,1.73l2.31,8.54c.19.7.75,1.25,1.45,1.42l10.81,2.67c.16.04.32.06.48.06.56,0,1.1-.23,1.48-.65.49-.54.65-1.31.41-2.01l-3.94-11.29c-.28-.8-1.04-1.34-1.89-1.34h0Z"/>
            </g>
            <line class="cls-1" x1="155" y1="56.74" x2="161.48" y2="61.93"/>
          </g>
          <polygon class="cls-3" points="153.8 56.74 151.98 60.49 154.36 68.91 166.96 71.15 168.12 69.19 157.31 65.28 153.8 56.74"/>
        </g>
      </g>
    </g>
  </g>
</svg>