<?xml version="1.0" encoding="UTF-8"?>
<svg id="Laag_2" data-name="Laag 2" xmlns="http://www.w3.org/2000/svg" viewBox="0 0 116.4 290.67">
  <defs>
    <style>
      .cls-1 {
        fill: #74a56a;
      }

      .cls-1, .cls-2, .cls-3, .cls-4, .cls-5 {
        stroke-width: 0px;
      }

      .cls-2 {
        fill: #4f8348;
      }

      .cls-3 {
        fill: #1d1d1b;
      }

      .cls-4 {
        fill: #3f6538;
      }

      .cls-5 {
        fill: #d0cfcf;
      }
    </style>
  </defs>
  <g id="Laag_1-2" data-name="Laag 1">
    <g>
      <g>
        <polygon class="cls-5" points="4.62 209.61 4.77 179.08 38.19 179.92 38.19 7.34 82.27 7.34 82.27 178.8 113.28 179.17 113.28 206.44 107.3 206.81 91.61 259.11 31.47 259.11 12.88 210.14 4.62 209.61"/>
        <g>
          <path class="cls-3" d="m82.27,7.34v171.45l31,.37v27.27l-5.98.37-15.69,52.3H31.47l-17.18-49.68-8.59-1.49v-28.02h32.5V7.34h44.08m0-3h-44.08c-1.66,0-3,1.34-3,3v169.58H5.7c-1.66,0-3,1.34-3,3v28.02c0,1.46,1.05,2.71,2.49,2.96l6.85,1.19,16.6,48.01c.42,1.21,1.56,2.02,2.84,2.02h60.14c1.32,0,2.49-.87,2.87-2.14l15.09-50.29,3.89-.24c1.58-.1,2.81-1.41,2.81-2.99v-27.27c0-1.64-1.32-2.98-2.96-3l-28.04-.34V7.34c0-1.66-1.34-3-3-3h0Z"/>
          <polygon class="cls-3" points="4.76 181.04 0 186.5 1.26 213.4 11.21 214.52 28.02 264.39 87.41 264.39 91.61 259.11 31.47 259.11 12.88 210.14 4.62 209.61 4.76 181.04"/>
        </g>
      </g>
      <g id="c_blad">
        <polygon class="cls-4" points="108.26 147.89 107.86 130.24 94.04 130.24 93.67 118.7 69.01 120.25 69.01 130.89 61.35 130.7 62.1 144.43 71.63 148.82 84.81 154.89 100.39 149.57 108.26 147.89"/>
        <g>
          <path class="cls-3" d="m92.87,120.25v11.21l14.15-.42v19.33h-9.95l-.98,10.79h-26.47l-1.96-14.01-5.04.84v-16.39h7.14v-10.09l23.11-1.26m0-3c-.05,0-.11,0-.16,0l-23.11,1.26c-1.59.09-2.84,1.4-2.84,3v7.09h-4.14c-1.66,0-3,1.34-3,3v16.39c0,.88.39,1.72,1.06,2.29.55.46,1.23.71,1.94.71.16,0,.33-.01.49-.04l2.01-.33,1.53,10.96c.21,1.48,1.48,2.58,2.97,2.58h26.47c1.55,0,2.85-1.18,2.99-2.73l.73-8.06h7.21c1.66,0,3-1.34,3-3v-19.33c0-.81-.33-1.59-.91-2.15-.56-.54-1.31-.85-2.09-.85-.03,0-.06,0-.09,0l-11.06.33v-8.12c0-.82-.34-1.61-.94-2.18-.56-.53-1.3-.82-2.06-.82h0Z"/>
          <polygon class="cls-3" points="62.1 142.94 74.71 141.91 75.27 146.58 108.42 146.58 107.86 151.25 98.24 151.25 97.03 161.71 69.62 161.15 66.77 148.26 62.1 148.91 62.1 142.94"/>
        </g>
      </g>
      <g id="c_blad-2" data-name="c_blad">
        <polygon class="cls-4" points="9.39 109.7 24.23 111.85 27.5 119.51 42.26 119.51 48.79 111.2 57.01 104.85 57.95 98.96 57.48 93.92 52.81 93.27 53.18 75.9 29.93 75.24 29.09 84.39 14.15 86.17 15.27 94.39 6.4 95.04 7.8 109.42 9.39 109.7"/>
        <g>
          <path class="cls-3" d="m30.91,75.9l21.43,1.4v17.37l4.62.42v20.17l-6.86.56-.98,7h-24.51l-1.54-9.81-14.01-.56-1.26-16.95h8.54l-1.4-8.54,15.27-1.4.7-9.67m0-3c-1.56,0-2.88,1.21-2.99,2.78l-.52,7.13-12.73,1.17c-.83.08-1.59.49-2.1,1.15-.51.66-.72,1.5-.59,2.32l.83,5.06h-5.01c-.83,0-1.63.35-2.2.96-.57.61-.85,1.43-.79,2.26l1.26,16.95c.11,1.52,1.35,2.71,2.87,2.78l11.55.46,1.16,7.37c.23,1.46,1.49,2.53,2.96,2.53h24.51c1.5,0,2.76-1.1,2.97-2.58l.65-4.63,4.47-.36c1.56-.13,2.76-1.43,2.76-2.99v-20.17c0-1.55-1.18-2.85-2.73-2.99l-1.89-.17v-14.63c0-1.58-1.23-2.89-2.8-2.99l-21.43-1.4c-.07,0-.13,0-.2,0h0Z"/>
          <polygon class="cls-3" points="57.95 101.67 57.95 115.96 51.03 116.99 49.82 124.36 23.67 123.34 22.18 114 7.8 113.02 7.8 107.46 26.19 107.93 28.81 115.12 41.6 115.21 42.63 101.67 57.95 101.67"/>
        </g>
      </g>
      <g id="c_blad-3" data-name="c_blad">
        <polygon class="cls-4" points="105.34 36.16 106.46 19.73 93.01 19.73 92.45 4.69 64.06 6.56 65 20.43 54.56 21.22 54.56 35.04 72.47 37.19 75.64 47.56 93.01 45.59 96.47 37.75 105.34 36.16"/>
        <g>
          <path class="cls-3" d="m91.75,5.63l.28,15.55,13.31-.42-.56,21.15-8.54,1.26,1.26,9.11-28.3,1.26-1.26-14.29h-12.19v-17.23l10.65-.7-1.26-14.01,26.61-1.68m0-3c-.06,0-.13,0-.19,0l-26.61,1.68c-.81.05-1.56.43-2.09,1.04-.53.61-.78,1.42-.71,2.22l.99,10.95-7.58.5c-1.58.1-2.8,1.41-2.8,2.99v17.23c0,1.66,1.34,3,3,3h9.44l1.02,11.55c.14,1.55,1.44,2.74,2.99,2.74.04,0,.09,0,.14,0l28.3-1.26c.84-.04,1.63-.43,2.17-1.08.54-.65.78-1.49.67-2.33l-.85-6.16,5.6-.83c1.44-.21,2.52-1.43,2.56-2.89l.56-21.15c.02-.83-.3-1.62-.88-2.21-.56-.56-1.32-.87-2.12-.87-.03,0-.06,0-.09,0l-10.27.32-.23-12.51c-.01-.82-.36-1.6-.97-2.15-.56-.51-1.28-.79-2.03-.79h0Z"/>
          <polygon class="cls-3" points="106.46 35.25 105.9 42.82 97.42 44.15 98.68 52.69 68.36 54.37 67.1 40.08 54.56 39.87 54.56 31.4 77.39 30.91 77.88 42.96 90.07 42.64 90.28 34.9 106.46 35.25"/>
        </g>
      </g>
      <g id="b_blad">
        <polygon class="cls-2" points="67.25 160.18 70.28 145.64 61.01 139.85 66.76 125.19 40.74 117.57 36.2 125.6 22.88 121.91 18.83 138.7 7.59 136.28 4.05 154.16 39.48 171.74 55.42 163 67.25 160.18"/>
        <g>
          <path class="cls-3" d="m41.06,118.99l24.11,6.78-5.9,15.68,9.51,5.18-4.29,17.79-11.24-1.18-5.9,14.91-21.42-5.17,1.23-5.08-23.97-5.78,5.83-24.15,11.07,2.67,4.16-17.25,12.4,4.34,4.41-8.73m0-3c-1.11,0-2.16.62-2.68,1.65l-3.23,6.39-9.92-3.47c-.32-.11-.66-.17-.99-.17-.5,0-.99.12-1.44.37-.74.41-1.28,1.11-1.48,1.93l-3.46,14.33-8.16-1.97c-.24-.06-.47-.08-.71-.08-1.35,0-2.58.92-2.91,2.3L.27,161.41c-.19.77-.06,1.59.36,2.27s1.08,1.17,1.86,1.35l21.05,5.08-.52,2.17c-.39,1.61.6,3.23,2.21,3.62l21.42,5.17c.24.06.47.08.7.08,1.21,0,2.33-.73,2.79-1.9l5.06-12.79,8.98.94c.11.01.21.02.31.02,1.37,0,2.59-.94,2.91-2.3l4.29-17.79c.32-1.32-.29-2.69-1.48-3.34l-7.22-3.93,4.98-13.23c.3-.79.25-1.66-.13-2.41-.38-.75-1.06-1.31-1.86-1.53l-24.11-6.78c-.27-.08-.54-.11-.81-.11h0Z"/>
          <polygon class="cls-3" points="67.93 157.37 46.31 153.4 42.52 166.71 29.15 162.81 30.35 154.64 4.46 149.26 1.16 162.97 25.48 168.84 24.62 174.4 47.95 180.02 54.78 164.86 65.52 165.34 67.93 157.37"/>
        </g>
      </g>
      <g id="b_blad-2" data-name="b_blad">
        <polygon class="cls-2" points="108.01 98.66 109.42 73.17 93.54 71.53 91.31 62.15 63.91 59.32 60.35 78.34 53.89 78.42 54.29 90.01 73.83 96.91 75.96 104.93 98.53 107.73 108.01 98.66"/>
        <g>
          <path class="cls-3" d="m64.52,60.65l26.2,2.7,1.08,9.5,16.37,1.5-1.81,26.66,7.04.91-3.25,15.06c-.93-.1-29.43-2.29-29.43-2.29l.69-6.69-24.34-2.51,1.17-11.33-4.6-2.54,1.21-11.7h7.3s2.37-19.28,2.37-19.28m0-3c-1.5,0-2.79,1.12-2.97,2.63l-2.04,16.65h-4.64s0,0,0,0c-1.54,0-2.83,1.16-2.98,2.69l-1.21,11.7c-.12,1.2.48,2.35,1.53,2.93l2.86,1.58-.97,9.36c-.17,1.65,1.03,3.12,2.68,3.29l21.35,2.2-.38,3.7c-.08.8.16,1.61.68,2.23s1.27,1.01,2.07,1.07c11.37.87,28.57,2.2,29.36,2.28.1,0,.2.01.3.01,1.4,0,2.64-.97,2.94-2.37l3.25-15.06c.18-.82,0-1.68-.48-2.36-.48-.69-1.23-1.14-2.06-1.24l-4.24-.55,1.62-23.85c.11-1.63-1.1-3.04-2.72-3.19l-13.94-1.28-.81-7.08c-.16-1.4-1.27-2.5-2.67-2.64l-26.2-2.7c-.1-.01-.21-.02-.31-.02h0Z"/>
          <polygon class="cls-3" points="115.04 100.61 111.32 118.43 80.22 115.97 79.4 109.32 55.99 106.06 56.13 95.56 53.13 92.99 51.63 92.09 52.61 87.21 82.06 91.75 81.76 97.36 115.04 100.61"/>
        </g>
      </g>
      <g id="b_blad-3" data-name="b_blad">
        <polygon class="cls-2" points="62.1 51.21 58.65 25.91 6.91 33.56 7.75 49.53 2.24 51.68 6.07 67.65 30.63 72.6 48.19 63.91 62.1 51.21"/>
        <g>
          <path class="cls-3" d="m57.62,27.96l3.17,30.26-9.52,2.8.37,15.88-27.83,2.24-.93-8.96-15.69,1.87-3.17-19.8,5.6-1.31-1.68-16.62,49.68-6.35m0-3c-.13,0-.25,0-.38.02L7.56,31.34c-1.61.21-2.77,1.66-2.6,3.28l1.42,14-3.03.71c-1.53.36-2.53,1.84-2.28,3.4l3.17,19.8c.24,1.47,1.51,2.53,2.96,2.53.12,0,.24,0,.36-.02l12.67-1.51.62,5.94c.16,1.54,1.46,2.69,2.98,2.69.08,0,.16,0,.24,0l27.83-2.24c1.59-.13,2.8-1.47,2.76-3.06l-.32-13.58,7.32-2.15c1.39-.41,2.29-1.75,2.14-3.19l-3.17-30.26c-.08-.8-.49-1.54-1.12-2.04-.53-.42-1.19-.65-1.86-.65h0Z"/>
          <polygon class="cls-3" points="60.79 49.53 36.51 54.39 37.35 66.06 29.14 67 27.92 60.46 4.48 63.82 6.16 73.53 21.48 71.95 23.44 80.07 53.23 77.64 52.95 61.77 62.94 58.12 60.79 49.53"/>
        </g>
      </g>
      <g id="a_blad">
        <polygon class="cls-1" points="49.73 24.22 48.33 8.53 37.47 8.04 35.51 1.18 14.43 5.03 17.51 20.58 30.19 21.7 30.89 26.88 49.73 24.22"/>
        <g>
          <path class="cls-3" d="m34.88,3l.98,6.58h10.79l1.68,16.11h-8.96v7.7h-13.73l1.4-8.68h-8.12l-2.52-19.33,18.49-2.38m0-3c-.13,0-.26,0-.39.02l-18.49,2.38c-.79.1-1.51.51-1.99,1.14-.49.63-.7,1.43-.6,2.22l2.52,19.33c.19,1.49,1.47,2.61,2.97,2.61h4.6l-.84,5.21c-.14.87.11,1.75.68,2.42.57.67,1.41,1.05,2.28,1.05h13.73c1.66,0,3-1.34,3-3v-4.7h5.96c.85,0,1.66-.36,2.23-.99.57-.63.84-1.47.76-2.32l-1.68-16.11c-.16-1.53-1.45-2.69-2.98-2.69h-8.2l-.6-4.03c-.22-1.49-1.5-2.56-2.96-2.56h0Z"/>
          <polygon class="cls-3" points="17.23 18.2 32.36 18.2 32.36 22.89 49.31 22.19 49.31 27.23 40.48 27.23 40.76 34.52 23.95 34.52 25.07 26.36 17.23 25.55 17.23 18.2"/>
        </g>
      </g>
      <g id="a_blad-2" data-name="a_blad">
        <polygon class="cls-1" points="92.22 183.78 93.74 171.13 85.96 169.8 85.96 159.78 71.18 158.87 70.48 164.54 60.05 164.47 58.37 174.77 72.51 177.08 72.16 185.42 92.22 183.78"/>
        <g>
          <path class="cls-3" d="m72.42,160.39l12.14.84-.47,10.46,8.12.56-1.03,12.42-8.78.19-1.12,4.95h-13.91l-.47-12.33-7.56-1.77,2.15-9.53h10.37l.56-5.79m0-3c-1.53,0-2.83,1.16-2.98,2.71l-.3,3.08h-7.64c-1.4,0-2.62.97-2.93,2.34l-2.15,9.53c-.36,1.61.64,3.2,2.24,3.58l5.34,1.25.38,10.04c.06,1.61,1.39,2.89,3,2.89h13.91c1.4,0,2.62-.97,2.93-2.34l.6-2.66,6.43-.14c1.54-.03,2.8-1.22,2.93-2.75l1.03-12.42c.07-.8-.19-1.59-.71-2.2-.52-.61-1.27-.98-2.07-1.04l-5.2-.36.34-7.53c.07-1.63-1.17-3.01-2.79-3.13l-12.14-.84c-.07,0-.14,0-.21,0h0Z"/>
          <polygon class="cls-3" points="58.37 172.67 75.03 173.65 74.33 180.51 92.96 181.35 91.28 186.82 84 186.82 82.04 191.02 66.21 191.02 65.09 179.25 56.96 176.87 58.37 172.67"/>
        </g>
      </g>
      <polygon class="cls-3" points="7.38 290.49 4.62 281.61 114.86 281.61 110.66 290.67 7.38 290.49"/>
    </g>
  </g>
</svg>