<?xml version="1.0" encoding="UTF-8"?>
<svg id="paal" data-name="Laag 2" xmlns="http://www.w3.org/2000/svg" viewBox="0 0 117.58 290.67">
  <defs>
    <style>
      .cls-1 {
        fill: #74a56a;
      }

      .cls-1, .cls-2, .cls-3, .cls-4, .cls-5 {
        stroke-width: 0px;
      }

      .cls-2 {
        fill: #4f8348;
      }

      .cls-3 {
        fill: #1d1d1b;
      }

      .cls-4 {
        fill: #3f6538;
      }

      .cls-5 {
        fill: #d0cfcf;
      }
    </style>
  </defs>
  <g id="Laag_1-2" data-name="Laag 1">
    <g>
      <polygon class="cls-5" points="4.62 209.61 4.77 179.08 38.19 179.92 38.19 7.34 82.27 7.34 82.27 178.8 113.28 179.17 113.28 206.44 107.3 206.81 91.61 259.11 31.47 259.11 12.88 210.14 4.62 209.61"/>
      <g>
        <path class="cls-3" d="m82.27,7.34v171.45l31,.37v27.27l-5.98.37-15.69,52.3H31.47l-17.18-49.68-8.59-1.49v-28.02h32.5V7.34h44.08m0-3h-44.08c-1.66,0-3,1.34-3,3v169.58H5.7c-1.66,0-3,1.34-3,3v28.02c0,1.46,1.05,2.71,2.49,2.96l6.85,1.19,16.6,48.01c.42,1.21,1.56,2.02,2.84,2.02h60.14c1.32,0,2.49-.87,2.87-2.14l15.09-50.29,3.89-.24c1.58-.1,2.81-1.41,2.81-2.99v-27.27c0-1.64-1.32-2.98-2.96-3l-28.04-.34V7.34c0-1.66-1.34-3-3-3h0Z"/>
        <polygon class="cls-3" points="4.76 181.04 0 186.5 1.26 213.4 11.21 214.52 28.02 264.39 87.41 264.39 91.61 259.11 31.47 259.11 12.88 210.14 4.62 209.61 4.76 181.04"/>
      </g>
    </g>
    <g id="c_blad">
      <polygon class="cls-4" points="108.26 147.89 107.86 130.24 94.04 130.24 93.67 118.7 69.01 120.25 69.01 130.89 61.35 130.7 62.1 144.43 71.63 148.82 84.81 154.89 100.39 149.57 108.26 147.89"/>
      <g>
        <path class="cls-3" d="m92.87,120.25v11.21l14.15-.42v19.33h-9.95l-.98,10.79h-26.47l-1.96-14.01-5.04.84v-16.39h7.14v-10.09l23.11-1.26m0-3c-.05,0-.11,0-.16,0l-23.11,1.26c-1.59.09-2.84,1.4-2.84,3v7.09h-4.14c-1.66,0-3,1.34-3,3v16.39c0,.88.39,1.72,1.06,2.29.55.46,1.23.71,1.94.71.16,0,.33-.01.49-.04l2.01-.33,1.53,10.96c.21,1.48,1.47,2.58,2.97,2.58h26.47c1.55,0,2.85-1.18,2.99-2.73l.73-8.06h7.21c1.66,0,3-1.34,3-3v-19.33c0-.81-.33-1.59-.91-2.15-.56-.54-1.31-.85-2.09-.85-.03,0-.06,0-.09,0l-11.06.33v-8.12c0-.82-.34-1.61-.94-2.18-.56-.53-1.3-.82-2.06-.82h0Z"/>
        <polygon class="cls-3" points="62.1 142.94 74.71 141.91 75.27 146.58 108.42 146.58 107.86 151.25 98.24 151.25 97.03 161.71 69.62 161.15 66.77 148.26 62.1 148.91 62.1 142.94"/>
      </g>
    </g>
    <g id="c_blad" data-name="c_blad">
      <polygon class="cls-4" points="12.79 105.58 27.64 107.73 30.91 115.39 45.67 115.39 52.2 107.08 60.42 100.73 61.35 94.84 60.89 89.8 56.22 89.15 56.59 71.78 33.34 71.12 32.5 80.28 17.56 82.05 18.68 90.27 9.81 90.92 11.21 105.3 12.79 105.58"/>
      <g>
        <path class="cls-3" d="m34.32,71.78l21.43,1.4v17.37l4.62.42v20.17l-6.86.56-.98,7h-24.51l-1.54-9.81-14.01-.56-1.26-16.95h8.54l-1.4-8.54,15.27-1.4.7-9.67m0-3c-1.56,0-2.88,1.21-2.99,2.78l-.52,7.13-12.73,1.17c-.83.08-1.59.49-2.1,1.15-.51.66-.72,1.5-.59,2.32l.83,5.06h-5.01c-.83,0-1.63.35-2.2.96-.57.61-.86,1.43-.79,2.26l1.26,16.95c.11,1.52,1.35,2.71,2.87,2.77l11.55.46,1.16,7.37c.23,1.46,1.49,2.53,2.96,2.53h24.51c1.5,0,2.76-1.1,2.97-2.58l.65-4.63,4.47-.36c1.56-.13,2.76-1.43,2.76-2.99v-20.17c0-1.55-1.18-2.85-2.73-2.99l-1.89-.17v-14.63c0-1.58-1.23-2.89-2.8-2.99l-21.43-1.4c-.07,0-.13,0-.2,0h0Z"/>
        <polygon class="cls-3" points="61.35 97.55 61.35 111.84 54.44 112.87 53.23 120.25 27.08 119.22 25.59 109.88 11.21 108.9 11.21 103.34 29.6 103.81 32.22 111 45.01 111.09 46.04 97.55 61.35 97.55"/>
      </g>
    </g>
    <g id="c_blad" data-name="c_blad">
      <polygon class="cls-4" points="105.34 45.72 106.46 29.29 93.01 29.29 92.45 14.25 64.06 16.12 65 29.99 54.56 30.78 54.56 44.6 72.47 46.75 75.64 57.12 93.01 55.16 96.47 47.31 105.34 45.72"/>
      <g>
        <path class="cls-3" d="m91.75,15.19l.28,15.55,13.31-.42-.56,21.15-8.54,1.26,1.26,9.11-28.3,1.26-1.26-14.29h-12.19v-17.23l10.65-.7-1.26-14.01,26.61-1.68m0-3c-.06,0-.13,0-.19,0l-26.61,1.68c-.81.05-1.56.43-2.09,1.04s-.78,1.42-.71,2.22l.99,10.95-7.58.5c-1.58.1-2.8,1.41-2.8,2.99v17.23c0,1.66,1.34,3,3,3h9.44l1.02,11.55c.14,1.55,1.44,2.74,2.99,2.74.04,0,.09,0,.14,0l28.3-1.26c.84-.04,1.63-.43,2.17-1.08.54-.65.78-1.49.67-2.33l-.85-6.16,5.6-.83c1.44-.21,2.52-1.43,2.56-2.89l.56-21.15c.02-.83-.3-1.62-.88-2.21-.56-.56-1.32-.87-2.12-.87-.03,0-.06,0-.09,0l-10.27.32-.23-12.51c-.01-.82-.36-1.6-.97-2.15-.56-.51-1.28-.79-2.03-.79h0Z"/>
        <polygon class="cls-3" points="106.46 44.81 105.9 52.38 97.42 53.71 98.68 62.25 68.36 63.93 67.1 49.65 54.56 49.44 54.56 40.96 77.39 40.47 77.88 52.52 90.07 52.2 90.28 44.46 106.46 44.81"/>
      </g>
    </g>
    <g id="b_blad">
      <polygon class="cls-2" points="69.2 150.13 68.73 135.28 58.37 131.83 60.51 116.23 33.43 114.92 30.91 123.79 17.09 123.33 17.09 140.6 5.6 140.88 6.35 159.09 44.92 167.87 58.37 155.64 69.2 150.13"/>
      <g>
        <path class="cls-3" d="m34.09,116.23l25.03.93-2.05,16.62,10.46,2.8v18.3l-11.21,1.49-2.24,15.88h-22.04v-5.23H7.38v-24.84h11.39v-17.74l13.07,1.31,2.24-9.53m0-3c-1.39,0-2.6.95-2.92,2.31l-1.64,6.97-10.46-1.05c-.1-.01-.2-.01-.3-.01-.74,0-1.46.27-2.01.78-.63.57-.99,1.38-.99,2.22v14.74H7.38c-1.66,0-3,1.34-3,3v24.84c0,1.66,1.34,3,3,3h21.65v2.23c0,1.66,1.34,3,3,3h22.04c1.49,0,2.76-1.1,2.97-2.58l1.92-13.62,8.95-1.19c1.49-.2,2.6-1.47,2.6-2.97v-18.3c0-1.36-.91-2.55-2.22-2.9l-7.94-2.13,1.73-14.03c.1-.83-.15-1.67-.69-2.31-.54-.64-1.33-1.02-2.17-1.05l-25.03-.93s-.08,0-.11,0h0Z"/>
        <polygon class="cls-3" points="69.2 147.23 47.25 148.45 46.69 162.27 32.78 161.61 32.03 153.4 5.6 154.24 5.6 168.34 30.63 168.34 31.1 173.94 55.1 173.94 58.18 157.6 68.73 155.54 69.2 147.23"/>
      </g>
    </g>
    <g id="b_blad" data-name="b_blad">
      <polygon class="cls-2" points="108.89 96.15 107.67 70.66 91.7 70.66 88.53 61.55 60.98 61.55 59.39 80.84 52.97 81.58 54.56 93.07 74.71 97.93 77.65 105.68 100.39 106.14 108.89 96.15"/>
      <g>
        <path class="cls-3" d="m88.06,62.81l2.05,9.34,16.44-.19.93,26.71,7.1.19-1.68,15.32c-.93,0-29.51.75-29.51.75v-6.72h-24.47v-11.39l-4.83-2.05v-11.77l7.26-.75.37-19.42h26.33m0-3h-26.33c-1.63,0-2.97,1.31-3,2.94l-.32,16.77-4.62.48c-1.53.16-2.69,1.45-2.69,2.98v11.77c0,1.2.72,2.29,1.83,2.76l3.01,1.28v9.41c0,1.66,1.34,3,3,3h21.47v3.72c0,.81.33,1.58.91,2.15.56.55,1.31.85,2.09.85.03,0,.05,0,.08,0,11.4-.3,28.64-.74,29.43-.75,1.53,0,2.81-1.16,2.98-2.67l1.68-15.32c.09-.83-.17-1.67-.72-2.3-.55-.63-1.34-1-2.18-1.03l-4.28-.11-.84-23.89c-.06-1.62-1.38-2.9-3-2.9-.01,0-.02,0-.03,0l-14,.16-1.53-6.96c-.3-1.38-1.52-2.36-2.93-2.36h0Z"/>
        <polygon class="cls-3" points="116.08 97.37 114.21 115.48 83.02 116.23 81.53 109.69 57.9 108.85 56.96 98.39 53.72 96.15 52.13 95.4 52.6 90.46 82.37 91.95 82.65 97.55 116.08 97.37"/>
      </g>
    </g>
    <g id="b_blad" data-name="b_blad">
      <polygon class="cls-2" points="62.29 47.97 58.83 22.66 7.1 30.32 7.94 46.28 2.43 48.43 6.26 64.4 30.82 69.35 48.37 60.67 62.29 47.97"/>
      <g>
        <path class="cls-3" d="m57.81,24.71l3.18,30.26-9.53,2.8.37,15.88-27.83,2.24-.93-8.97-15.69,1.87-3.18-19.8,5.6-1.31-1.68-16.62,49.68-6.35m0-3c-.13,0-.25,0-.38.02L7.74,28.09c-1.61.21-2.77,1.66-2.6,3.28l1.42,14-3.03.71c-1.53.36-2.53,1.84-2.28,3.4l3.18,19.8c.24,1.47,1.51,2.53,2.96,2.53.12,0,.24,0,.36-.02l12.67-1.51.62,5.94c.16,1.54,1.46,2.69,2.98,2.69.08,0,.16,0,.24-.01l27.83-2.24c1.59-.13,2.8-1.47,2.76-3.06l-.32-13.58,7.32-2.15c1.39-.41,2.29-1.75,2.14-3.19l-3.18-30.26c-.08-.8-.49-1.54-1.12-2.04-.53-.42-1.19-.65-1.86-.65h0Z"/>
        <polygon class="cls-3" points="60.98 46.28 36.7 51.14 37.54 62.81 29.32 63.75 28.11 57.21 4.67 60.57 6.35 70.28 21.67 68.7 23.63 76.82 53.42 74.39 53.14 58.52 63.13 54.88 60.98 46.28"/>
      </g>
    </g>
    <g id="a_blad">
      <polygon class="cls-1" points="49.73 24.22 48.33 8.53 37.47 8.04 35.51 1.18 14.43 5.03 17.51 20.58 30.19 21.7 30.89 26.88 49.73 24.22"/>
      <g>
        <path class="cls-3" d="m34.88,3l.98,6.58h10.79l1.68,16.11h-8.97v7.7h-13.73l1.4-8.68h-8.12l-2.52-19.33,18.49-2.38m0-3c-.13,0-.26,0-.39.02l-18.49,2.38c-.79.1-1.51.51-1.99,1.14-.49.63-.7,1.43-.6,2.22l2.52,19.33c.19,1.49,1.47,2.61,2.97,2.61h4.6l-.84,5.21c-.14.87.11,1.75.68,2.42.57.67,1.4,1.05,2.28,1.05h13.73c1.66,0,3-1.34,3-3v-4.7h5.97c.85,0,1.66-.36,2.23-.99s.84-1.47.76-2.32l-1.68-16.11c-.16-1.53-1.45-2.69-2.98-2.69h-8.2l-.6-4.03c-.22-1.49-1.5-2.56-2.96-2.56h0Z"/>
        <polygon class="cls-3" points="17.23 18.2 32.36 18.2 32.36 22.89 49.31 22.19 49.31 27.23 40.48 27.23 40.76 34.52 23.95 34.52 25.07 26.36 17.23 25.55 17.23 18.2"/>
      </g>
    </g>
    <g id="a_blad" data-name="a_blad">
      <polygon class="cls-1" points="90.02 176.88 91.54 164.23 83.77 162.9 83.77 152.88 68.99 151.97 68.29 157.65 57.85 157.58 56.17 167.87 70.32 170.18 69.97 178.52 90.02 176.88"/>
      <g>
        <path class="cls-3" d="m70.23,153.49l12.14.84-.47,10.46,8.12.56-1.03,12.42-8.78.19-1.12,4.95h-13.91l-.47-12.33-7.56-1.77,2.15-9.53h10.37l.56-5.79m0-3c-1.53,0-2.83,1.16-2.98,2.71l-.3,3.08h-7.64c-1.4,0-2.62.97-2.93,2.34l-2.15,9.53c-.36,1.61.64,3.2,2.24,3.58l5.34,1.25.38,10.04c.06,1.61,1.39,2.89,3,2.89h13.91c1.4,0,2.62-.97,2.93-2.34l.6-2.66,6.43-.14c1.54-.03,2.8-1.22,2.93-2.75l1.03-12.42c.07-.8-.19-1.59-.71-2.2s-1.27-.98-2.07-1.04l-5.2-.36.34-7.53c.07-1.63-1.17-3.01-2.79-3.13l-12.14-.84c-.07,0-.14,0-.21,0h0Z"/>
        <polygon class="cls-3" points="56.17 165.77 72.84 166.75 72.14 173.61 90.77 174.46 89.09 179.92 81.81 179.92 79.84 184.12 64.02 184.12 62.89 172.35 54.77 169.97 56.17 165.77"/>
      </g>
    </g>
    <polygon class="cls-3" points="7.38 290.49 4.62 281.61 114.86 281.61 110.66 290.67 7.38 290.49"/>
  </g>
</svg>