<?xml version="1.0" encoding="UTF-8"?>
<svg id="Laag_2" data-name="Laag 2" xmlns="http://www.w3.org/2000/svg" viewBox="0 0 91.48 117.4">
  <defs>
    <style>
      .cls-1 {
        fill: #74a56a;
      }

      .cls-1, .cls-2, .cls-3, .cls-4 {
        stroke-width: 0px;
      }

      .cls-2 {
        fill: #3f6538;
      }

      .cls-3 {
        fill: #d4e5cb;
      }

      .cls-4 {
        fill: #000c00;
      }

      .cls-5 {
        fill: none;
        stroke: #000c00;
        stroke-linecap: round;
        stroke-linejoin: round;
        stroke-width: 3px;
      }
    </style>
  </defs>
  <g id="Landingspagina_" data-name="Landingspagina\">
    <g>
      <polygon class="cls-3" points="42.71 55.59 50.99 80.37 32.73 114.97 6.4 104.46 19.7 72.25 42.71 55.59"/>
      <polygon class="cls-1" points="42.96 56.77 50.99 80.37 66.49 76.45 90.72 30.22 64.39 21.12 42.96 56.77"/>
      <polygon class="cls-1" points="41.56 56.7 19.7 72.25 6.4 57.4 17.18 12.15 45.71 17.01 41.56 56.7"/>
      <polygon class="cls-2" points="40.16 1.51 38.85 14.3 46.6 16.35 43.73 50.74 63.9 23.17 72.23 23.17 76.58 13.27 40.93 1.51 40.16 1.51"/>
      <g>
        <g>
          <path class="cls-4" d="m18.44,13.27l27.27,3.74-5.42,45.2,24.84-38.47,23.35,6.91-23.53,44.66-14.38,3.53-17.93,34.37-22.6-8.61,11.3-33.59-12.23-11.41L18.44,13.27m0-3c-1.41,0-2.65.99-2.94,2.41L6.16,59c-.21,1.02.13,2.08.89,2.79l10.82,10.09-10.68,31.75c-.51,1.53.27,3.19,1.78,3.76l22.6,8.61c.35.13.71.2,1.07.2,1.09,0,2.13-.6,2.66-1.61l17.3-33.16,13.06-3.21c.83-.2,1.54-.76,1.94-1.51l23.53-44.66c.42-.8.46-1.74.11-2.56s-1.05-1.46-1.91-1.71l-23.35-6.91c-.28-.08-.57-.12-.85-.12-1,0-1.96.5-2.52,1.37l-17.8,27.56,3.87-32.3c.19-1.63-.95-3.11-2.57-3.33l-27.27-3.74c-.14-.02-.27-.03-.41-.03h0Z"/>
          <path class="cls-4" d="m41.42,3l33.62,11.58-4.02,7.38-6.63-.84-19.14,28.02,2.15-33.99-6.81-1.87.83-10.27m0-3c-.58,0-1.15.17-1.64.49-.78.51-1.27,1.35-1.35,2.27l-.83,10.27c-.12,1.44.81,2.75,2.2,3.13l4.45,1.22-1.99,31.56c-.08,1.35.74,2.59,2.02,3.03.32.11.65.16.98.16.97,0,1.91-.47,2.48-1.31l18.11-26.5,4.81.61c.13.02.25.02.38.02,1.09,0,2.1-.59,2.63-1.57l4.02-7.38c.42-.78.48-1.7.16-2.52-.32-.82-.99-1.46-1.82-1.75L42.39.16c-.32-.11-.65-.16-.98-.16h0Z"/>
          <line class="cls-5" x1="45.24" y1="49.13" x2="56.73" y2="15.33"/>
          <line class="cls-5" x1="28.34" y1="92.28" x2="45.24" y2="49.13"/>
          <line class="cls-5" x1="48.79" y1="69.49" x2="73.17" y2="34.75"/>
          <line class="cls-5" x1="26.29" y1="63.23" x2="29.65" y2="23.17"/>
        </g>
        <polygon class="cls-4" points="38.85 4.59 31.94 7.2 31.94 13.27 38.85 14.3 38.85 4.59"/>
        <polygon class="cls-4" points="16.62 14.3 8.03 19.9 0 63.23 13.82 74.63 1.87 108.99 24.09 117.4 30.63 114.22 9.11 106.19 19.24 70.7 6.72 60.06 16.62 14.3"/>
      </g>
    </g>
  </g>
</svg>