<?xml version="1.0" encoding="UTF-8"?>
<svg id="Laag_2" data-name="Laag 2" xmlns="http://www.w3.org/2000/svg" viewBox="0 0 266.21 128.17">
  <defs>
    <style>
      .cls-1, .cls-2, .cls-3, .cls-4, .cls-5, .cls-6 {
        stroke-width: 0px;
      }

      .cls-2 {
        fill: #74a56a;
      }

      .cls-3 {
        fill: #a42b23;
      }

      .cls-4 {
        fill: #3f6538;
      }

      .cls-5 {
        fill: #fff;
      }

      .cls-6 {
        fill: #000c00;
      }

      .cls-7 {
        stroke: #000;
      }

      .cls-7, .cls-8 {
        fill: none;
        stroke-linecap: round;
        stroke-linejoin: round;
        stroke-width: 3px;
      }

      .cls-8 {
        stroke: #000c00;
      }
    </style>
  </defs>
  <g id="Landingspagina_" data-name="Landingspagina\">
    <g>
      <g>
        <path class="cls-5" d="m66.39,55.74l-4.39-16.97-16.89-3.99-22.13,2.8-6.11,16.97-9.58,4.59v62.3l67.49,1.8v-63.49l-8.39-3.99Zm-13.58-1.2h-22.56l-1-7.59,12.85-5.79,11.91,5.99-1.2,7.39Z"/>
        <path class="cls-1" d="m42.56,36.49l17.79,2.69,4.2,17.46,8.23,3.19,1.01,61.61H9.49v-61.1l8.56-4.03,6.55-17.12,17.96-2.69m0-3c-.15,0-.3.01-.44.03l-17.96,2.69c-1.07.16-1.97.88-2.36,1.9l-6.12,15.99-7.47,3.51c-1.05.49-1.72,1.55-1.72,2.71v61.1c0,1.66,1.34,3,3,3h64.29c.8,0,1.57-.32,2.14-.9s.87-1.35.86-2.15l-1.01-61.61c-.02-1.22-.78-2.31-1.92-2.75l-6.76-2.62-3.83-15.93c-.29-1.19-1.26-2.08-2.47-2.27l-17.79-2.69c-.15-.02-.3-.03-.45-.03h0Z"/>
        <path class="cls-1" d="m42.06,42.87l11.94,4.29-1.2,7.39h-22.56l-1-7.59,12.81-4.09m0-3c-.31,0-.61.05-.91.14l-12.81,4.09c-1.38.44-2.25,1.81-2.06,3.25l1,7.59c.2,1.49,1.47,2.61,2.97,2.61h22.56c1.47,0,2.73-1.07,2.96-2.52l1.2-7.39c.23-1.43-.59-2.82-1.95-3.3l-11.94-4.29c-.33-.12-.67-.18-1.01-.18h0Z"/>
        <g>
          <polygon class="cls-3" points="44.08 84.02 36.47 90.08 28.65 86.64 27.71 100.47 45.11 110.96 54.95 93.69 45.11 89.73 44.08 84.02"/>
          <polygon class="cls-4" points="61.99 95.55 45.75 91.19 43.26 84.02 36.47 90.08 22.98 79.42 34.49 72.29 42.79 72.72 43.26 68.76 53.92 72.12 50.99 74.87 59.33 79.59 61.99 95.55"/>
          <g>
            <polygon class="cls-6" points="43.26 68.76 38.96 69.19 38.28 72.2 42.79 72.72 43.26 68.76"/>
            <polygon class="cls-6" points="32.69 72.72 26.67 71.69 18.42 82.34 26.07 87.93 24.65 103.4 40.77 112.42 45.11 110.96 27.71 100.47 28.65 86.64 22.55 80.36 32.69 72.72"/>
            <g>
              <path class="cls-6" d="m44.76,70.22l6.7,2.06-3.61,3.27,9.45,3.95,3.61,14.95-14.09-4.64-2.06-7.56-8.42,6.53-11.69-8.42,10.05-6.7,9.37.86.69-4.3m0-3c-.55,0-1.1.15-1.59.45-.74.46-1.24,1.22-1.38,2.07l-.24,1.53-6.57-.6c-.09,0-.18-.01-.27-.01-.59,0-1.17.17-1.66.5l-10.05,6.7c-.82.55-1.32,1.46-1.34,2.44-.02.98.45,1.91,1.25,2.49l11.69,8.42c.52.38,1.14.57,1.75.57.65,0,1.3-.21,1.84-.63l4.87-3.78.88,3.23c.26.97,1,1.75,1.96,2.06l14.09,4.64c.31.1.62.15.94.15.74,0,1.47-.28,2.03-.79.8-.74,1.14-1.85.88-2.91l-3.61-14.95c-.22-.93-.88-1.7-1.76-2.06l-5.09-2.13.11-.1c.8-.72,1.15-1.82.92-2.87s-1.02-1.9-2.05-2.22l-6.7-2.06c-.29-.09-.59-.13-.88-.13h0Z"/>
              <polyline class="cls-8" points="56.11 94.46 45.11 110.96 28.09 99.79 29.47 85.86"/>
              <line class="cls-8" x1="33.38" y1="94.2" x2="32.6" y2="96.91"/>
              <line class="cls-8" x1="40.77" y1="92.78" x2="39.56" y2="95.55"/>
              <line class="cls-8" x1="42.79" y1="100.52" x2="41.5" y2="103.22"/>
              <line class="cls-8" x1="48.28" y1="96.91" x2="47.43" y2="98.97"/>
            </g>
          </g>
        </g>
      </g>
      <polygon class="cls-1" points="51.07 45.43 49.19 55.54 54.43 55.92 56.08 46.11 51.07 45.43"/>
      <polygon class="cls-1" points="22.98 39.07 15.42 41.17 11.83 50.68 0 55.92 .9 128.17 66.04 128.17 70.83 123.08 7.28 121.44 7.28 59.14 16.87 54.54 22.98 39.07"/>
    </g>
    <g>
      <g>
        <polygon class="cls-4" points="153.52 19.08 127.31 15.34 129.38 .79 155.48 5.35 153.52 19.08"/>
        <path class="cls-1" d="m130.06,3l24.13,3.44-1.58,11.09-24.13-3.44,1.58-11.09m0-3c-.65,0-1.28.21-1.8.6-.64.48-1.06,1.19-1.17,1.98l-1.58,11.09c-.23,1.64.91,3.16,2.55,3.39l24.13,3.44c.14.02.28.03.42.03.65,0,1.28-.21,1.8-.6.64-.48,1.06-1.19,1.17-1.98l1.58-11.09c.23-1.64-.91-3.16-2.55-3.39L130.48.03c-.14-.02-.28-.03-.42-.03h0Z"/>
        <polygon class="cls-5" points="151.98 20.56 125.96 16.85 123.07 22.24 114.78 86.43 145.15 90.75 155.42 23.59 151.98 20.56"/>
        <path class="cls-1" d="m128.04,17.15l23.93,3.41,1.45,4.17-9.23,64.76-28.01-3.99,9.25-64.9,2.61-3.45m0-3c-.93,0-1.82.43-2.39,1.19l-2.61,3.45c-.31.41-.51.88-.58,1.39l-9.25,64.9c-.11.79.09,1.59.57,2.22s1.19,1.06,1.98,1.17l28.01,3.99c.14.02.28.03.42.03.65,0,1.28-.21,1.8-.6.64-.48,1.06-1.19,1.17-1.98l9.23-64.76c.07-.47.02-.95-.14-1.41l-1.45-4.17c-.37-1.06-1.3-1.83-2.41-1.99l-23.93-3.41c-.14-.02-.28-.03-.42-.03h0Z"/>
      </g>
      <polygon class="cls-1" points="127.98 2.7 122.72 5.07 121.58 13.11 117.53 17.7 107.2 90.21 137.52 94.53 142.23 90.34 114.78 86.43 123.07 22.24 127.31 15.34 127.98 2.7"/>
    </g>
    <g>
      <polygon class="cls-4" points="265.08 76.31 265.08 45.78 195.59 48 195.59 76.31 265.08 76.31"/>
      <polygon class="cls-2" points="263.21 75.59 198.01 77.02 198.01 117.93 263.21 117.93 263.21 75.59"/>
      <polygon class="cls-5" points="240.51 85.5 220.83 84.74 220.83 75.59 241.46 77.02 240.51 85.5"/>
      <g>
        <path class="cls-1" d="m263.21,49.28v24.33h-65.2v-24.33h65.2m0-3h-65.2c-1.66,0-3,1.34-3,3v24.33c0,1.66,1.34,3,3,3h65.2c1.66,0,3-1.34,3-3v-24.33c0-1.66-1.34-3-3-3h0Z"/>
        <path class="cls-1" d="m260.86,78.81l.08,36.93h-60.59l-.08-36.93h60.58m0-3h-60.58c-.8,0-1.56.32-2.12.88-.56.56-.88,1.33-.88,2.13l.08,36.93c0,1.65,1.35,2.99,3,2.99h60.59c.8,0,1.56-.32,2.12-.88.56-.56.88-1.33.88-2.13l-.08-36.93c0-1.65-1.35-2.99-3-2.99h0Z"/>
        <polyline class="cls-7" points="220.83 77.5 220.83 84.74 240.39 84.74 240.39 77.02"/>
      </g>
      <polygon class="cls-1" points="195.59 48 189.41 53.65 191.58 123.23 252.1 124.54 259.79 118.56 198.01 117.93 198.01 77.02 195.15 69.9 195.59 48"/>
    </g>
  </g>
</svg>