<?xml version="1.0" encoding="UTF-8"?>
<svg id="Laag_2" data-name="Laag 2" xmlns="http://www.w3.org/2000/svg" viewBox="0 0 379.65 225.05">
  <defs>
    <style>
      .cls-1 {
        fill: none;
        stroke: #1d1d1b;
        stroke-linecap: round;
        stroke-linejoin: round;
        stroke-width: 2px;
      }

      .cls-2 {
        fill: #4f8348;
      }

      .cls-2, .cls-3, .cls-4, .cls-5 {
        stroke-width: 0px;
      }

      .cls-3 {
        fill: #1d1d1b;
      }

      .cls-4 {
        fill: #fff;
      }

      .cls-5 {
        fill: #000c00;
      }
    </style>
  </defs>
  <g id="Laag_1-2" data-name="Laag 1">
    <path class="cls-3" d="m17.93,13.25L0,27.84v191.08c0,3.39,2.75,6.14,6.14,6.14h337l19.94-17.37-342.91-2.24L17.93,13.25Z"/>
    <g>
      <g>
        <rect class="cls-4" x="10.75" y="1.5" width="367.4" height="212.28" rx="7.64" ry="7.64"/>
        <path class="cls-3" d="m370.51,3c3.39,0,6.14,2.75,6.14,6.14v196.99c0,3.39-2.75,6.14-6.14,6.14H18.4c-3.39,0-6.14-2.75-6.14-6.14V9.14c0-3.39,2.75-6.14,6.14-6.14h352.11m0-3H18.4c-5.04,0-9.14,4.1-9.14,9.14v196.99c0,5.04,4.1,9.14,9.14,9.14h352.11c5.04,0,9.14-4.1,9.14-9.14V9.14c0-5.04-4.1-9.14-9.14-9.14h0Z"/>
      </g>
      <g>
        <path class="cls-5" d="m115.56,31.63c1.76,1.5,2.65,3.8,2.65,6.91s-.91,5.38-2.72,6.82c-1.81,1.44-4.58,2.16-8.3,2.16h-3.35v7.02h-5.62v-25.16h8.89c3.86,0,6.68.75,8.44,2.25Zm-4.12,9.9c.67-.76,1.01-1.86,1.01-3.31s-.44-2.48-1.31-3.1c-.88-.61-2.24-.92-4.09-.92h-3.2v8.46h3.78c1.87,0,3.14-.38,3.82-1.13Z"/>
        <path class="cls-5" d="m127.46,54.55h-5.4v-26.71h5.4v26.71Z"/>
        <path class="cls-5" d="m149.02,54.55h-5.08v-2.34c-1.39,1.75-3.11,2.63-5.17,2.63s-3.77-.59-5.17-1.78c-1.39-1.19-2.09-2.77-2.09-4.75s.72-3.46,2.16-4.45c1.44-.98,3.41-1.48,5.9-1.48h4.03v-.11c0-2.06-1.09-3.1-3.28-3.1-.94,0-1.93.19-2.97.56s-1.93.83-2.65,1.39l-2.41-3.49c2.54-1.85,5.45-2.77,8.71-2.77,2.35,0,4.27.59,5.76,1.76,1.49,1.18,2.23,3.04,2.23,5.58v12.35Zm-5.44-7.38v-.94h-3.38c-2.16,0-3.24.67-3.24,2.02,0,.7.26,1.23.77,1.6.52.37,1.25.56,2.21.56s1.81-.29,2.54-.88c.73-.59,1.1-1.37,1.1-2.36Z"/>
        <path class="cls-5" d="m159.35,43.75v10.8h-5.4v-19.37h5.4v2.16c1.63-1.66,3.47-2.48,5.51-2.48s3.75.72,5.13,2.16c1.38,1.44,2.07,3.36,2.07,5.76v11.77h-5.4v-10.94c0-2.98-1.09-4.46-3.28-4.46-1.08,0-2.02.39-2.83,1.17-.8.78-1.21,1.93-1.21,3.44Z"/>
        <path class="cls-5" d="m183.11,39.07v8.68c0,.74.19,1.33.58,1.75.38.42.84.63,1.37.63,1.01,0,1.86-.46,2.56-1.37l2.02,3.78c-1.68,1.54-3.45,2.3-5.31,2.3s-3.43-.61-4.72-1.84c-1.28-1.22-1.93-2.89-1.93-5v-8.93h-2.27v-3.89h2.27v-5.8h5.44v5.8h4.68v3.89h-4.68Z"/>
        <path class="cls-5" d="m207.41,54.55h-5.4v-26.71h5.4v13.72l6.01-6.41h6.8l-7.38,7.85,7.67,11.56h-6.41l-4.93-7.42-1.76,1.84v5.58Z"/>
        <path class="cls-5" d="m239.38,54.55h-5.08v-2.34c-1.39,1.75-3.11,2.63-5.17,2.63s-3.77-.59-5.17-1.78c-1.39-1.19-2.09-2.77-2.09-4.75s.72-3.46,2.16-4.45c1.44-.98,3.41-1.48,5.9-1.48h4.03v-.11c0-2.06-1.09-3.1-3.28-3.1-.94,0-1.93.19-2.97.56s-1.93.83-2.65,1.39l-2.41-3.49c2.54-1.85,5.45-2.77,8.71-2.77,2.35,0,4.27.59,5.76,1.76s2.23,3.04,2.23,5.58v12.35Zm-5.44-7.38v-.94h-3.38c-2.16,0-3.24.67-3.24,2.02,0,.7.26,1.23.77,1.6.52.37,1.25.56,2.21.56s1.81-.29,2.54-.88,1.1-1.37,1.1-2.36Z"/>
        <path class="cls-5" d="m260.76,54.55h-5.08v-2.34c-1.39,1.75-3.11,2.63-5.17,2.63s-3.77-.59-5.17-1.78c-1.39-1.19-2.09-2.77-2.09-4.75s.72-3.46,2.16-4.45c1.44-.98,3.41-1.48,5.9-1.48h4.03v-.11c0-2.06-1.09-3.1-3.28-3.1-.94,0-1.93.19-2.97.56s-1.93.83-2.65,1.39l-2.41-3.49c2.54-1.85,5.45-2.77,8.71-2.77,2.35,0,4.27.59,5.76,1.76s2.23,3.04,2.23,5.58v12.35Zm-5.44-7.38v-.94h-3.38c-2.16,0-3.24.67-3.24,2.02,0,.7.26,1.23.77,1.6.52.37,1.25.56,2.21.56s1.81-.29,2.54-.88,1.1-1.37,1.1-2.36Z"/>
        <path class="cls-5" d="m275.88,39.93c-1.61,0-2.81.57-3.6,1.71s-1.19,2.65-1.19,4.52v8.39h-5.4v-19.37h5.4v2.56c.7-.79,1.57-1.46,2.61-2.02,1.04-.55,2.11-.84,3.19-.86l.04,5.08h-1.04Z"/>
        <path class="cls-5" d="m286.93,39.07v8.68c0,.74.19,1.33.58,1.75.38.42.84.63,1.37.63,1.01,0,1.86-.46,2.56-1.37l2.02,3.78c-1.68,1.54-3.45,2.3-5.31,2.3s-3.43-.61-4.72-1.84c-1.28-1.22-1.93-2.89-1.93-5v-8.93h-2.27v-3.89h2.27v-5.8h5.44v5.8h4.68v3.89h-4.68Z"/>
      </g>
      <g>
        <path class="cls-5" d="m201.16,157.19h-3.37v-7.69h2.99c.52,0,.97.06,1.35.19s.66.29.84.51c.35.4.53.84.53,1.34,0,.6-.19,1.05-.57,1.34-.14.1-.24.17-.29.19-.05.03-.14.07-.28.13.48.1.86.32,1.14.64.28.33.42.73.42,1.22,0,.54-.18,1.01-.55,1.42-.43.48-1.17.71-2.22.71Zm-2.07-4.5h1.65c.94,0,1.41-.32,1.41-.96,0-.37-.11-.63-.34-.79-.23-.16-.58-.24-1.06-.24h-1.66v1.99Zm0,3.3h2.03c.48,0,.84-.08,1.09-.23s.38-.43.38-.85c0-.68-.55-1.02-1.64-1.02h-1.87v2.1Z"/>
        <path class="cls-5" d="m205.46,150.17c-.15-.15-.23-.34-.23-.55s.08-.4.23-.55c.15-.15.34-.23.55-.23s.4.08.55.23.23.34.23.55-.08.4-.23.55c-.15.15-.34.23-.55.23s-.4-.08-.55-.23Zm1.16,7.02h-1.23v-5.85h1.23v5.85Z"/>
        <path class="cls-5" d="m208.39,157.46v-6.13h1.23v6.17c0,.62-.19,1.11-.56,1.47-.37.36-.82.54-1.34.54s-1-.19-1.44-.58l.57-.92c.25.24.5.36.75.36s.45-.08.58-.24c.13-.16.2-.38.2-.67Zm.05-7.29c-.15-.15-.23-.34-.23-.55s.08-.4.23-.55.34-.23.55-.23.4.08.55.23c.15.15.23.34.23.55s-.08.4-.23.55c-.15.15-.34.23-.55.23s-.4-.08-.55-.23Z"/>
        <path class="cls-5" d="m219.87,154.8h-4.59c.03.43.22.77.58,1.03s.77.39,1.23.39c.73,0,1.29-.23,1.67-.69l.7.77c-.63.65-1.45.98-2.46.98-.82,0-1.52-.27-2.1-.82-.58-.55-.86-1.28-.86-2.2s.29-1.65.88-2.19c.59-.54,1.28-.81,2.07-.81s1.47.24,2.03.72.84,1.14.84,1.99v.85Zm-4.59-.97h3.36c0-.49-.15-.87-.46-1.13-.31-.26-.69-.4-1.14-.4s-.86.14-1.22.41-.54.65-.54,1.12Z"/>
        <path class="cls-5" d="m226.66,154.8h-4.59c.03.43.22.77.58,1.03s.77.39,1.23.39c.73,0,1.29-.23,1.67-.69l.7.77c-.63.65-1.45.98-2.46.98-.82,0-1.52-.27-2.1-.82-.58-.55-.86-1.28-.86-2.2s.29-1.65.88-2.19c.59-.54,1.28-.81,2.07-.81s1.47.24,2.03.72.84,1.14.84,1.99v.85Zm-4.59-.97h3.36c0-.49-.15-.87-.46-1.13-.31-.26-.69-.4-1.14-.4s-.86.14-1.22.41-.54.65-.54,1.12Z"/>
        <path class="cls-5" d="m229.25,154.02v3.17h-1.23v-5.85h1.23v1.07c.2-.36.47-.64.82-.85.35-.21.72-.31,1.13-.31.66,0,1.19.2,1.6.61s.61.99.61,1.75v3.59h-1.23v-3.21c0-1.08-.45-1.62-1.34-1.62-.42,0-.8.14-1.11.42-.32.28-.47.7-.47,1.24Z"/>
        <path class="cls-5" d="m239.69,157.19l-2.35-5.85h1.28l1.78,4.42,1.78-4.42h1.28l-2.35,5.85h-1.41Z"/>
        <path class="cls-5" d="m249.22,156.4c-.59.58-1.32.87-2.2.87s-1.61-.29-2.2-.87c-.59-.58-.88-1.3-.88-2.14s.29-1.56.88-2.14,1.32-.88,2.2-.88,1.61.29,2.2.88c.59.58.88,1.3.88,2.14s-.29,1.56-.88,2.14Zm-3.53-.76c.35.36.79.53,1.33.53s.98-.18,1.33-.53.52-.82.52-1.38-.17-1.02-.52-1.38c-.35-.36-.79-.53-1.33-.53s-.98.18-1.33.53c-.35.36-.52.82-.52,1.38s.17,1.02.52,1.38Z"/>
        <path class="cls-5" d="m252.73,157.19h-1.23v-8.16h1.23v8.16Z"/>
        <path class="cls-5" d="m255.75,157.19h-1.23v-8.16h1.23v8.16Z"/>
        <path class="cls-5" d="m262.97,154.8h-4.59c.03.43.22.77.58,1.03s.77.39,1.23.39c.73,0,1.29-.23,1.67-.69l.7.77c-.63.65-1.45.98-2.46.98-.82,0-1.52-.27-2.1-.82-.58-.55-.86-1.28-.86-2.2s.29-1.65.88-2.19,1.28-.81,2.07-.81,1.47.24,2.03.72c.56.48.84,1.14.84,1.99v.85Zm-4.59-.97h3.35c0-.49-.15-.87-.46-1.13-.31-.26-.69-.4-1.14-.4s-.86.14-1.21.41-.54.65-.54,1.12Z"/>
        <path class="cls-5" d="m268.57,157.19h-1.23v-8.16h1.23v4.8l2.38-2.49h1.58l-2.22,2.32,2.39,3.53h-1.5l-1.74-2.56-.89.9v1.66Z"/>
        <path class="cls-5" d="m278.37,157.19h-1.12v-.78c-.48.58-1.13.87-1.95.87-.61,0-1.11-.17-1.51-.52-.4-.34-.6-.8-.6-1.38s.21-1.01.64-1.29c.42-.29,1-.43,1.73-.43h1.6v-.22c0-.78-.43-1.17-1.3-1.17-.54,0-1.11.2-1.69.59l-.55-.77c.71-.56,1.52-.85,2.42-.85.69,0,1.25.17,1.69.52.44.35.65.9.65,1.64v3.77Zm-1.23-2.18v-.49h-1.39c-.89,0-1.33.28-1.33.84,0,.29.11.5.33.65s.53.23.92.23.73-.11,1.03-.33c.29-.22.44-.52.44-.89Z"/>
        <path class="cls-5" d="m284.83,157.19h-1.12v-.78c-.48.58-1.13.87-1.95.87-.61,0-1.11-.17-1.51-.52-.4-.34-.6-.8-.6-1.38s.21-1.01.64-1.29c.42-.29,1-.43,1.73-.43h1.6v-.22c0-.78-.43-1.17-1.3-1.17-.54,0-1.11.2-1.69.59l-.55-.77c.71-.56,1.52-.85,2.42-.85.69,0,1.25.17,1.69.52.44.35.65.9.65,1.64v3.77Zm-1.23-2.18v-.49h-1.39c-.89,0-1.33.28-1.33.84,0,.29.11.5.33.65s.53.23.92.23.73-.11,1.03-.33c.29-.22.44-.52.44-.89Z"/>
        <path class="cls-5" d="m289.62,152.49c-.61,0-1.07.2-1.38.59-.31.4-.46.93-.46,1.59v2.51h-1.23v-5.85h1.23v1.18c.2-.37.47-.67.81-.9.34-.23.7-.36,1.08-.36v1.24h-.05Z"/>
        <path class="cls-5" d="m292.43,152.33v2.97c0,.28.07.5.22.67s.35.25.62.25.52-.13.76-.38l.51.87c-.43.39-.91.58-1.43.58s-.97-.18-1.34-.54-.56-.85-.56-1.47v-2.94h-.74v-.99h.74v-1.84h1.23v1.84h1.54v.99h-1.54Z"/>
        <path class="cls-5" d="m202.51,169.6c-.59.58-1.32.88-2.2.88s-1.61-.29-2.2-.88-.88-1.3-.88-2.14.29-1.56.88-2.14c.59-.58,1.32-.87,2.2-.87s1.61.29,2.2.87c.59.58.88,1.3.88,2.14s-.29,1.56-.88,2.14Zm-3.53-.76c.35.36.79.53,1.33.53s.98-.18,1.33-.53.52-.82.52-1.38-.17-1.03-.52-1.38-.79-.53-1.33-.53-.98.18-1.33.53c-.35.36-.52.82-.52,1.38s.17,1.02.52,1.38Z"/>
        <path class="cls-5" d="m206.02,167.22v3.17h-1.23v-5.85h1.23v1.07c.2-.36.47-.64.82-.85.35-.21.72-.31,1.13-.31.66,0,1.19.2,1.6.6.41.4.61.99.61,1.75v3.59h-1.23v-3.21c0-1.08-.45-1.62-1.34-1.62-.43,0-.8.14-1.11.42-.32.28-.47.7-.47,1.24Z"/>
        <path class="cls-5" d="m213.33,165.53v2.97c0,.28.07.5.22.67.15.16.35.25.62.25s.52-.13.76-.38l.51.87c-.43.39-.91.58-1.44.58s-.97-.18-1.34-.54-.56-.85-.56-1.47v-2.94h-.74v-.99h.74v-1.84h1.23v1.84h1.54v.99h-1.54Z"/>
        <path class="cls-5" d="m217.96,170.39l-2.35-5.85h1.28l1.78,4.42,1.78-4.42h1.28l-2.35,5.85h-1.41Z"/>
        <path class="cls-5" d="m227.37,170.39h-1.12v-.78c-.48.58-1.13.87-1.95.87-.61,0-1.11-.17-1.51-.52-.4-.34-.6-.8-.6-1.38s.21-1.01.64-1.29c.43-.29,1-.43,1.73-.43h1.59v-.22c0-.78-.43-1.17-1.3-1.17-.54,0-1.11.2-1.69.59l-.55-.77c.71-.56,1.52-.85,2.42-.85.69,0,1.25.17,1.69.52s.65.9.65,1.64v3.77Zm-1.23-2.18v-.5h-1.39c-.89,0-1.33.28-1.33.84,0,.29.11.5.33.65.22.15.53.23.92.23s.74-.11,1.03-.33c.29-.22.44-.52.44-.89Z"/>
        <path class="cls-5" d="m230.32,167.22v3.17h-1.23v-5.85h1.23v1.07c.2-.36.47-.64.82-.85.35-.21.72-.31,1.13-.31.66,0,1.19.2,1.6.6.41.4.61.99.61,1.75v3.59h-1.23v-3.21c0-1.08-.45-1.62-1.34-1.62-.42,0-.8.14-1.11.42-.32.28-.47.7-.47,1.24Z"/>
        <path class="cls-5" d="m241.6,164.54v5.1c0,1.03-.28,1.81-.84,2.33-.56.52-1.28.78-2.16.78s-1.68-.28-2.39-.83l.58-.93c.57.43,1.15.65,1.73.65s1.04-.15,1.39-.45.51-.78.51-1.44v-.75c-.18.34-.45.62-.79.83-.34.21-.72.31-1.15.31-.78,0-1.42-.27-1.91-.81-.5-.54-.75-1.22-.75-2.02s.25-1.48.75-2.02c.5-.54,1.13-.81,1.91-.81s1.4.32,1.89.96v-.87h1.23Zm-4.57,2.7c0,.48.15.89.45,1.24s.7.52,1.2.52.91-.17,1.22-.51c.31-.34.47-.76.47-1.26s-.16-.93-.47-1.28c-.32-.35-.72-.52-1.22-.52s-.9.18-1.19.54c-.3.36-.45.78-.45,1.26Z"/>
        <path class="cls-5" d="m246.4,170.66v-6.13h1.23v6.17c0,.62-.19,1.11-.56,1.47s-.82.54-1.34.54-1-.2-1.44-.58l.57-.92c.25.24.5.36.75.36s.45-.08.58-.24c.13-.16.2-.38.2-.67Zm.05-7.29c-.15-.15-.23-.34-.23-.55s.08-.4.23-.55c.15-.15.34-.23.55-.23s.4.08.55.23.23.34.23.55-.08.4-.23.55c-.15.15-.34.23-.55.23s-.4-.08-.55-.23Z"/>
        <path class="cls-5" d="m254.86,168h-4.59c.03.43.22.77.58,1.03.36.26.77.39,1.23.39.73,0,1.29-.23,1.67-.69l.7.77c-.63.65-1.45.98-2.46.98-.82,0-1.52-.27-2.1-.82-.58-.55-.86-1.28-.86-2.2s.29-1.65.88-2.2c.59-.54,1.28-.81,2.07-.81s1.47.24,2.03.72c.56.48.84,1.14.84,1.99v.85Zm-4.59-.97h3.36c0-.49-.15-.87-.46-1.13-.31-.26-.69-.4-1.14-.4s-.86.14-1.22.41c-.36.28-.54.65-.54,1.12Z"/>
        <path class="cls-5" d="m264.67,168h-4.59c.03.43.22.77.58,1.03.36.26.77.39,1.23.39.73,0,1.29-.23,1.67-.69l.7.77c-.63.65-1.45.98-2.46.98-.82,0-1.52-.27-2.1-.82-.58-.55-.86-1.28-.86-2.2s.29-1.65.88-2.2c.59-.54,1.28-.81,2.07-.81s1.47.24,2.03.72c.56.48.84,1.14.84,1.99v.85Zm-4.59-.97h3.36c0-.49-.15-.87-.46-1.13-.31-.26-.69-.4-1.14-.4s-.86.14-1.22.41c-.36.28-.54.65-.54,1.12Zm2.39-3.27h-1.12l1.17-1.59,1.3.54-1.34,1.06Z"/>
        <path class="cls-5" d="m271.47,168h-4.59c.03.43.22.77.58,1.03.36.26.77.39,1.23.39.73,0,1.29-.23,1.67-.69l.7.77c-.63.65-1.45.98-2.46.98-.82,0-1.52-.27-2.1-.82-.58-.55-.86-1.28-.86-2.2s.29-1.65.88-2.2c.59-.54,1.28-.81,2.07-.81s1.47.24,2.03.72c.56.48.84,1.14.84,1.99v.85Zm-4.59-.97h3.36c0-.49-.15-.87-.46-1.13-.31-.26-.69-.4-1.14-.4s-.86.14-1.22.41c-.36.28-.54.65-.54,1.12Zm2.39-3.27h-1.12l1.17-1.59,1.3.54-1.34,1.06Z"/>
        <path class="cls-5" d="m274.05,167.22v3.17h-1.23v-5.85h1.23v1.07c.2-.36.47-.64.82-.85.35-.21.72-.31,1.13-.31.66,0,1.19.2,1.6.6.41.4.61.99.61,1.75v3.59h-1.23v-3.21c0-1.08-.45-1.62-1.34-1.62-.42,0-.8.14-1.11.42-.32.28-.47.7-.47,1.24Z"/>
        <path class="cls-5" d="m284.49,170.39l-2.35-5.85h1.28l1.78,4.42,1.78-4.42h1.28l-2.35,5.85h-1.41Z"/>
        <path class="cls-5" d="m293.89,170.39h-1.12v-.78c-.48.58-1.13.87-1.95.87-.61,0-1.11-.17-1.51-.52-.4-.34-.6-.8-.6-1.38s.21-1.01.64-1.29c.43-.29,1-.43,1.73-.43h1.59v-.22c0-.78-.43-1.17-1.3-1.17-.54,0-1.11.2-1.69.59l-.55-.77c.71-.56,1.52-.85,2.42-.85.69,0,1.25.17,1.69.52s.65.9.65,1.64v3.77Zm-1.23-2.18v-.5h-1.39c-.89,0-1.33.28-1.33.84,0,.29.11.5.33.65.22.15.53.23.92.23s.74-.11,1.03-.33c.29-.22.44-.52.44-.89Z"/>
        <path class="cls-5" d="m296.84,167.22v3.17h-1.23v-5.85h1.23v1.07c.2-.36.47-.64.82-.85.35-.21.72-.31,1.13-.31.66,0,1.19.2,1.6.6.41.4.61.99.61,1.75v3.59h-1.23v-3.21c0-1.08-.45-1.62-1.34-1.62-.42,0-.8.14-1.11.42-.32.28-.47.7-.47,1.24Z"/>
        <path class="cls-5" d="m310.63,169.6c-.59.58-1.32.88-2.2.88s-1.61-.29-2.2-.88-.88-1.3-.88-2.14.29-1.56.88-2.14c.59-.58,1.32-.87,2.2-.87s1.61.29,2.2.87c.59.58.88,1.3.88,2.14s-.29,1.56-.88,2.14Zm-3.53-.76c.35.36.79.53,1.33.53s.98-.18,1.33-.53.52-.82.52-1.38-.17-1.03-.52-1.38-.79-.53-1.33-.53-.98.18-1.33.53c-.35.36-.52.82-.52,1.38s.17,1.02.52,1.38Z"/>
        <path class="cls-5" d="m314.13,167.22v3.17h-1.23v-5.85h1.23v1.07c.2-.36.47-.64.82-.85.35-.21.72-.31,1.13-.31.66,0,1.19.2,1.6.6.41.4.61.99.61,1.75v3.59h-1.23v-3.21c0-1.08-.45-1.62-1.34-1.62-.43,0-.8.14-1.11.42-.32.28-.47.7-.47,1.24Z"/>
        <path class="cls-5" d="m319.82,165.61v-1.06h4.58v1.11l-3.29,3.65h3.46v1.07h-4.97v-1.2l3.2-3.58h-2.98Z"/>
        <path class="cls-5" d="m331.4,168h-4.59c.03.43.22.77.58,1.03.36.26.77.39,1.23.39.73,0,1.29-.23,1.67-.69l.7.77c-.63.65-1.45.98-2.46.98-.82,0-1.52-.27-2.1-.82-.58-.55-.86-1.28-.86-2.2s.29-1.65.88-2.2c.59-.54,1.28-.81,2.07-.81s1.47.24,2.03.72c.56.48.84,1.14.84,1.99v.85Zm-4.59-.97h3.35c0-.49-.15-.87-.46-1.13-.31-.26-.69-.4-1.14-.4s-.86.14-1.21.41c-.36.28-.54.65-.54,1.12Z"/>
        <path class="cls-5" d="m199.87,183.68c-.7,0-1.33-.3-1.88-.89-.55-.59-.82-1.33-.82-2.21s.27-1.6.8-2.16,1.16-.84,1.88-.84,1.31.25,1.76.76v-2.9h1.65v8.16h-1.65v-.78c-.46.58-1.04.87-1.74.87Zm-1.04-3.04c0,.48.14.87.43,1.17.29.3.62.46,1,.46s.71-.15.97-.46c.27-.3.4-.7.4-1.18s-.13-.88-.4-1.2c-.27-.32-.6-.48-.99-.48s-.72.16-1,.48c-.28.32-.42.72-.42,1.2Z"/>
        <path class="cls-5" d="m208.65,180.86v-3.19h1.66v5.92h-1.66v-.78c-.41.58-.94.87-1.59.87s-1.19-.2-1.63-.61c-.44-.41-.66-1.01-.66-1.81v-3.59h1.66v3.22c0,.91.33,1.36,1,1.36.33,0,.62-.12.86-.36s.36-.59.36-1.04Z"/>
        <path class="cls-5" d="m215.69,180.86v-3.19h1.66v5.92h-1.66v-.78c-.41.58-.94.87-1.59.87s-1.19-.2-1.63-.61c-.44-.41-.66-1.01-.66-1.81v-3.59h1.66v3.22c0,.91.33,1.36,1,1.36.33,0,.62-.12.86-.36s.36-.59.36-1.04Z"/>
        <path class="cls-5" d="m222.02,179.12c-.49,0-.86.17-1.1.52-.24.35-.36.81-.36,1.38v2.56h-1.65v-5.92h1.65v.78c.21-.24.48-.45.8-.62.32-.17.64-.26.97-.26v1.55s-.31,0-.31,0Z"/>
        <path class="cls-5" d="m223.32,179.03v-1.36h4.77v1.29l-2.87,3.26h3.04v1.38h-5.15v-1.36l2.79-3.19h-2.58Z"/>
        <path class="cls-5" d="m234.54,183.59h-1.55v-.71c-.43.54-.95.8-1.58.8s-1.15-.18-1.58-.54c-.42-.36-.64-.85-.64-1.45s.22-1.06.66-1.36c.44-.3,1.04-.45,1.8-.45h1.23v-.03c0-.63-.33-.95-1-.95-.29,0-.59.06-.91.17-.32.11-.59.25-.81.42l-.74-1.07c.78-.56,1.66-.85,2.66-.85.72,0,1.3.18,1.76.54.45.36.68.93.68,1.71v3.77Zm-1.66-2.25v-.29h-1.03c-.66,0-.99.21-.99.62,0,.21.08.38.24.49.16.11.38.17.68.17s.55-.09.78-.27c.22-.18.33-.42.33-.72Z"/>
        <path class="cls-5" d="m241.48,180.4v3.19h-1.66v-3.23c0-.47-.07-.81-.21-1.03-.14-.22-.37-.33-.69-.33s-.6.12-.85.36c-.25.24-.37.59-.37,1.05v3.19h-1.65v-5.92h1.65v.67c.45-.51.97-.77,1.56-.77.37,0,.71.11,1.02.33s.53.49.69.8c.23-.36.53-.64.92-.84.38-.2.77-.3,1.16-.3.7,0,1.26.21,1.68.62.43.41.64,1.01.64,1.8v3.6h-1.66v-3.23c0-.91-.33-1.36-1-1.36-.33,0-.62.12-.86.36s-.36.59-.36,1.05Z"/>
        <path class="cls-5" d="m251.99,182.73c-.67.63-1.45.95-2.35.95s-1.64-.28-2.23-.83c-.59-.55-.88-1.3-.88-2.23s.3-1.67.9-2.22c.6-.55,1.3-.83,2.12-.83s1.5.25,2.07.74.85,1.17.85,2.02v.88h-4.31c.05.32.22.59.51.79.29.21.61.31.97.31.58,0,1.06-.19,1.43-.58l.92,1Zm-1.58-3.51c-.23-.19-.5-.29-.83-.29s-.62.1-.9.3c-.27.2-.43.47-.47.8h2.6c-.04-.35-.17-.62-.4-.81Z"/>
        <path class="cls-5" d="m259.92,177.65c.79,0,1.46.27,2.01.81.56.54.84,1.26.84,2.17s-.28,1.64-.83,2.2c-.55.56-1.2.85-1.94.85s-1.4-.32-1.99-.97v3.01h-1.23v-7.99h1.23v1.02c.48-.74,1.12-1.11,1.9-1.11Zm-1.92,3.03c0,.56.17,1.01.51,1.37.34.36.75.53,1.23.53s.91-.18,1.26-.53c.36-.35.54-.81.54-1.37s-.18-1.03-.53-1.4c-.35-.37-.77-.55-1.27-.55s-.91.19-1.24.55c-.34.37-.51.83-.51,1.39Z"/>
        <path class="cls-5" d="m267.24,178.89c-.61,0-1.07.2-1.38.59-.31.4-.46.93-.46,1.59v2.51h-1.23v-5.85h1.23v1.18c.2-.37.47-.67.81-.9s.7-.36,1.08-.36v1.24h-.06Z"/>
        <path class="cls-5" d="m273.33,182.8c-.59.58-1.32.87-2.2.87s-1.61-.29-2.2-.87c-.59-.58-.88-1.3-.88-2.14s.29-1.56.88-2.14c.59-.58,1.32-.88,2.2-.88s1.61.29,2.2.88c.59.58.88,1.3.88,2.14s-.29,1.56-.88,2.14Zm-3.53-.76c.35.36.79.53,1.33.53s.98-.18,1.33-.53c.35-.36.52-.82.52-1.38s-.17-1.02-.52-1.38c-.35-.36-.79-.53-1.33-.53s-.98.18-1.33.53c-.35.36-.52.82-.52,1.38s.17,1.03.52,1.38Z"/>
        <path class="cls-5" d="m276.05,182.84c-.55-.56-.82-1.29-.82-2.2s.28-1.63.85-2.18,1.24-.81,2.02-.81,1.41.33,1.89.99v-3.21h1.23v8.16h-1.23v-.88c-.46.64-1.12.97-1.99.97-.74,0-1.39-.28-1.94-.84Zm.41-2.15c0,.56.18,1.02.54,1.37s.78.53,1.27.53.89-.18,1.23-.53c.34-.36.51-.81.51-1.37s-.17-1.02-.51-1.4c-.34-.37-.75-.56-1.24-.56s-.91.19-1.26.56c-.35.38-.53.84-.53,1.4Z"/>
        <path class="cls-5" d="m287.09,180.91v-3.17h1.23v5.85h-1.23v-1.07c-.2.36-.47.64-.82.85-.35.21-.72.31-1.13.31-.66,0-1.19-.2-1.6-.6-.41-.4-.61-.99-.61-1.75v-3.59h1.23v3.21c0,1.08.45,1.62,1.34,1.62.43,0,.8-.14,1.11-.42.32-.28.47-.7.47-1.24Z"/>
        <path class="cls-5" d="m292.7,183.68c-.81,0-1.51-.28-2.1-.83-.59-.55-.88-1.28-.88-2.17s.31-1.62.92-2.18c.61-.56,1.36-.84,2.24-.84s1.62.3,2.23.91l-.73.89c-.51-.44-1.02-.66-1.53-.66s-.96.17-1.34.51-.57.78-.57,1.32.19,1,.56,1.37.83.56,1.38.56,1.06-.25,1.55-.75l.73.79c-.71.72-1.53,1.08-2.46,1.08Z"/>
        <path class="cls-5" d="m297.95,178.73v2.97c0,.28.07.5.22.67.15.17.35.25.62.25s.52-.13.76-.38l.51.87c-.43.39-.91.58-1.43.58s-.97-.18-1.34-.54c-.37-.36-.56-.85-.56-1.47v-2.94h-.74v-.99h.74v-1.84h1.23v1.84h1.54v.99h-1.54Z"/>
        <path class="cls-5" d="m306.48,181.2h-4.59c.03.43.22.77.58,1.03.36.26.77.39,1.23.39.73,0,1.29-.23,1.67-.69l.7.77c-.63.65-1.45.98-2.46.98-.82,0-1.52-.27-2.1-.82-.58-.55-.86-1.28-.86-2.2s.29-1.65.88-2.19,1.28-.81,2.07-.81,1.47.24,2.03.72c.56.48.84,1.14.84,1.99v.85Zm-4.59-.97h3.35c0-.49-.15-.87-.46-1.13-.31-.26-.69-.4-1.14-.4s-.86.14-1.21.41-.54.65-.54,1.12Z"/>
        <path class="cls-5" d="m309.06,180.42v3.17h-1.23v-5.85h1.23v1.07c.2-.36.47-.64.82-.85.35-.21.72-.31,1.13-.31.66,0,1.19.2,1.6.61.41.4.61.99.61,1.75v3.59h-1.23v-3.21c0-1.08-.45-1.62-1.34-1.62-.43,0-.8.14-1.11.42-.32.28-.47.69-.47,1.24Z"/>
        <path class="cls-5" d="m196.72,184.69v-.55h56.15v.55h-56.15Z"/>
      </g>
    </g>
    <g>
      <g>
        <path class="cls-3" d="m98.7,96.86h0m0,0l-4.4,20.79h-15.41l-4.38-20.79h24.2m0-7h-24.21c-2.11,0-4.11.95-5.44,2.59s-1.85,3.79-1.41,5.85l4.38,20.79c.68,3.24,3.54,5.56,6.85,5.56h15.41c3.31,0,6.16-2.31,6.85-5.55l4.36-20.56c.13-.54.2-1.1.2-1.68,0-3.87-3.13-7-7-7h0Zm0,14h0,0Z"/>
        <path class="cls-3" d="m98.07,102.46h-4.8l.36-6.25h-3.27l.14,6.83h-2.91l-.74-7.49h-2.6l.07,7.31-2.76-.58.15-6.14-2.33.73v5.45h-3.75l.69,3.27h3.06v4.87h-2.33l.45,2.76h1.87v5.02h2.47v-5.02h3.49v5.02h1.82v-5.09h3.78l.07,5.09h2.11v-5.16l3.42-.07v-2.47l-3.2.22-.07-4.94h4.8v-3.34Zm-16.5,8.14l.18-5.23,2.98.44.15,4.8h-3.31Zm5.78.16l.03-4.92h3.45l-.04,4.92h-3.45Z"/>
      </g>
      <g>
        <path class="cls-3" d="m170.62,97.22h0m0,0l-4.4,20.79h-15.41l-4.38-20.79h24.2m0-7h-24.21c-2.11,0-4.11.95-5.44,2.59s-1.85,3.79-1.41,5.85l4.38,20.79c.68,3.24,3.54,5.56,6.85,5.56h15.41c3.31,0,6.16-2.31,6.85-5.55l4.36-20.56c.13-.54.2-1.1.2-1.68,0-3.87-3.13-7-7-7h0Zm0,14h0,0Z"/>
        <path class="cls-3" d="m170,102.82h-4.8l.36-6.25h-3.27l.14,6.83h-2.91l-.74-7.49h-2.6l.07,7.31-2.76-.58.15-6.14-2.33.73v5.45h-3.75l.69,3.27h3.06v4.87h-2.33l.45,2.76h1.87v5.02h2.47v-5.02h3.49v5.02h1.82v-5.09h3.78l.07,5.09h2.11v-5.16l3.42-.07v-2.47l-3.2.22-.07-4.94h4.8v-3.34Zm-16.5,8.14l.18-5.23,2.98.44.15,4.8h-3.31Zm5.78.16l.03-4.92h3.45l-.04,4.92h-3.45Z"/>
      </g>
      <g>
        <path class="cls-3" d="m243.3,96.86h0m0,0l-4.4,20.79h-15.41l-4.38-20.79h24.2m0-7h-24.21c-2.11,0-4.11.95-5.44,2.59s-1.85,3.79-1.41,5.85l4.38,20.79c.68,3.24,3.54,5.56,6.85,5.56h15.41c3.31,0,6.16-2.31,6.85-5.55l4.36-20.56c.13-.54.2-1.1.2-1.68,0-3.87-3.13-7-7-7h0Zm0,14h0,0Z"/>
        <path class="cls-3" d="m242.68,102.46h-4.8l.36-6.25h-3.27l.14,6.83h-2.91l-.74-7.49h-2.6l.07,7.31-2.76-.58.15-6.14-2.33.73v5.45h-3.75l.69,3.27h3.06v4.87h-2.33l.45,2.76h1.87v5.02h2.47v-5.02h3.49v5.02h1.82v-5.09h3.78l.07,5.09h2.11v-5.16l3.42-.07v-2.47l-3.2.22-.07-4.94h4.8v-3.34Zm-16.5,8.14l.18-5.23,2.98.44.15,4.8h-3.31Zm5.78.16l.03-4.92h3.45l-.04,4.92h-3.45Z"/>
      </g>
      <g>
        <path class="cls-3" d="m315.23,97.22h0m0,0l-4.4,20.79h-15.41l-4.38-20.79h24.2m0-7h-24.21c-2.11,0-4.11.95-5.44,2.59s-1.85,3.79-1.41,5.85l4.38,20.79c.68,3.24,3.54,5.56,6.85,5.56h15.41c3.31,0,6.16-2.31,6.85-5.55l4.36-20.56c.13-.54.2-1.1.2-1.68,0-3.87-3.13-7-7-7h0Zm0,14h0,0Z"/>
        <path class="cls-3" d="m314.6,102.82h-4.8l.36-6.25h-3.27l.14,6.83h-2.91l-.74-7.49h-2.6l.07,7.31-2.76-.58.15-6.14-2.33.73v5.45h-3.75l.69,3.27h3.06v4.87h-2.33l.45,2.76h1.87v5.02h2.47v-5.02h3.49v5.02h1.82v-5.09h3.78l.07,5.09h2.11v-5.16l3.42-.07v-2.47l-3.2.22-.07-4.94h4.8v-3.34Zm-16.5,8.14l.18-5.23,2.98.44.15,4.8h-3.31Zm5.78.16l.03-4.92h3.45l-.04,4.92h-3.45Z"/>
      </g>
      <g>
        <path class="cls-3" d="m98.7,160.37h0m0,0l-4.4,20.79h-15.41l-4.38-20.79h24.2m0-7h-24.21c-2.11,0-4.11.95-5.44,2.59s-1.85,3.79-1.41,5.85l4.38,20.79c.68,3.24,3.54,5.56,6.85,5.56h15.41c3.31,0,6.16-2.31,6.85-5.55l4.36-20.56c.13-.54.2-1.1.2-1.68,0-3.87-3.13-7-7-7h0Zm0,14h0,0Z"/>
        <path class="cls-3" d="m98.07,165.97h-4.8l.36-6.25h-3.27l.14,6.83h-2.91l-.74-7.49h-2.6l.07,7.31-2.76-.58.15-6.14-2.33.73v5.45h-3.75l.69,3.27h3.06v4.87h-2.33l.45,2.76h1.87v5.02h2.47v-5.02h3.49v5.02h1.82v-5.09h3.78l.07,5.09h2.11v-5.16l3.42-.07v-2.47l-3.2.22-.07-4.94h4.8v-3.34Zm-16.5,8.14l.18-5.23,2.98.44.15,4.8h-3.31Zm5.78.16l.03-4.92h3.45l-.04,4.92h-3.45Z"/>
      </g>
      <g>
        <path class="cls-3" d="m170.62,160.74h0m0,0l-4.4,20.79h-15.41l-4.38-20.79h24.2m0-7h-24.21c-2.11,0-4.11.95-5.44,2.59s-1.85,3.79-1.41,5.85l4.38,20.79c.68,3.24,3.54,5.56,6.85,5.56h15.41c3.31,0,6.16-2.31,6.85-5.55l4.36-20.56c.13-.54.2-1.1.2-1.68,0-3.87-3.13-7-7-7h0Zm0,14h0,0Z"/>
        <path class="cls-3" d="m170,166.33h-4.8l.36-6.25h-3.27l.14,6.83h-2.91l-.74-7.49h-2.6l.07,7.31-2.76-.58.15-6.14-2.33.73v5.45h-3.75l.69,3.27h3.06v4.87h-2.33l.45,2.76h1.87v5.02h2.47v-5.02h3.49v5.02h1.82v-5.09h3.78l.07,5.09h2.11v-5.16l3.42-.07v-2.47l-3.2.22-.07-4.94h4.8v-3.34Zm-16.5,8.14l.18-5.23,2.98.44.15,4.8h-3.31Zm5.78.16l.03-4.92h3.45l-.04,4.92h-3.45Z"/>
      </g>
    </g>
    <g>
      <g>
        <path class="cls-2" d="m149.53,102.7c-.7,0-1.32-.49-1.47-1.19l-1.29-6.18-7.61-.87c-.75-.08-1.31-.71-1.33-1.46l-.33-15c0-.43.16-.84.48-1.13.28-.26.65-.4,1.02-.4.04,0,.09,0,.13,0l8.43.76.69-8.67c.06-.78.72-1.38,1.49-1.38.03,0,18.46,1.09,18.46,1.09.78.05,1.39.68,1.41,1.47l.22,10.65,8-1.24c.08-.01.16-.02.23-.02.72,0,1.36.52,1.48,1.26l1.5,9.2c.1.62-.2,1.24-.74,1.55l-7.7,4.36.67,3.79c.07.42-.03.85-.29,1.18-.26.33-.65.54-1.07.57l-22.25,1.65s-.07,0-.11,0Z"/>
        <path class="cls-3" d="m149.74,68.68l18.37,1.09.26,12.37,9.69-1.51,1.5,9.2-8.62,4.88.85,4.84-10.62.79-11.63.86-1.51-7.24-8.69-.99-.34-15,9.94.9.81-10.19m0-3c-1.55,0-2.86,1.19-2.99,2.76l-.57,7.16-6.92-.63c-.09,0-.18-.01-.27-.01-.76,0-1.49.29-2.05.81-.62.58-.97,1.41-.95,2.26l.34,15c.03,1.5,1.17,2.74,2.66,2.91l6.53.75,1.07,5.12c.29,1.4,1.53,2.39,2.93,2.39.07,0,.15,0,.22,0l11.63-.86,10.62-.79c.85-.06,1.62-.48,2.15-1.15.52-.67.73-1.53.59-2.36l-.48-2.75,6.78-3.84c1.09-.62,1.68-1.85,1.48-3.09l-1.5-9.2c-.24-1.47-1.51-2.52-2.96-2.52-.15,0-.31.01-.46.04l-6.3.98-.19-8.94c-.03-1.56-1.26-2.84-2.82-2.93l-18.37-1.09c-.06,0-.12,0-.18,0h0Z"/>
      </g>
      <polygon class="cls-3" points="139 89.25 151.65 90.95 153.87 96.85 168.54 95.93 168.54 90.43 179.56 88.2 179.56 89.83 170.94 94.71 171.79 99.55 149.53 101.2 148.02 93.96 139.33 92.97 139 89.25"/>
    </g>
    <g>
      <g>
        <path class="cls-2" d="m77.61,102.7c-.7,0-1.32-.49-1.47-1.19l-1.29-6.18-7.61-.87c-.75-.08-1.31-.71-1.33-1.46l-.34-15c0-.43.16-.84.48-1.13.28-.26.65-.4,1.02-.4.04,0,.09,0,.13,0l8.43.76.69-8.67c.06-.78.72-1.38,1.49-1.38.03,0,18.46,1.09,18.46,1.09.78.05,1.39.68,1.41,1.47l.22,10.65,8-1.24c.08-.01.16-.02.23-.02.72,0,1.36.52,1.48,1.26l1.5,9.2c.1.62-.2,1.24-.74,1.55l-7.7,4.36.67,3.79c.07.42-.03.85-.29,1.18-.26.33-.65.54-1.07.57l-22.25,1.65s-.07,0-.11,0Z"/>
        <path class="cls-3" d="m77.82,68.68l18.37,1.09.26,12.37,9.69-1.51,1.5,9.2-8.62,4.88.85,4.84-10.62.79-11.63.86-1.51-7.24-8.69-.99-.34-15,9.94.9.81-10.19m0-3c-1.55,0-2.86,1.19-2.99,2.76l-.57,7.16-6.92-.63c-.09,0-.18-.01-.27-.01-.76,0-1.49.29-2.05.81-.62.58-.97,1.41-.95,2.26l.34,15c.03,1.5,1.17,2.74,2.66,2.91l6.53.75,1.07,5.12c.29,1.4,1.53,2.39,2.93,2.39.07,0,.15,0,.22,0l11.63-.86,10.62-.79c.85-.06,1.62-.48,2.15-1.15s.73-1.53.59-2.36l-.48-2.75,6.78-3.84c1.09-.62,1.68-1.85,1.48-3.09l-1.5-9.2c-.24-1.47-1.51-2.52-2.96-2.52-.15,0-.31.01-.46.04l-6.3.98-.19-8.94c-.03-1.56-1.26-2.84-2.82-2.93l-18.37-1.09c-.06,0-.12,0-.18,0h0Z"/>
      </g>
      <polygon class="cls-3" points="67.07 89.25 79.73 90.95 81.95 96.85 96.62 95.93 96.62 90.43 107.64 88.2 107.64 89.83 99.01 94.71 99.86 99.55 77.61 101.2 76.1 93.96 67.41 92.97 67.07 89.25"/>
    </g>
  </g>
  <g id="Landingspagina_" data-name="Landingspagina\">
    <g>
      <g>
        <path class="cls-3" d="m46.52,49.58l3.94,11.29-10.81-2.67-2.31-8.54,9.18-.08m0-2h-.02l-9.18.08c-.62,0-1.2.3-1.58.79s-.5,1.13-.34,1.73l2.31,8.54c.19.7.75,1.25,1.45,1.42l10.81,2.67c.16.04.32.06.48.06.56,0,1.1-.23,1.48-.65.49-.54.65-1.31.41-2.01l-3.94-11.29c-.28-.8-1.04-1.34-1.89-1.34h0Z"/>
        <line class="cls-1" x1="37.34" y1="49.66" x2="43.83" y2="54.85"/>
      </g>
      <polygon class="cls-3" points="36.14 49.66 34.33 53.41 36.7 61.83 49.31 64.07 50.46 62.11 39.65 58.2 36.14 49.66"/>
    </g>
    <g>
      <g>
        <path class="cls-3" d="m64.11,27.84l9.18.08-2.31,8.54-10.81,2.67,3.94-11.29m0-2c-.85,0-1.61.54-1.89,1.34l-3.94,11.29c-.24.69-.08,1.46.41,2.01.38.42.92.65,1.48.65.16,0,.32-.02.48-.06l10.81-2.67c.71-.17,1.26-.72,1.45-1.42l2.31-8.54c.16-.6.04-1.24-.34-1.73s-.96-.79-1.58-.79l-9.18-.08h-.02Z"/>
        <line class="cls-1" x1="73.29" y1="27.92" x2="66.81" y2="33.11"/>
      </g>
      <polygon class="cls-3" points="74.49 27.92 76.31 31.67 73.93 40.09 61.32 42.33 60.17 40.37 70.98 36.46 74.49 27.92"/>
    </g>
    <g>
      <g>
        <path class="cls-3" d="m321.67,140.15l3.94,11.29-10.81-2.67-2.31-8.54,9.18-.08m0-2h-.02l-9.18.08c-.62,0-1.2.3-1.58.79s-.5,1.13-.34,1.73l2.31,8.54c.19.7.75,1.25,1.45,1.42l10.81,2.67c.16.04.32.06.48.06.56,0,1.1-.23,1.48-.65.49-.54.65-1.31.41-2.01l-3.94-11.29c-.28-.8-1.04-1.34-1.89-1.34h0Z"/>
        <line class="cls-1" x1="312.49" y1="140.24" x2="318.98" y2="145.43"/>
      </g>
      <polygon class="cls-3" points="311.29 140.24 309.48 143.99 311.85 152.41 324.46 154.65 325.61 152.69 314.8 148.77 311.29 140.24"/>
    </g>
    <g>
      <g>
        <path class="cls-3" d="m333.96,178.47l9.18.08-2.31,8.54-10.81,2.67,3.94-11.29m0-2c-.85,0-1.61.54-1.89,1.34l-3.94,11.29c-.24.69-.08,1.46.41,2.01.38.42.92.65,1.48.65.16,0,.32-.02.48-.06l10.81-2.67c.71-.17,1.26-.72,1.45-1.42l2.31-8.54c.16-.6.04-1.24-.34-1.73s-.96-.79-1.58-.79l-9.18-.08h-.02Z"/>
        <line class="cls-1" x1="343.14" y1="178.56" x2="336.66" y2="183.75"/>
      </g>
      <polygon class="cls-3" points="344.34 178.56 346.16 182.31 343.78 190.73 331.17 192.97 330.02 191.01 340.83 187.1 344.34 178.56"/>
    </g>
  </g>
</svg>