<?xml version="1.0" encoding="UTF-8"?>
<svg id="Laag_2" data-name="Laag 2" xmlns="http://www.w3.org/2000/svg" viewBox="0 0 71.62 65.87">
  <defs>
    <style>
      .cls-1 {
        fill: #a42b23;
      }

      .cls-1, .cls-2, .cls-3 {
        stroke-width: 0px;
      }

      .cls-2 {
        fill: #3f6538;
      }

      .cls-3 {
        fill: #000c00;
      }
    </style>
  </defs>
  <g id="Landingspagina_" data-name="Landingspagina\">
    <g>
      <polygon class="cls-1" points="42.21 16.94 21.29 12.54 7.19 37.36 35.15 61.94 68.61 48.81 64.9 23 46.13 16.94 42.21 16.94"/>
      <path class="cls-3" d="m22.11,14.49l32.64,5.46,8.54,4.34,5.32,24.51-33.2,9.95-26.1-23.39,12.79-20.87m0-3c-1.03,0-2.01.53-2.56,1.43l-12.79,20.87c-.76,1.24-.52,2.83.56,3.8l26.1,23.39c.56.5,1.27.77,2,.77.29,0,.58-.04.86-.13l33.2-9.95c1.5-.45,2.4-1.98,2.07-3.51l-5.32-24.51c-.19-.88-.77-1.63-1.57-2.04l-8.54-4.34c-.27-.14-.56-.23-.86-.28l-32.64-5.46c-.17-.03-.33-.04-.5-.04h0Z"/>
      <polygon class="cls-2" points="58.95 31.73 53.42 16.94 60.75 8.48 51.97 10.4 47.21 13.2 47.95 2.18 37.9 2.6 38.96 12.54 26.24 3.85 33.9 16.23 20.45 24.03 29.18 24.87 41.51 22.4 58.95 31.73"/>
      <path class="cls-3" d="m46.48,3l-1.54,12.61,14.01-6.44-8.12,8.12,7,13.6-14.15-9.81-21.57,2.8,14.05-7.14-8.31-11.49,12.68,9.67-1.19-11.07,7.14-.84m0-3c-.12,0-.23,0-.35.02l-7.14.84c-1.63.19-2.81,1.66-2.63,3.3l.44,4.13-7.13-5.44c-.54-.41-1.18-.61-1.82-.61-.76,0-1.52.29-2.1.85-1.07,1.04-1.21,2.7-.34,3.91l6.25,8.64-10.93,5.55c-1.3.66-1.94,2.16-1.51,3.56.39,1.27,1.56,2.11,2.86,2.11.13,0,.26,0,.39-.03l20.43-2.65,13.2,9.16c.52.36,1.11.54,1.71.54.71,0,1.42-.25,1.98-.74,1.04-.91,1.32-2.4.69-3.63l-6-11.65,6.58-6.58c1.03-1.03,1.17-2.64.34-3.84-.58-.83-1.51-1.29-2.46-1.29-.42,0-.85.09-1.25.27l-9.12,4.2.89-7.27c.11-.91-.2-1.83-.85-2.48-.57-.57-1.33-.88-2.13-.88h0Zm0,6h0,0Z"/>
      <polygon class="cls-3" points="25.96 5.91 24.84 9.84 17.93 8.25 0 38.13 32.12 65.87 53.79 60.08 58.95 52.98 35.42 58.75 9.32 35.36 21.29 12.54 32.31 14.49 25.96 5.91"/>
      <path class="cls-3" d="m36.92,3.85l-4.1,3.01s4.45,3.57,4.62,3.54-.53-6.55-.53-6.55Z"/>
    </g>
  </g>
</svg>