<?xml version="1.0" encoding="UTF-8"?>
<svg id="Laag_2" data-name="Laag 2" xmlns="http://www.w3.org/2000/svg" viewBox="0 0 143.68 128.54">
  <defs>
    <style>
      .cls-1 {
        fill: #723d20;
      }

      .cls-1, .cls-2, .cls-3 {
        stroke-width: 0px;
      }

      .cls-2 {
        fill: #eacab9;
      }

      .cls-3 {
        fill: #000c00;
      }

      .cls-4 {
        fill: none;
        stroke: #000c00;
        stroke-linecap: round;
        stroke-linejoin: round;
        stroke-width: 3px;
      }
    </style>
  </defs>
  <g id="Landingspagina_" data-name="Landingspagina\">
    <polygon class="cls-1" points="71.8 3 53.29 40.23 47.58 40.67 47.8 49.18 13.49 69.3 87.53 125.54 99.92 83.49 106.24 82.2 106.24 74.98 140.68 42.73 108.17 19.13 71.8 3"/>
    <polygon class="cls-2" points="81.5 95.63 95.12 104.8 100.68 84.03 106.91 82.62 107.66 74.91 125.9 58 62.57 20.07 53.29 40.23 47.58 40.67 46.74 48.47 29.77 58.59 81.5 95.63"/>
    <g>
      <path class="cls-3" d="m71.8,3l36.38,16.13,32.5,23.6-34.44,32.25v7.22l-6.32,1.29-12.38,42.05L13.49,69.3l34.31-20.12.77-7.22,5.68-1.29L71.8,3m0-3c-1.13,0-2.21.64-2.72,1.73l-16.92,36.33-4.24.96c-1.25.28-2.18,1.33-2.32,2.61l-.61,5.72-33.01,19.36c-.86.51-1.42,1.41-1.48,2.41-.06,1,.38,1.96,1.18,2.57l74.04,56.24c.53.4,1.17.61,1.81.61.31,0,.63-.05.94-.15.94-.31,1.66-1.06,1.94-2l11.87-40.32,4.55-.93c1.4-.29,2.4-1.51,2.4-2.94v-5.92l33.49-31.36c.65-.61,1-1.48.94-2.38-.06-.89-.51-1.72-1.23-2.24l-32.5-23.6c-.17-.12-.35-.23-.55-.32L73.01.26c-.4-.18-.81-.26-1.21-.26h0Z"/>
      <line class="cls-4" x1="63.62" y1="20.56" x2="124.9" y2="57.51"/>
      <line class="cls-4" x1="30.36" y1="59.41" x2="93.78" y2="104.33"/>
      <polygon class="cls-3" points="70.43 3 60.24 4.03 49.79 31.77 42.05 33.96 41.28 41.31 0 67.24 69.14 124.51 84.62 125.54 15.87 69.3 47.6 47.89 47.58 40.67 53.29 40.23 70.43 3"/>
    </g>
  </g>
</svg>