<?xml version="1.0" encoding="UTF-8"?>
<svg id="Laag_2" data-name="Laag 2" xmlns="http://www.w3.org/2000/svg" viewBox="0 0 49.99 94.53">
  <defs>
    <style>
      .cls-1, .cls-2, .cls-3 {
        stroke-width: 0px;
      }

      .cls-2 {
        fill: #3f6538;
      }

      .cls-3 {
        fill: #fff;
      }
    </style>
  </defs>
  <g id="Landingspagina_" data-name="Landingspagina\">
    <g>
      <g>
        <polygon class="cls-2" points="46.32 19.08 20.11 15.34 22.19 .79 48.28 5.35 46.32 19.08"/>
        <path class="cls-1" d="m22.86,3l24.13,3.44-1.58,11.09-24.13-3.44,1.58-11.09m0-3c-.65,0-1.28.21-1.8.6-.64.48-1.06,1.19-1.17,1.98l-1.58,11.09c-.23,1.64.91,3.16,2.55,3.39l24.13,3.44c.14.02.28.03.42.03.65,0,1.28-.21,1.8-.6.64-.48,1.06-1.19,1.17-1.98l1.58-11.09c.23-1.64-.91-3.16-2.55-3.39L23.29.03c-.14-.02-.28-.03-.42-.03h0Z"/>
        <polygon class="cls-3" points="44.78 20.56 18.77 16.85 15.88 22.24 7.58 86.43 37.95 90.75 48.23 23.59 44.78 20.56"/>
        <path class="cls-1" d="m20.85,17.15l23.93,3.41,1.45,4.17-9.23,64.76-28.01-3.99L18.23,20.59l2.61-3.45m0-3c-.93,0-1.82.43-2.39,1.19l-2.61,3.45c-.31.41-.51.88-.58,1.39L6.02,85.07c-.11.79.09,1.59.57,2.22s1.19,1.06,1.98,1.17l28.01,3.99c.14.02.29.03.43.03,1.47,0,2.75-1.08,2.97-2.58l9.23-64.76c.07-.47.02-.96-.14-1.41l-1.45-4.17c-.37-1.06-1.3-1.83-2.41-1.99l-23.93-3.41c-.14-.02-.28-.03-.42-.03h0Z"/>
      </g>
      <polygon class="cls-1" points="20.78 2.7 15.53 5.07 14.38 13.11 10.33 17.7 0 90.21 30.32 94.53 35.04 90.34 7.58 86.43 15.88 22.24 20.11 15.34 20.78 2.7"/>
    </g>
  </g>
</svg>