<?xml version="1.0" encoding="UTF-8"?>
<svg id="Laag_2" data-name="Laag 2" xmlns="http://www.w3.org/2000/svg" viewBox="0 0 192.65 201.37">
  <defs>
    <style>
      .cls-1 {
        fill: #74a56a;
      }

      .cls-1, .cls-2, .cls-3, .cls-4, .cls-5, .cls-6 {
        stroke-width: 0px;
      }

      .cls-2 {
        fill: #4f8348;
      }

      .cls-3 {
        fill: #a42b23;
      }

      .cls-4 {
        fill: #3f6538;
      }

      .cls-5 {
        fill: #d4e5cb;
      }

      .cls-6 {
        fill: #000c00;
      }

      .cls-7 {
        fill: none;
        stroke: #000c00;
        stroke-linecap: round;
        stroke-linejoin: round;
        stroke-width: 3px;
      }
    </style>
  </defs>
  <g id="Landingspagina_" data-name="Landingspagina\">
    <g>
      <g>
        <polygon class="cls-5" points="84.71 94.15 118.85 109.67 137.37 162.67 100.6 180.09 79.73 134.61 84.71 94.15"/>
        <polygon class="cls-1" points="86.19 95.05 118.85 109.67 129.87 89.54 104.96 18.9 69.66 37.68 86.19 95.05"/>
        <polygon class="cls-1" points="84.74 96.45 79.73 134.61 51.12 134.09 14.1 78.54 47.09 53.3 84.74 96.45"/>
        <polygon class="cls-4" points="25.36 43.99 37.53 57.87 47.27 51.73 80.61 88.35 71.34 40.2 79.48 31.44 73.32 17.2 26.11 43.18 25.36 43.99"/>
        <g>
          <g>
            <path class="cls-6" d="m103.21,21.66l23.94,68.38-10.34,18.57,18.6,52.43-31.13,15.35-24.26-44.7-23.95,1.71-39.56-55.08,30.57-25.01,42.22,49.86-16.17-63.71,30.08-17.79m0-3c-.53,0-1.06.14-1.53.42l-30.08,17.79c-1.15.68-1.71,2.03-1.38,3.32l12.97,51.12-33.83-39.95c-.59-.7-1.44-1.06-2.29-1.06-.67,0-1.34.22-1.9.68l-30.57,25.01c-1.23,1-1.46,2.79-.54,4.07l39.56,55.08c.57.79,1.47,1.25,2.44,1.25.07,0,.14,0,.21,0l22.02-1.57,23.34,43c.54,1,1.57,1.57,2.64,1.57.45,0,.9-.1,1.32-.31l31.13-15.35c1.36-.67,2.01-2.26,1.5-3.69l-18.15-51.15,9.68-17.38c.42-.75.49-1.64.21-2.45l-23.94-68.38c-.3-.85-.96-1.52-1.8-1.83-.33-.12-.68-.18-1.03-.18h0Z"/>
            <path class="cls-6" d="m73.19,20.1l3.83,11.43-7.36,6.15,10.74,47.5-33.63-35.48-8.61,5.33-9.99-10.91,45.02-24.02m0-3c-.49,0-.97.12-1.41.35l-45.02,24.02c-.82.44-1.39,1.23-1.54,2.14-.16.91.12,1.85.74,2.53l9.99,10.91c.59.64,1.4.97,2.21.97.54,0,1.09-.15,1.58-.45l6.54-4.04,31.95,33.7c.58.61,1.37.94,2.18.94.48,0,.97-.12,1.41-.35,1.19-.64,1.81-1.99,1.51-3.31l-10.34-45.71,5.96-4.97c.95-.79,1.31-2.08.92-3.26l-3.83-11.43c-.28-.84-.92-1.51-1.74-1.83-.36-.14-.73-.21-1.11-.21h0Z"/>
            <line class="cls-7" x1="80.4" y1="85.18" x2="56.09" y2="40.07"/>
            <line class="cls-7" x1="109.23" y1="145.11" x2="80.4" y2="85.18"/>
            <line class="cls-7" x1="105.26" y1="101.35" x2="92.57" y2="41.78"/>
            <line class="cls-7" x1="76.69" y1="118.89" x2="37.87" y2="76.2"/>
          </g>
          <polygon class="cls-6" points="27.32 48.38 23.32 58.19 29.7 64.13 37.53 57.87 27.32 48.38"/>
          <polygon class="cls-6" points="15.81 81.23 13.31 95.74 51.01 146.52 76.49 143.13 100.93 189.27 131.48 174.12 134.53 164.15 105.06 178.93 77.66 133.6 54.24 136.35 15.81 81.23"/>
        </g>
      </g>
      <g>
        <polygon class="cls-3" points="84.73 141.8 63.81 137.4 49.71 162.22 77.67 186.8 111.13 173.66 107.42 147.86 88.65 141.8 84.73 141.8"/>
        <path class="cls-6" d="m64.62,139.34l32.64,5.46,8.54,4.34,5.32,24.51-33.2,9.95-26.1-23.39,12.79-20.87m0-3c-1.03,0-2.01.53-2.56,1.43l-12.79,20.87c-.76,1.24-.52,2.83.56,3.8l26.1,23.39c.56.5,1.27.77,2,.77.29,0,.58-.04.86-.13l33.2-9.95c1.5-.45,2.4-1.98,2.07-3.51l-5.32-24.51c-.19-.88-.77-1.63-1.57-2.04l-8.54-4.34c-.27-.14-.56-.23-.86-.28l-32.64-5.46c-.17-.03-.33-.04-.5-.04h0Z"/>
        <polygon class="cls-4" points="101.46 156.59 95.93 141.8 103.26 133.34 94.48 135.25 89.72 138.05 90.47 127.03 80.42 127.45 81.48 137.4 68.76 128.7 76.41 141.09 62.97 148.89 71.7 149.73 84.02 147.25 101.46 156.59"/>
        <path class="cls-6" d="m89,127.86l-1.54,12.61,14.01-6.44-8.12,8.12,7,13.6-14.15-9.81-21.57,2.8,14.05-7.14-8.31-11.49,12.68,9.67-1.19-11.07,7.14-.84m0-3c-.12,0-.23,0-.35.02l-7.14.84c-1.63.19-2.81,1.66-2.63,3.3l.44,4.13-7.13-5.44c-.54-.41-1.18-.61-1.82-.61-.76,0-1.52.29-2.1.85-1.06,1.04-1.21,2.7-.34,3.91l6.25,8.64-10.93,5.55c-1.3.66-1.94,2.16-1.51,3.56.39,1.27,1.56,2.11,2.86,2.11.13,0,.26,0,.39-.03l20.43-2.65,13.2,9.16c.52.36,1.11.54,1.71.54.71,0,1.42-.25,1.98-.74,1.04-.91,1.32-2.4.69-3.63l-6-11.65,6.58-6.58c1.03-1.03,1.17-2.64.34-3.84-.58-.83-1.51-1.29-2.46-1.29-.42,0-.85.09-1.25.27l-9.12,4.2.89-7.27c.11-.91-.2-1.83-.85-2.48-.57-.57-1.33-.88-2.13-.88h0Zm0,6h0,0Z"/>
        <polygon class="cls-6" points="68.48 130.77 67.36 134.69 60.45 133.1 42.52 162.99 74.64 190.72 96.3 184.93 101.46 177.84 77.93 183.61 51.83 160.21 63.81 137.4 74.83 139.34 68.48 130.77"/>
        <path class="cls-6" d="m79.44,128.7l-4.1,3.01s4.45,3.57,4.62,3.54-.53-6.55-.53-6.55Z"/>
      </g>
      <g>
        <polygon class="cls-2" points="152.65 167.47 134.32 170.8 123.51 152.82 163.35 28.61 179.47 25.38 191.27 42.52 152.65 167.47"/>
        <polygon class="cls-4" points="182.76 29.31 177.01 24.06 180.28 18.82 183.41 20.92 182.76 29.31"/>
        <g>
          <g>
            <path class="cls-6" d="m178.69,27.22l10.96,14.38-38.35,124.15-16.14,3.13-8.49-13.85,39.44-123.92,12.58-3.89m0-3c-.3,0-.59.04-.89.13l-12.58,3.89c-.94.29-1.67,1.02-1.97,1.96l-39.44,123.92c-.26.83-.15,1.73.3,2.48l8.49,13.85c.55.9,1.53,1.43,2.56,1.43.19,0,.38-.02.57-.06l16.14-3.13c1.09-.21,1.97-1,2.3-2.06l38.35-124.15c.29-.93.11-1.93-.48-2.7l-10.96-14.38c-.58-.76-1.47-1.18-2.39-1.18h0Z"/>
            <line class="cls-7" x1="169.54" y1="37.86" x2="131.66" y2="151.8"/>
            <line class="cls-7" x1="182.14" y1="44.57" x2="171.67" y2="78.72"/>
            <line class="cls-7" x1="167.13" y1="93.22" x2="147.16" y2="157.89"/>
            <polyline class="cls-7" points="176.13 25.81 179.39 18.63 182.83 19.94 183.59 30.46"/>
          </g>
          <polygon class="cls-6" points="179.39 18.63 173.61 18.87 171.15 22.33 160.04 26.98 118.27 158.1 133.11 176.46 146.78 173.95 151.3 165.75 135.16 168.88 126.67 155.03 166.11 31.11 176.85 26.37 179.39 18.63"/>
        </g>
      </g>
      <g>
        <g>
          <path class="cls-6" d="m183.01,60.36l-11,103.49-101.55,21.99L9.02,100.46l173.99-40.1m0-3c-.22,0-.45.03-.67.08L8.35,97.54c-.98.23-1.78.93-2.13,1.87s-.21,1.99.37,2.81l61.45,85.38c.57.79,1.48,1.25,2.43,1.25.21,0,.42-.02.64-.07l101.55-21.99c1.26-.27,2.21-1.33,2.35-2.62l11-103.49c.1-.96-.27-1.92-.99-2.56-.55-.49-1.26-.75-1.99-.75h0Zm0,6h0,0Z"/>
          <line class="cls-7" x1="72.19" y1="1.5" x2="9.02" y2="100.46"/>
          <line class="cls-7" x1="183.01" y1="60.36" x2="75.64" y2="43.33"/>
          <line class="cls-7" x1="96.02" y1="80.41" x2="119.05" y2="175.32"/>
          <line class="cls-7" x1="117.01" y1="75.57" x2="139.12" y2="170.97"/>
          <line class="cls-7" x1="139.12" y1="70.48" x2="160.2" y2="166.41"/>
          <line class="cls-7" x1="100.88" y1="100.46" x2="181.75" y2="82.84"/>
          <line class="cls-7" x1="105.25" y1="118.44" x2="178.46" y2="103.24"/>
          <line class="cls-7" x1="109.85" y1="137.4" x2="176.13" y2="125.17"/>
          <polyline class="cls-7" points="115.18 159.35 173.89 146.24 160.2 65.62"/>
          <line class="cls-7" x1="76.82" y1="85.52" x2="96.14" y2="181.53"/>
          <line class="cls-7" x1="54.59" y1="90.03" x2="75.07" y2="186.09"/>
          <line class="cls-7" x1="101.8" y1="101.52" x2="22.11" y2="118.65"/>
          <line class="cls-7" x1="105.27" y1="119.69" x2="33.88" y2="135.77"/>
          <line class="cls-7" x1="108.92" y1="138.86" x2="45.73" y2="153.5"/>
          <polyline class="cls-7" points="113.14 161.05 56.56 169.02 33.39 94.32"/>
        </g>
        <polygon class="cls-6" points="9.02 100.46 0 115.08 64.83 201.37 166.66 181.53 172.02 163.85 70.47 185.84 9.02 100.46"/>
      </g>
    </g>
  </g>
</svg>